<svg xmlns="http://www.w3.org/2000/svg" xmlns:xlink="http://www.w3.org/1999/xlink" width="425.658" height="425.658" viewBox="0 0 425.658 425.658">
  <defs>
    <clipPath id="clip-path">
      <circle id="Ellipse_100" data-name="Ellipse 100" cx="212.829" cy="212.829" r="212.829" transform="translate(1398.629 -566.009)" fill="none"/>
    </clipPath>
  </defs>
  <g id="Group_192" data-name="Group 192" transform="translate(-1398.629 566.009)">
    <g id="Group_191" data-name="Group 191">
      <g id="Group_190" data-name="Group 190">
        <g id="Group_189" data-name="Group 189" clip-path="url(#clip-path)">
          <g id="Group_188" data-name="Group 188">
            <circle id="Ellipse_86" data-name="Ellipse 86" cx="212.829" cy="212.829" r="212.829" transform="translate(1398.629 -566.009)" fill="#e6e7e8"/>
            <path id="Path_1474" data-name="Path 1474" d="M1696.384,127.052H1526.531l23.909-381.407h122.035Z" fill="#221f1f"/>
            <path id="Path_1475" data-name="Path 1475" d="M1615.926-528s.075.656.153,1.928c.038.636.077,1.429.1,2.378.007.471.034.994.015,1.534l-.107,1.716a61.094,61.094,0,0,1-5.067,20.278,104.022,104.022,0,0,1-15.97,25.492,154.9,154.9,0,0,1-24.445,23.248c-8.8,6.744-17.179,12.187-24.7,17.193a198.373,198.373,0,0,0-19.317,13.984,67.6,67.6,0,0,0-6.825,6.655,53.731,53.731,0,0,0-4.664,6.142c-.586.928-1.137,1.788-1.548,2.557-.433.768-.819,1.44-1.082,1.993l-.877,1.725s-.344-.565-.951-1.708c-.318-.572-.639-1.292-1.012-2.169a30.821,30.821,0,0,1-1.137-3.11,40.3,40.3,0,0,1-1.666-9.131,51.214,51.214,0,0,1,.763-12.505c1.607-9.194,5.869-19.571,12.336-29.186a111.146,111.146,0,0,1,24.725-26.129,188.565,188.565,0,0,1,27.47-17.16c8.5-4.505,16.272-8.171,22.721-11.689a122.375,122.375,0,0,0,15.351-9.543l1.322-.951c.41-.305.757-.611,1.106-.888l1.774-1.437Z" fill="#452715"/>
            <path id="Path_1476" data-name="Path 1476" d="M1674.825-518.685s-.064.7-.245,2.022c-.091.663-.212,1.484-.373,2.459l-.275,1.575q-.192.821-.409,1.746c-.3,1.235-.652,2.612-1.071,4.126-.456,1.475-1,3.062-1.606,4.782-.588,1.744-1.365,3.478-2.176,5.377s-1.768,3.831-2.819,5.849a111.8,111.8,0,0,1-18.563,25.646c-2.08,2.127-4.252,4.286-6.613,6.331-2.313,2.1-4.84,4.071-7.434,6.054a106.013,106.013,0,0,1-17.594,10.544q-2.485,1.11-4.97,2.138l-.615.252-.55.208-1.1.41-2.193.8c-2.9,1.03-5.788,1.957-8.582,2.788-5.622,1.672-11.022,2.994-16.13,4.144-10.259,2.262-19.407,3.9-27.328,5.485-7.86,1.6-14.492,3.139-19.149,4.446-1.183.3-2.243.58-3.138.86l-2.33.671-1.98.539s.241-.659.753-1.894c.257-.618.583-1.381.985-2.281s.9-1.92,1.5-3.035a83.71,83.71,0,0,1,12.5-17.588,128.627,128.627,0,0,1,23.849-20.1,174.09,174.09,0,0,1,15.054-8.919c2.631-1.392,5.273-2.713,7.966-3.994l3.986-1.855q1.727-.84,3.5-1.62c4.754-2.243,9.559-4.521,14.319-6.715,2.357-1.157,4.745-2.193,7.059-3.319l6.907-3.208c9.086-4.2,17.505-8.174,24.742-11.711,1.8-.889,3.573-1.724,5.183-2.58s3.257-1.605,4.676-2.4l4.125-2.186,3.463-1.953,1.52-.84,1.3-.782,2.08-1.239Z" fill="#452715"/>
            <path id="Path_1477" data-name="Path 1477" d="M1756.778-494.218s-.629.625-1.857,1.771-3.044,2.844-5.475,4.875a197.613,197.613,0,0,1-21.56,15.776,296.873,296.873,0,0,1-33.986,18.432q-9.687,4.521-20.156,8.831c-3.49,1.423-7.01,2.855-10.61,4.228-3.564,1.408-7.282,2.763-10.727,4.08-7.036,2.643-13.892,5.151-20.4,7.737l-2.456.93-2.39.978c-1.584.653-3.2,1.241-4.749,1.891-3.078,1.32-6.183,2.519-9.094,3.85-3,1.235-5.793,2.6-8.61,3.86l-1.052.472-1.009.507-2.013.995c-1.324.67-2.708,1.264-3.966,1.953l-3.783,2-1.867.973-1.769,1.026-3.5,1.986c-.591.314-1.137.658-1.673,1l-1.616,1.016-3.18,1.966c-1.027.655-1.966,1.351-2.932,2s-1.909,1.3-2.822,1.921c-.944.611-1.73,1.3-2.577,1.919l-2.427,1.835c-.783.6-1.58,1.152-2.244,1.754l-3.855,3.245c-1.22.967-2.186,1.913-3.056,2.73l-2.241,2.078-1.912,1.733s.072-.871.274-2.542c.1-.836.234-1.873.411-3.107a36.153,36.153,0,0,1,.776-4.227c.37-1.569.8-3.324,1.315-5.26.232-.984.591-1.939.938-2.961q.543-1.531,1.128-3.179c.418-1.088.787-2.278,1.314-3.4l1.61-3.519c.573-1.2,1.139-2.479,1.8-3.723l2.135-3.778,1.14-1.962c.384-.666.783-1.333,1.224-1.966l2.688-3.951,1.422-2.036c.5-.666,1.019-1.311,1.54-1.977q1.572-1.986,3.25-4.037c1.113-1.376,2.343-2.632,3.564-3.98l1.875-2.007.957-1.011,1-.965c2.68-2.569,5.476-5.243,8.519-7.685,2.994-2.563,6.218-4.895,9.545-7.282,1.668-1.181,3.4-2.261,5.144-3.392l2.644-1.675,2.715-1.572a152.51,152.51,0,0,1,23.37-11c4.179-1.589,8.094-2.831,12.032-4.039,3.932-1.158,7.83-2.233,11.666-3.157,7.672-1.87,15.121-3.3,22.184-4.419,14.142-2.239,26.852-3.352,37.633-4.249,10.776-.873,19.689-1.42,25.934-1.81,3.132-.165,5.568-.336,7.249-.4Z" fill="#452715"/>
            <path id="Path_1478" data-name="Path 1478" d="M1790.639-446.8s-.638.537-1.89,1.517l-2.343,1.794-1.52,1.126c-.549.389-1.143.772-1.773,1.191-1.262.831-2.68,1.744-4.257,2.727-1.583.949-3.334,1.9-5.237,2.942-1.9,1.069-3.977,2.008-6.2,3.065-2.223,1.074-4.6,2.017-7.129,3.035l-1.923.759-1.973.7-4.107,1.414c-2.8.916-5.739,1.763-8.8,2.6a190.236,190.236,0,0,1-19.547,4.026,252.59,252.59,0,0,1-43.756,2.567c-14.962-.335-28.756-1.57-41.262-2.593l-4.632-.385c-1.53-.139-3.016-.216-4.5-.344-2.985-.279-5.835-.4-8.654-.642l-8.132-.466-3.86-.155-1.89-.093-1.832-.027c-2.417-.026-4.79-.156-6.989-.1-2.207.038-4.371-.05-6.335.066l-5.612.182-4.778.3c-.727.046-1.426.071-2.073.123l-1.807.179-2.882.263-2.432.189s.535-.636,1.6-1.817c.533-.59,1.2-1.317,2.008-2.17l1.314-1.373c.479-.475,1.007-.947,1.564-1.463q1.679-1.537,3.8-3.386c1.431-1.184,3.038-2.39,4.787-3.71,1.74-1.358,3.7-2.56,5.782-3.928,2.083-1.393,4.363-2.618,6.783-3.965l1.846-1,1.912-.935,3.993-1.9c1.369-.653,2.777-1.19,4.22-1.793,1.442-.576,2.923-1.2,4.434-1.74,3.02-1.058,6.189-2.192,9.457-3.1,1.635-.464,3.309-.966,5-1.381s3.407-.823,5.152-1.221a177.064,177.064,0,0,1,21.858-3.369,205.946,205.946,0,0,1,23.121-.78,343.529,343.529,0,0,1,42.517,4.07c6.391.961,12.408,1.9,18.087,2.836l8.22,1.3,3.9.594,1.9.3,1.85.254c2.441.333,4.808.735,7.029.986,2.227.269,4.376.625,6.362.809l5.627.649,4.8.454,2.073.209,1.82.13,2.891.232Z" fill="#452715"/>
            <path id="Path_1479" data-name="Path 1479" d="M1786.558-408.721s-2.283,1.68-6.609,4.333c-1.083.656-2.293,1.4-3.633,2.145q-2.01,1.088-4.4,2.3c-1.589.8-3.3,1.643-5.128,2.5-1.829.841-3.775,1.634-5.833,2.473-2.058.822-4.229,1.686-6.5,2.486q-3.41,1.155-7.126,2.28l-3.786,1.107c-1.284.335-2.589.655-3.918.972-2.657.631-5.4,1.237-8.229,1.794a155.987,155.987,0,0,1-36.866,2.342,158.019,158.019,0,0,1-36.224-6.753q-4.087-1.32-7.92-2.724c-1.276-.467-2.53-.932-3.76-1.414l-3.613-1.514q-3.543-1.52-6.789-3.046c-2.159-1.041-4.212-2.117-6.16-3.149s-3.789-2.041-5.513-3.06-3.332-2.031-4.827-2.984-2.875-1.86-4.136-2.711-2.392-1.707-3.408-2.457c-4.06-3.02-6.2-4.9-6.2-4.9s2.815-.693,7.711-1.573l8.829-1.523q2.557-.416,5.421-.817c1.909-.278,3.929-.6,6.026-.881s4.282-.543,6.548-.811q3.409-.443,7.039-.806l7.46-.692q3.831-.333,7.834-.536a267.023,267.023,0,0,1,34.277-.1,273.6,273.6,0,0,1,33.92,4.226q3.922.663,7.672,1.435l3.7.794,3.587.738q3.539.758,6.864,1.581c2.21.514,4.334.987,6.38,1.5l11.152,2.848c1.662.441,3.22.874,4.663,1.288l3.951,1.059C1783.8-409.658,1786.558-408.721,1786.558-408.721Z" fill="#452715"/>
            <path id="Path_1480" data-name="Path 1480" d="M1790.639-346.985s-.7.469-2.068,1.316l-2.551,1.542c-1.015.605-2.2,1.3-3.556,1.977-1.357.7-2.881,1.463-4.57,2.281s-3.561,1.558-5.59,2.4c-2.027.87-4.233,1.6-6.6,2.407-2.365.837-4.9,1.516-7.588,2.234l-2.047.536c-.692.165-1.393.308-2.1.462l-4.381.9c-1.5.311-3.026.5-4.594.74-1.565.212-3.176.485-4.8.624a142.246,142.246,0,0,1-20.936.624,155.44,155.44,0,0,1-22.771-2.869,161.076,161.076,0,0,1-23.308-6.64,177.682,177.682,0,0,1-21.73-9.677,213.837,213.837,0,0,1-18.794-11.136,276.246,276.246,0,0,1-29.169-22.367c-7.912-6.909-14.066-12.929-18.286-17.211s-6.474-6.842-6.474-6.842,3.4.167,9.4.873,14.562,1.995,24.837,4.141c10.273,2.128,22.233,5.151,34.971,8.936s26.247,8.365,39.89,13.353c6.827,2.492,13.383,5.024,19.7,7.393s12.4,4.63,18.248,6.758c5.852,2.046,11.478,3.992,16.852,5.693,1.342.462,2.669.8,3.979,1.219,1.309.383,2.6.837,3.876,1.173l3.765,1.065,1.839.531,1.806.462c9.546,2.527,17.758,4.289,23.567,5.372,1.458.317,2.754.529,3.887.726l2.889.528Z" fill="#452715"/>
            <path id="Path_1481" data-name="Path 1481" d="M1810.566-377.925s-.675.578-2,1.638l-2.476,1.941-1.6,1.221-1.875,1.293q-2,1.363-4.492,2.988-2.52,1.52-5.541,3.236a136.167,136.167,0,0,1-14.186,6.76,154.752,154.752,0,0,1-39.643,10.054,180.353,180.353,0,0,1-23.968,1.188,185.707,185.707,0,0,1-25.365-2.238,196.537,196.537,0,0,1-24.563-5.5,223.187,223.187,0,0,1-21.98-7.6,265.692,265.692,0,0,1-35.189-17.378c-9.665-5.675-17.22-10.835-22.386-14.557s-7.938-6-7.938-6,3.587-.25,9.939-.334,15.467-.007,26.485.523,23.928,1.493,37.886,2.96c6.979.746,14.222,1.609,21.64,2.579,7.419.988,15.013,2.1,22.716,3.3s15.162,2.5,22.353,3.707l20.759,3.474c13.259,2.091,25.43,3.836,35.944,4.822,5.253.5,10.092.88,14.4,1.149l6.056.339,5.154.17,2.227.1,1.951.023,3.1.062Z" fill="#452715"/>
            <path id="Path_1482" data-name="Path 1482" d="M1541.625-349.735l-1.581-.69c-1.016-.48-2.584-1.132-4.458-2.172a83.926,83.926,0,0,1-15.117-10.356c-1.522-1.239-2.972-2.662-4.535-4.133-1.54-1.487-3.047-3.121-4.615-4.83-1.484-1.759-3.09-3.564-4.541-5.559-.738-.991-1.5-1.994-2.232-3.039l-2.144-3.229a93.763,93.763,0,0,1-7.631-14.615,95.068,95.068,0,0,1-5.228-17.017,95.034,95.034,0,0,1-1.79-17.711,93.772,93.772,0,0,1,1.357-16.431l.722-3.809c.268-1.246.582-2.467.877-3.666.562-2.4,1.342-4.689,2.026-6.887.781-2.184,1.536-4.275,2.377-6.242.87-1.963,1.653-3.838,2.575-5.57a83.927,83.927,0,0,1,9.909-15.414c1.323-1.685,2.515-2.9,3.264-3.733l1.189-1.249-.07,1.731c-.033,1.134-.194,2.752-.252,4.852-.221,4.162-.368,10.108-.259,17.136-.014,1.748.117,3.594.152,5.474.063,1.886.2,3.843.29,5.837.184,2.007.244,4.048.476,6.149l.277,3.173q.172,1.6.348,3.236c.945,8.709,2.436,17.955,4.323,27.508,1.971,9.537,4.187,18.636,6.7,27.029q.473,1.578.935,3.117l.977,3.031c.6,2.026,1.339,3.931,1.949,5.852.694,1.871,1.325,3.729,2,5.491.7,1.746,1.294,3.5,1.986,5.1,2.628,6.519,5.073,11.941,6.892,15.69.869,1.914,1.646,3.342,2.117,4.374Z" fill="#452715"/>
            <path id="Path_1483" data-name="Path 1483" d="M1538.557-355.122s-2.055-.57-5.6-1.825a140.93,140.93,0,0,1-14.527-6.086,117.193,117.193,0,0,1-19.9-12.162,91.929,91.929,0,0,1-20.286-21.166,80.18,80.18,0,0,1-7.457-13.876,76.173,76.173,0,0,1-4.3-14.116q-.325-1.748-.606-3.444c-.189-1.131-.285-2.278-.411-3.387-.273-2.21-.3-4.415-.367-6.5-.026-1.045.041-2.092.07-3.1.054-1.016.06-1.993.175-2.97l.325-2.843.174-1.363.249-1.333a50.36,50.36,0,0,1,1.113-4.927c.455-1.536.814-2.957,1.35-4.265.5-1.308.959-2.5,1.441-3.582q.781-1.614,1.452-2.891c.226-.426.427-.826.642-1.2l.64-1.022,1.023-1.568c.56-.835.869-1.257.869-1.257l.323,1.508.359,1.785.217,1.118c.087.4.2.822.311,1.266l.709,2.9c.285,1.047.642,2.172.976,3.351.3,1.177.805,2.427,1.22,3.717.394,1.291.981,2.635,1.492,4.016l.4,1.044.462,1.057.917,2.156c.291.728.684,1.459,1.017,2.2.358.741.665,1.494,1.055,2.247.79,1.506,1.489,3.053,2.369,4.6.429.777.807,1.57,1.262,2.356l1.345,2.384c1.868,3.187,3.787,6.481,5.943,9.808q3.205,5,6.708,10.207l14.021,20.453c4.482,6.542,8.638,12.752,12.094,18.168s6.18,10.044,8,13.322S1538.557-355.122,1538.557-355.122Z" fill="#452715"/>
            <path id="Path_1484" data-name="Path 1484" d="M1522.24-358.044l-1.3.124c-.85.067-2.1.159-3.7.192a81.082,81.082,0,0,1-13.37-.793,82.4,82.4,0,0,1-19.007-5.021,74.491,74.491,0,0,1-10.491-5.131,68.794,68.794,0,0,1-10.3-7.37,66.917,66.917,0,0,1-15.494-19.457,60.752,60.752,0,0,1-6.43-19.569,52.348,52.348,0,0,1-.2-13.782c.189-1.608.467-2.858.628-3.691s.286-1.271.286-1.271l.893.963c.585.625,1.37,1.558,2.428,2.7,2.1,2.29,5.094,5.448,8.733,8.916,3.66,3.472,7.917,7.253,12.628,11.151,4.693,3.924,9.773,8.027,15.062,12.582q3.946,3.435,7.707,6.866c2.491,2.293,4.909,4.58,7.245,6.814,4.646,4.494,8.956,8.792,12.619,12.6s6.7,7.075,8.808,9.417c1.049,1.179,1.872,2.107,2.424,2.755Z" fill="#452715"/>
            <ellipse id="Ellipse_87" data-name="Ellipse 87" cx="110.184" cy="64.946" rx="110.184" ry="64.946" transform="translate(1501.274 -457.886)" fill="#452510"/>
            <path id="Path_1485" data-name="Path 1485" d="M1532.1-297.787l-.663-2.2-.754-2.689c-.3-1.068-.618-2.3-.912-3.7a129.718,129.718,0,0,1-3.108-24.125c-.148-2.589-.091-5.278-.078-8.112.043-2.826.229-5.754.435-8.8.306-3.022.562-6.188,1.086-9.392.247-1.607.485-3.246.783-4.894l1-4.992a147.522,147.522,0,0,1,6.1-20.72,150.246,150.246,0,0,1,9.843-21.028,150.38,150.38,0,0,1,13.1-19.166,147.5,147.5,0,0,1,14.744-15.782l3.789-3.4c1.268-1.1,2.559-2.134,3.816-3.163,2.493-2.079,5.09-3.91,7.536-5.709,2.521-1.727,4.949-3.376,7.361-4.85,2.433-1.451,4.72-2.867,7.025-4.056a129.648,129.648,0,0,1,22.356-9.586c1.351-.457,2.578-.808,3.648-1.1l2.7-.719,2.234-.548-1.409,1.829-1.717,2.164c-.683.84-1.465,1.81-2.316,2.93-3.479,4.372-8.329,10.719-13.918,18.441-1.428,1.9-2.809,3.988-4.312,6.063-1.481,2.1-2.959,4.324-4.522,6.561-1.491,2.312-3.121,4.587-4.662,7.038l-2.4,3.66-2.4,3.779c-6.474,10.18-13.093,21.379-19.88,33.182-6.715,11.845-12.994,23.239-18.47,33.988l-2.034,3.989q-.98,1.989-1.933,3.925c-1.328,2.573-2.458,5.134-3.691,7.593-1.133,2.483-2.3,4.886-3.352,7.229-1.022,2.349-2.122,4.6-3.029,6.8-3.809,8.739-6.809,16.142-8.805,21.36-.533,1.3-.97,2.469-1.347,3.484l-.991,2.579Z" fill="#824722"/>
            <path id="Path_1486" data-name="Path 1486" d="M1698.807-469.061s-2.025,2.475-5.929,6.624-9.71,9.938-17.115,16.6-16.4,14.191-26.429,22c-5.014,3.9-10.279,7.886-15.707,11.885-5.4,4.017-10.967,8.049-16.511,12.086-5.483,4.025-10.7,7.981-15.7,11.915-2.525,1.941-4.894,3.946-7.295,5.862-2.305,1.988-4.649,3.887-6.812,5.849l-1.656,1.436c-.547.478-1.054.977-1.584,1.459l-3.133,2.869c-1.961,1.954-4.011,3.8-5.8,5.717-3.77,3.739-6.982,7.494-10.008,11.011a134.257,134.257,0,0,0-12.9,18.433l-1.019,1.694c-.312.535-.56,1.049-.819,1.522l-1.3,2.424-1.118,2.03s-.149-.773-.386-2.27l-.41-2.791c-.07-.554-.17-1.159-.223-1.8l-.124-2.044a81.031,81.031,0,0,1,2.326-24.879,103.443,103.443,0,0,1,5.7-16.582c1.219-2.94,2.751-5.8,4.312-8.8.816-1.469,1.693-2.925,2.578-4.416.448-.739.886-1.5,1.363-2.233l1.462-2.193c1.941-2.981,4.136-5.85,6.413-8.781,2.352-2.837,4.791-5.734,7.463-8.468a135.972,135.972,0,0,1,17.711-15.539,194.222,194.222,0,0,1,38.053-21.189,293.736,293.736,0,0,1,32.924-11.676c9.561-2.795,17.475-4.677,23-5.933S1698.807-469.061,1698.807-469.061Z" fill="#824722"/>
            <path id="Path_1487" data-name="Path 1487" d="M1750.628-454.1s-.416.71-1.268,2.057a48.691,48.691,0,0,1-4.065,5.747l-1.554,1.891a24.943,24.943,0,0,1-1.8,2.024c-1.314,1.332-2.756,2.827-4.386,4.343-1.667,1.422-3.47,3.008-5.465,4.553l-3.133,2.281-1.654,1.18c-.562.392-1.14.742-1.724,1.121l-3.621,2.274c-1.245.78-2.528,1.454-3.845,2.2-2.641,1.506-5.4,2.866-8.292,4.282-5.746,2.735-11.977,5.358-18.356,7.8-6.38,2.458-12.96,4.814-19.473,7.194q-2.4.92-4.856,1.806l-4.785,1.857c-.816.291-1.588.63-2.365.963l-2.351.981-2.376.958-2.353,1.064a271.052,271.052,0,0,0-34.882,18.432,258.544,258.544,0,0,0-27.3,19.909c-7.592,6.381-13.581,12.2-17.714,16.375-1.08,1.019-1.915,2-2.714,2.822l-2.006,2.1-1.7,1.737.328-2.394c.124-.787.276-1.761.456-2.911.207-1.144.381-2.507.753-3.962a105.16,105.16,0,0,1,2.94-10.7q.519-1.551,1.075-3.209c.365-1.114.85-2.2,1.3-3.352.952-2.275,1.892-4.762,3.151-7.2a125.97,125.97,0,0,1,22.252-32.157,125.207,125.207,0,0,1,39.806-27.938c1-.442,1.988-.9,2.992-1.31l3.043-1.145,3.032-1.109c1.009-.366,2.016-.729,3.016-1.015,2-.6,4-1.211,5.967-1.748q2.934-.742,5.827-1.425c7.664-1.7,14.9-2.783,21.663-3.628,6.778-.825,13.015-1.453,18.855-2.051,2.878-.331,5.712-.59,8.35-.946,1.325-.174,2.671-.288,3.925-.485l3.729-.54c.608-.091,1.227-.158,1.813-.262l1.737-.314,3.385-.591c2.179-.427,4.207-.922,6.179-1.327,1.913-.487,3.684-1.009,5.373-1.451.857-.2,1.624-.484,2.37-.74l2.151-.729c2.8-.853,4.823-1.844,6.308-2.407Z" fill="#824722"/>
            <path id="Path_1488" data-name="Path 1488" d="M1800.525-440.559l-1.865,2.014c-.622.651-1.384,1.475-2.319,2.4l-3.29,3.156a158.55,158.55,0,0,1-23.218,17.588,247.885,247.885,0,0,1-38.217,19.257c-14.737,6.031-30.992,11.371-47.638,16.4-16.628,5.043-32.118,9.472-45.8,14.334a261.9,261.9,0,0,0-35.74,15.381c-4.944,2.668-9.381,5.3-13.232,7.784-1.907,1.257-3.681,2.466-5.32,3.6-1.586,1.178-3.1,2.23-4.415,3.236q-1.971,1.536-3.494,2.724c-1.011.8-1.828,1.526-2.521,2.091l-2.122,1.743.866-2.6c.3-.849.647-1.926,1.135-3.157s1.1-2.632,1.788-4.227c.709-1.582,1.594-3.284,2.551-5.189,1.008-1.859,2.152-3.868,3.455-5.995a118.833,118.833,0,0,1,10.059-13.7,144.559,144.559,0,0,1,33.883-28.567c14.22-8.829,30.958-16.02,48.62-21.372,17.672-5.331,34.494-8.521,49.572-11.2,15.1-2.642,28.589-4.814,39.983-6.994,11.367-2.182,20.668-4.307,27.139-5.992l4.315-1.131,3.173-.878Z" fill="#824722"/>
            <path id="Path_1489" data-name="Path 1489" d="M1813.1-393.322l-2.222,1.087c-1.462.685-3.622,1.737-6.441,2.92a240.229,240.229,0,0,1-24.249,8.765c-10.34,3.183-22.731,6.315-36.318,9.077s-28.315,5.223-43.473,7.439l-21.915,3.243c-7.067,1.022-13.81,2.168-20.28,3.255l-4.781.847c-1.578.275-3.107.611-4.642.893-3.086.537-6,1.241-8.908,1.8-1.444.3-2.831.659-4.225.966-1.38.333-2.782.588-4.1.953l-3.925.994-1.919.474-1.848.527c-2.436.7-4.835,1.291-7.02,2.019-2.2.707-4.364,1.277-6.29,1.989l-5.509,1.879-4.628,1.739c-.7.263-1.38.5-2,.742l-1.724.715-2.746,1.114-2.311.9,1.337-2.075,1.679-2.5,1.1-1.591c.4-.556.858-1.12,1.332-1.732q1.431-1.826,3.238-4.044c1.231-1.439,2.633-2.934,4.148-4.571,1.5-1.671,3.244-3.244,5.076-5,1.823-1.78,3.884-3.45,6.05-5.261l1.656-1.363,1.74-1.311,3.639-2.685c1.24-.932,2.562-1.745,3.892-2.64,1.339-.867,2.7-1.791,4.118-2.639,2.845-1.664,5.8-3.458,8.943-5.027,1.566-.8,3.156-1.645,4.792-2.412l5-2.278a173.2,173.2,0,0,1,21.8-7.806,193.529,193.529,0,0,1,24.035-5.181,253.94,253.94,0,0,1,46.241-2.186c14.061.534,26.584,1.835,37.132,3.081s19.144,2.52,25.143,3.391l6.94,1.064Z" fill="#824722"/>
            <path id="Path_1490" data-name="Path 1490" d="M1774.5-349.6l-1.941-.457-2.289-.569-1.428-.365c-.513-.119-1.076-.216-1.655-.336l-3.8-.778c-1.386-.245-2.9-.449-4.473-.71-1.55-.3-3.3-.4-5.044-.623-1.736-.251-3.641-.3-5.551-.464l-1.448-.113-1.5-.039-3.048-.109c-1.02-.059-2.1,0-3.159-.014-1.071.014-2.131-.039-3.235.007-2.212.106-4.427.081-6.745.27-1.155.082-2.3.094-3.481.2s-2.367.2-3.56.289c-4.8.471-9.753.955-14.871,1.717q-7.671,1.105-15.751,2.5c-10.914,1.969-21.6,4-31.742,5.963-10.123,1.953-19.653,3.732-27.868,5.108s-15.107,2.3-19.928,2.835-7.58.674-7.58.674,1.762-2.119,5.125-5.638a182.142,182.142,0,0,1,14.929-13.948,152.488,152.488,0,0,1,25.02-17.1,120.034,120.034,0,0,1,35.881-12.791,104.455,104.455,0,0,1,20.388-1.479,99.127,99.127,0,0,1,18.981,2.376q2.238.537,4.4,1.1c1.437.373,2.845.865,4.223,1.3,2.761.841,5.384,1.967,7.884,2.99,1.25.519,2.454,1.15,3.632,1.715,1.173.6,2.327,1.119,3.422,1.769l3.193,1.879,1.52.922,1.447.994c1.889,1.334,3.674,2.535,5.245,3.9,1.578,1.343,3.073,2.513,4.34,3.833,1.284,1.281,2.461,2.444,3.486,3.579q1.5,1.768,2.663,3.229c.387.49.756.937,1.081,1.385l.877,1.291c.535.8.975,1.478,1.324,2.027C1774.16-350.189,1774.5-349.6,1774.5-349.6Z" fill="#824722"/>
            <path id="Path_1491" data-name="Path 1491" d="M1782.641-282.35l-1.089-1.7c-.342-.543-.763-1.215-1.262-2.008l-.777-1.252c-.294-.438-.65-.89-1-1.37l-2.275-3.117c-.874-1.1-1.892-2.232-2.894-3.438l-.765-.913c-.274-.3-.58-.594-.872-.9l-1.794-1.838c-1.141-1.28-2.622-2.456-3.981-3.731-.349-.314-.686-.637-1.047-.95l-1.153-.907-2.31-1.854c-.76-.634-1.662-1.185-2.484-1.795l-1.26-.9a14.3,14.3,0,0,0-1.3-.887c-1.83-1.113-3.554-2.349-5.533-3.385l-1.436-.827a15.849,15.849,0,0,0-1.464-.807q-1.52-.754-3.022-1.546c-.252-.13-.5-.271-.754-.4l-.792-.349-1.577-.715-1.569-.738c-.515-.259-1.085-.438-1.622-.666l-3.259-1.345q-1.686-.576-3.354-1.21a136.679,136.679,0,0,0-13.933-3.965c-4.964-1.047-9.907-1.834-14.829-2.438-4.919-.647-9.833-.878-14.64-1.072q-1.8-.035-3.59-.1l-3.539.019-1.753-.009-1.731.062-3.425.08c-4.5.243-8.824.485-12.818.9-8,.781-14.8,1.748-19.56,2.534-1.2.168-2.265.354-3.188.519l-2.364.392-1.988.3s.4-.561,1.2-1.6l1.5-1.912c.6-.757,1.3-1.618,2.142-2.531s1.768-1.951,2.815-3.064c1.056-1.1,2.253-2.222,3.549-3.453,1.286-1.252,2.749-2.453,4.31-3.757,1.55-1.327,3.276-2.593,5.115-3.922a99.361,99.361,0,0,1,12.781-7.741l3.756-1.748,1.947-.875,2.019-.791c1.363-.522,2.754-1.047,4.177-1.557q2.159-.681,4.405-1.341a86.755,86.755,0,0,1,19.532-3.238,85.066,85.066,0,0,1,21.685,1.713,79.425,79.425,0,0,1,20.83,7.9q2.325,1.344,4.562,2.713c1.461.966,2.86,1.993,4.245,2.991.683.514,1.387.981,2.031,1.534l1.923,1.632q.944.817,1.875,1.628l.918.811c.3.28.582.577.871.864q1.72,1.734,3.343,3.446c.552.555,1.05,1.169,1.546,1.771l1.465,1.8a72.775,72.775,0,0,1,5.141,7.225c.4.582.742,1.209,1.082,1.827l1,1.832c.636,1.223,1.311,2.361,1.832,3.584s1.032,2.4,1.508,3.562l.7,1.714c.2.58.381,1.168.564,1.739a54.039,54.039,0,0,1,1.774,6.548q.294,1.564.573,3.039c.084.49.179.962.242,1.44l.13,1.425c.149,1.867.3,3.558.325,5.123-.039,1.59-.1,3.017-.177,4.283-.043.634-.063,1.222-.13,1.782l-.253,1.571c-.163.966-.313,1.771-.44,2.417C1782.8-283.01,1782.641-282.35,1782.641-282.35Z" fill="#824722"/>
            <path id="Path_1492" data-name="Path 1492" d="M1763.936-241.885l-2.523-6.382-1.361-3.265c-.513-1.175-1.124-2.431-1.717-3.756-.563-1.328-1.33-2.71-2.033-4.155-.678-1.449-1.544-2.932-2.365-4.468-.779-1.543-1.8-3.091-2.7-4.7-.437-.807-.991-1.6-1.49-2.406s-1.014-1.618-1.534-2.447l-1.66-2.455c-.278-.412-.537-.833-.827-1.244l-.893-1.229-1.771-2.492q-.951-1.224-1.879-2.476c-.592-.849-1.3-1.643-1.945-2.472-.665-.819-1.275-1.677-1.994-2.472q-1.041-1.215-2.047-2.467-1.094-1.191-2.15-2.422-4.345-4.83-9.089-9.544-4.822-4.64-9.755-8.861-1.257-1.027-2.472-2.092-1.276-.977-2.515-1.988c-.812-.7-1.683-1.29-2.518-1.936-.844-.628-1.655-1.313-2.518-1.885q-1.273-.9-2.519-1.821l-2.533-1.711-1.25-.864c-.418-.28-.844-.529-1.263-.8l-2.493-1.6-2.483-1.476c-.822-.479-1.623-1.015-2.441-1.433-1.628-.861-3.2-1.841-4.76-2.583-1.555-.784-3.058-1.615-4.522-2.259-1.461-.668-2.862-1.4-4.2-1.934-1.338-.562-2.608-1.143-3.8-1.628l-3.3-1.284-6.439-2.371s.533-.317,1.577-.88c.523-.282,1.174-.625,1.955-1.021l1.269-.633c.456-.214.945-.409,1.467-.63,1.044-.434,2.219-.9,3.527-1.4,1.307-.466,2.744-.886,4.316-1.351,1.575-.5,3.267-.818,5.1-1.207,1.833-.415,3.773-.646,5.845-.9,2.081-.3,4.242-.334,6.543-.44,1.154-.065,2.309,0,3.5.023,1.191.041,2.417.069,3.656.159q1.846.176,3.771.4c.64.078,1.291.143,1.938.244l1.948.347c1.307.247,2.649.484,3.99.794q2,.505,4.049,1.074c1.381.352,2.723.851,4.1,1.325,1.371.493,2.78.961,4.138,1.58q2.058.888,4.15,1.849,2.038,1.053,4.1,2.183a77.943,77.943,0,0,1,15.6,11.657,77.918,77.918,0,0,1,12.022,15.317q1.177,2.034,2.279,4.048,1.011,2.067,1.946,4.105c.651,1.343,1.153,2.741,1.677,4.1.507,1.367,1.038,2.7,1.423,4.069q.617,2.04,1.169,4.023c.342,1.333.609,2.669.888,3.97l.392,1.939c.116.644.2,1.294.29,1.932q.268,1.918.487,3.76c.119,1.237.176,2.463.245,3.652.053,1.194.144,2.347.105,3.5-.051,2.3-.037,4.464-.284,6.552-.206,2.077-.391,4.022-.762,5.865-.346,1.837-.627,3.537-1.086,5.122-.429,1.583-.814,3.03-1.249,4.348-.466,1.319-.908,2.505-1.317,3.558-.208.527-.392,1.021-.6,1.482l-.6,1.283c-.377.79-.705,1.449-.974,1.978C1764.24-242.426,1763.936-241.885,1763.936-241.885Z" fill="#824722"/>
            <path id="Path_1493" data-name="Path 1493" d="M1723.068-227.89l-.012-1.766c-.016-1.152.061-2.794.035-4.9,0-4.186-.129-10.1-.785-16.82-.092-.841-.137-1.686-.256-2.551l-.354-2.62-.165-1.327-.234-1.342q-.219-1.33-.445-2.709c-.744-3.633-1.505-7.347-2.618-11.031-1.1-3.684-2.364-7.343-3.824-10.958-1.478-3.616-3.193-7.148-5.088-10.73s-3.951-7.075-6.139-10.5c-2.235-3.4-4.6-6.708-7-9.938a216.719,216.719,0,0,0-14.9-17.266c-4.785-4.99-9.113-9.066-12.156-12l-3.585-3.361-1.261-1.235s.6-.088,1.741-.211,2.834-.3,5.014-.391a81.361,81.361,0,0,1,18.442,1.485,79.513,79.513,0,0,1,26.225,10.327,77.163,77.163,0,0,1,13.56,10.9,69.14,69.14,0,0,1,11.367,15.576,65.543,65.543,0,0,1,6.512,18.447,68.463,68.463,0,0,1,.934,17.91,69.242,69.242,0,0,1-3.122,15.455q-.609,1.727-1.226,3.362l-.621,1.611-.7,1.545-1.385,2.95c-.463.952-1,1.85-1.484,2.73a67.227,67.227,0,0,1-11.361,14.878c-1.541,1.544-2.886,2.626-3.75,3.372C1723.547-228.258,1723.068-227.89,1723.068-227.89Z" fill="#824722"/>
            <path id="Path_1494" data-name="Path 1494" d="M1699.765-204.6s-.416-2.5-.908-6.894-1.094-10.662-1.679-18.1c-.281-3.651-.589-7.644-.92-11.925-.373-4.2-.657-8.591-1.089-13.076-.776-9-1.819-18.294-3.1-27.662q-1.013-6.807-2.288-13.281c-.829-4.328-1.908-8.452-2.964-12.47q-.445-1.476-.852-2.958c-.261-1-.626-1.909-.915-2.871-.563-1.94-1.293-3.71-1.917-5.539-.306-.921-.709-1.741-1.045-2.617-.361-.85-.667-1.751-1.051-2.557l-1.117-2.426-.541-1.207-.589-1.132c-.8-1.478-1.495-3.034-2.329-4.337l-1.172-2-.571-.974-.6-.892c-.8-1.172-1.534-2.336-2.263-3.373l-2.113-2.781c-.326-.425-.627-.849-.929-1.22l-.873-1.011-1.4-1.634-1.175-1.4s.618-.012,1.81.019c.6.016,1.338.044,2.224.093l1.436.091c.506.051,1.031.143,1.6.228,1.132.177,2.4.4,3.809.669,1.375.32,2.84.762,4.455,1.243l1.23.381c.408.144.809.31,1.225.472l2.574,1.052a52.216,52.216,0,0,1,5.453,2.71c.47.26.957.518,1.43.8l1.394.9q1.41.918,2.881,1.92c.984.666,1.883,1.432,2.855,2.189.941.776,1.968,1.541,2.882,2.41a70.88,70.88,0,0,1,5.566,5.594c.887,1.021,1.853,2.041,2.69,3.148s1.7,2.233,2.558,3.393a78.987,78.987,0,0,1,8.646,15.751,81.512,81.512,0,0,1,5.075,18.643,89.6,89.6,0,0,1,.573,18.728,95.022,95.022,0,0,1-2.8,16.807,108.12,108.12,0,0,1-4.8,14.313,120.308,120.308,0,0,1-5.665,11.688,126.142,126.142,0,0,1-10.276,15.7C1701.47-206.466,1699.765-204.6,1699.765-204.6Z" fill="#824722"/>
            <path id="Path_1495" data-name="Path 1495" d="M1626.171-359.175s.663-.314,1.976-.871c.657-.267,1.479-.643,2.471-.984.993-.318,2.156-.677,3.5-1.064,1.338-.358,2.844-.627,4.535-.96.845-.155,1.72-.225,2.649-.337.923-.087,1.906-.234,2.907-.259a61.49,61.49,0,0,1,13.853.913,66.576,66.576,0,0,1,16.368,5.341,70.664,70.664,0,0,1,16.856,11.222,75.007,75.007,0,0,1,14.351,17.514,84.3,84.3,0,0,1,9.166,22.138,91.257,91.257,0,0,1,2.7,23.31,93.387,93.387,0,0,1-2.764,21.234,106.731,106.731,0,0,1-13.844,31.887,117.372,117.372,0,0,1-14.145,17.871c-1.871,1.923-3.368,3.363-4.421,4.314l-1.6,1.444.253-2.144c.182-1.382.449-3.418.793-6.036.684-5.19,1.631-12.607,2.425-21.378a236.12,236.12,0,0,0,.847-29.468,156.666,156.666,0,0,0-1.415-16.03,161.679,161.679,0,0,0-3.169-16.278,126.422,126.422,0,0,0-4.946-15.288,87.35,87.35,0,0,0-6.605-13.262,78.365,78.365,0,0,0-17.671-20.04,77.458,77.458,0,0,0-9.3-6.285c-.736-.45-1.475-.777-2.185-1.162-.714-.359-1.405-.758-2.084-1.061-1.359-.586-2.634-1.2-3.809-1.668l-3.191-1.2c-.943-.335-1.757-.549-2.423-.766Z" fill="#824722"/>
            <path id="Path_1496" data-name="Path 1496" d="M1578.615-371.73s-2.255.83-6.357,1.983c-2.056.594-4.564,1.205-7.482,1.817-1.46.309-3.023.621-4.682.926q-2.481.424-5.238.8a151.354,151.354,0,0,1-25.659,1.347,142.4,142.4,0,0,1-30.538-4.379,140.582,140.582,0,0,1-28.812-11.23,142.7,142.7,0,0,1-21.69-14.026q-2.2-1.731-4.137-3.351-1.923-1.674-3.577-3.2c-2.208-2.022-4.054-3.832-5.507-5.419-2.92-3.123-4.406-5-4.406-5s2.446-.121,6.635-.07l7.55.12c1.455.037,3,.092,4.615.169,1.634.047,3.354.1,5.139.193,7.119.4,15.484.913,24.473,2.1a214.637,214.637,0,0,1,28.7,5.434,209.932,209.932,0,0,1,27.736,9.406c8.446,3.436,16,7.157,22.392,10.43,1.6.827,3.117,1.647,4.558,2.434q2.163,1.146,4.08,2.221c2.55,1.432,4.754,2.736,6.565,3.785C1576.6-373.1,1578.615-371.73,1578.615-371.73Z" fill="#824722"/>
            <path id="Path_1497" data-name="Path 1497" d="M1589.58-374.515s-2.157,1.405-6.176,3.616c-2.009,1.126-4.491,2.385-7.4,3.747q-2.184,1.027-4.686,2.134c-1.667.714-3.435,1.427-5.3,2.159a179.424,179.424,0,0,1-26.564,8.075,175.8,175.8,0,0,1-33.014,4.064,181.089,181.089,0,0,1-33.049-2.376,204.487,204.487,0,0,1-26.791-6.295c-7.589-2.322-13.692-4.68-17.9-6.444s-6.518-2.935-6.518-2.935,2.377-1.047,6.653-2.6,10.448-3.63,18.029-5.739A261,261,0,0,1,1473.368-383a224.434,224.434,0,0,1,32.213-3.151,233.314,233.314,0,0,1,32.2,1.51c9.922,1.065,18.946,2.666,26.585,4.138,1.911.375,3.742.769,5.475,1.144q2.595.533,4.907,1.062c3.079.709,5.754,1.38,7.946,1.9C1587.087-375.3,1589.58-374.515,1589.58-374.515Z" fill="#824722"/>
            <path id="Path_1498" data-name="Path 1498" d="M1563.162-360s-1.4,1.733-4.144,4.583c-1.366,1.447-3.1,3.086-5.164,4.925-1.033.919-2.147,1.894-3.348,2.892q-1.811,1.459-3.865,3.017A122.737,122.737,0,0,1,1526.4-332.2a115.563,115.563,0,0,1-26.949,9.145,112.517,112.517,0,0,1-28.568,1.837,109.283,109.283,0,0,1-23.694-4.181q-2.507-.745-4.735-1.493c-1.491-.534-2.892-1.1-4.187-1.625a63.108,63.108,0,0,1-6.545-3.009c-3.526-1.875-5.362-3.1-5.362-3.1s2.078-.985,5.632-2.436c1.769-.681,3.922-1.655,6.368-2.673l3.881-1.576q2.055-.89,4.305-1.8c5.986-2.377,12.98-5.229,20.693-7.791a192.019,192.019,0,0,1,25.267-6.91,183.039,183.039,0,0,1,26.162-3.278c8.224-.53,15.889-.467,22.441-.332,1.641.041,3.219.1,4.725.181,1.495.054,2.911.109,4.252.183,2.679.146,5.039.343,6.96.462C1560.907-360.313,1563.162-360,1563.162-360Z" fill="#824722"/>
            <path id="Path_1499" data-name="Path 1499" d="M1531.787-350.262,1530.6-349.2c-.768.7-1.917,1.607-3.319,2.877-2.833,2.443-6.74,6-11.1,10.224-2.186,2.1-4.458,4.441-6.816,6.852-2.322,2.48-4.751,5.007-7.16,7.705-4.865,5.347-9.755,11.075-14.883,16.92-5.068,5.9-10.052,11.545-14.663,17.112-2.332,2.765-4.493,5.524-6.622,8.172-2.057,2.673-4.052,5.251-5.827,7.71-3.572,4.907-6.544,9.274-8.564,12.422-1.061,1.567-1.8,2.832-2.383,3.691l-.88,1.32s-.235-.491-.638-1.442c-.383-.95-1.019-2.37-1.6-4.225a64.231,64.231,0,0,1-3.069-16.293,72.416,72.416,0,0,1,.227-11.561,74.584,74.584,0,0,1,2.578-13.106,72.77,72.77,0,0,1,5.6-13.772,73.279,73.279,0,0,1,9.073-13.262,73.219,73.219,0,0,1,11.856-10.845,72.715,72.715,0,0,1,12.849-7.483,74.682,74.682,0,0,1,12.614-4.393,72.523,72.523,0,0,1,11.414-1.849,64.219,64.219,0,0,1,16.562.751c1.918.312,3.414.743,4.408.989C1531.267-350.426,1531.787-350.262,1531.787-350.262Z" fill="#824722"/>
            <path id="Path_1500" data-name="Path 1500" d="M1566.79-386.216s-1.626,2.525-4.739,6.819-7.711,10.354-13.4,17.492c-2.851,3.564-5.926,7.427-9.217,11.466-1.594,2.055-3.331,4.093-5,6.242l-2.586,3.214-2.593,3.3c-7.009,8.85-14.109,18.326-20.841,28.274-3.218,4.869-6.181,9.753-8.911,14.607q-.972,1.841-1.984,3.641l-1.831,3.638c-.3.6-.639,1.2-.913,1.8l-.823,1.81-.84,1.793c-.285.594-.578,1.186-.8,1.785q-.735,1.791-1.5,3.552c-.271.585-.493,1.173-.7,1.76l-.655,1.752c-.96,2.324-1.622,4.619-2.4,6.876l-.286.844-.226.839-.461,1.666c-.293,1.1-.666,2.207-.909,3.286l-.718,3.2-.37,1.577c-.114.522-.173,1.031-.264,1.543q-.263,1.55-.512,3.024c-.078.5-.194,1-.243,1.478l-.145,1.435-.3,2.8-.149,1.36-.047,1.3c-.054,1.715-.164,3.371-.189,4.9l.118,4.2c.021.642.017,1.264.053,1.836l.16,1.591.24,2.553.183,2.167s-.54-.5-1.549-1.494c-.5-.5-1.126-1.127-1.859-1.888l-1.18-1.242c-.4-.457-.778-.967-1.2-1.5-.84-1.078-1.771-2.3-2.782-3.681-.934-1.4-1.85-2.984-2.871-4.717l-.767-1.333-.678-1.415-1.388-3.018-.712-1.6c-.238-.545-.409-1.1-.618-1.674l-1.212-3.539c-.195-.61-.423-1.232-.593-1.862l-.479-1.923q-.478-1.953-.947-4.026c-.3-1.382-.466-2.788-.694-4.24l-.309-2.2-.15-1.122-.083-1.125a84.513,84.513,0,0,1-.291-9.417l.067-2.454c.018-.829.057-1.66.15-2.482q.233-2.48.522-5.044c.08-.86.23-1.7.38-2.553l.461-2.571.493-2.6c.172-.872.416-1.723.629-2.593.452-1.729.892-3.494,1.42-5.244q.856-2.6,1.786-5.237a101.716,101.716,0,0,1,10.454-20.538,116.405,116.405,0,0,1,14.265-17.2,127.89,127.89,0,0,1,15.519-13.119l3.876-2.717c1.294-.855,2.58-1.677,3.85-2.483,2.526-1.636,5.065-3.037,7.495-4.436,4.911-2.684,9.568-4.972,13.892-6.873a205.284,205.284,0,0,1,20.94-7.918C1563.879-385.495,1566.79-386.216,1566.79-386.216Z" fill="#824722"/>
            <path id="Path_1501" data-name="Path 1501" d="M1512.591-218.308s-.44-.466-1.244-1.383c-.782-.923-2.019-2.272-3.38-4.127a87.029,87.029,0,0,1-9.989-16.908c-.907-1.9-1.664-3.93-2.5-6.068-.807-2.141-1.517-4.407-2.243-6.777-.628-2.376-1.341-4.857-1.822-7.446-.256-1.293-.527-2.612-.748-3.954q-.3-2.013-.571-4.1a97.476,97.476,0,0,1-.54-17.573,98.281,98.281,0,0,1,2.975-18.737,98.262,98.262,0,0,1,6.684-17.756,97.4,97.4,0,0,1,9.162-15.006q1.266-1.675,2.524-3.277c.855-1.058,1.743-2.069,2.6-3.067,1.7-2.011,3.546-3.815,5.267-5.569,1.8-1.7,3.541-3.319,5.3-4.781,1.784-1.444,3.449-2.838,5.174-4.036a87.09,87.09,0,0,1,17.045-9.753c2.1-.939,3.844-1.5,4.98-1.915,1.152-.4,1.765-.586,1.765-.586l-.743,1.715c-.477,1.126-1.26,2.685-2.144,4.758-1.846,4.067-4.336,9.907-7.051,16.832-.713,1.706-1.336,3.563-2.062,5.407-.7,1.862-1.367,3.819-2.1,5.783-.649,2.018-1.427,4.011-2.079,6.127l-1.056,3.161-1.026,3.24c-2.768,8.715-5.368,18.059-7.988,27.79-2.537,9.754-4.9,19.161-6.805,28.1q-.36,1.683-.712,3.323l-.646,3.269c-.48,2.162-.79,4.279-1.224,6.354-.336,2.069-.727,4.1-1.037,6.064-.282,1.962-.659,3.883-.883,5.718-1.066,7.362-1.791,13.669-2.2,18.117-.258,2.239-.349,3.982-.491,5.2Z" fill="#824722"/>
            <path id="Path_1502" data-name="Path 1502" d="M1568.45-367.982l-.843,1.813-1.033,2.141-.66,1.34-.7,1.557-1.647,3.573-1.809,4.245c-1.258,3.029-2.6,6.445-3.942,10.168-.676,1.86-1.3,3.837-2,5.821l-.952,3.088-.5,1.563-.452,1.61-.941,3.256-.868,3.363-.453,1.7-.4,1.736c-.26,1.164-.58,2.313-.827,3.5-1.057,4.721-1.949,9.631-2.77,14.652l-.586,3.793q-.223,1.918-.506,3.846c-.29,2.6-.62,5.093-.9,8.006-.588,5.651-1.239,11.2-1.757,16.58-.538,5.376-1.1,10.6-1.5,15.588-.261,2.511-.386,4.935-.595,7.332-.125,1.205-.137,2.36-.222,3.527-.063,1.158-.166,2.318-.218,3.445-.186,4.5-.355,8.776-.311,12.694.035,1.953-.016,3.883.112,5.648l.112,2.633.051,1.273.111,1.21.387,4.534.521,3.841.218,1.682.279,1.446.435,2.322.347,1.973s-.565-.375-1.623-1.142c-.529-.384-1.183-.867-1.955-1.456l-1.244-.965-1.307-1.187q-1.382-1.275-3.058-2.909c-1.045-1.118-2.137-2.377-3.324-3.76l-.9-1.063-.852-1.133-1.762-2.417c-1.251-1.669-2.339-3.513-3.533-5.475a96.328,96.328,0,0,1-6.539-13.407c-.5-1.244-.931-2.518-1.4-3.82-.442-1.3-.949-2.635-1.323-3.99-.793-2.711-1.615-5.534-2.219-8.441a115.908,115.908,0,0,1-2.61-18.433,116.108,116.108,0,0,1,.432-19.9,100.721,100.721,0,0,1,1.638-10.363q.593-2.562,1.234-5.066c.475-1.656,1-3.283,1.511-4.891a96.865,96.865,0,0,1,7.985-17.628c.756-1.335,1.6-2.6,2.4-3.863l1.207-1.861,1.275-1.782c.854-1.171,1.692-2.318,2.544-3.425l2.641-3.174c.438-.513.863-1.025,1.3-1.518l1.352-1.437,2.648-2.744c1.825-1.715,3.552-3.344,5.3-4.8a90.149,90.149,0,0,1,9.853-7.156q2.3-1.391,4.273-2.506,2.041-1.053,3.723-1.861l1.583-.754,1.436-.6,2.253-.889C1567.8-367.762,1568.45-367.982,1568.45-367.982Z" fill="#824722"/>
            <ellipse id="Ellipse_88" data-name="Ellipse 88" cx="85.228" cy="93.372" rx="85.228" ry="93.372" transform="translate(1526.229 -373.645)" fill="#81441d"/>
            <ellipse id="Ellipse_89" data-name="Ellipse 89" cx="39.433" cy="39.812" rx="39.433" ry="39.812" transform="translate(1572.025 -257.68)" fill="#f5e4c4"/>
            <g id="Group_177" data-name="Group 177">
              <path id="Path_1503" data-name="Path 1503" d="M1611.457-212.381c-17.405,0-18.9,9.177-31.934,12.734v.022s14.271,13.059,31.934,13.059,31.935-13.059,31.935-13.059v-.022C1630.361-203.2,1628.863-212.381,1611.457-212.381Z" fill="#433219"/>
              <path id="Path_1504" data-name="Path 1504" d="M1619.27-196.856c-2.35-.979-5,1.559-7.813,1.559s-5.462-2.538-7.812-1.559a16.86,16.86,0,0,0-6.78,5.022,27.794,27.794,0,0,0,14.592,3.847,27.8,27.8,0,0,0,14.593-3.847A16.867,16.867,0,0,0,1619.27-196.856Z" fill="#cc2128"/>
            </g>
            <g id="Group_178" data-name="Group 178">
              <path id="Path_1505" data-name="Path 1505" d="M1611.457-207.286c-15.717,0-17.071,7.871-28.837,10.921v.02c9.827-1.283,12.887-2.6,28.837-2.6s19.011,1.317,28.838,2.6v-.02C1628.528-199.415,1627.175-207.286,1611.457-207.286Z" fill="#433219"/>
            </g>
            <path id="Path_1506" data-name="Path 1506" d="M1662.183-244.056q1.446.072,2.908.073a57.528,57.528,0,0,0,57.522-58.424c-.457-30.032-26.189-55.953-56.217-56.618a57.334,57.334,0,0,0-42.805,17.69,16.9,16.9,0,0,1-24.272-.021q-1.835-1.911-3.882-3.688a57.662,57.662,0,0,0-75.3.058,57.535,57.535,0,0,0-1.762,85.352,57.42,57.42,0,0,0,42.4,15.492" fill="#f5e4c4"/>
            <g id="Group_182" data-name="Group 182">
              <g id="Group_181" data-name="Group 181">
                <g id="Group_179" data-name="Group 179">
                  <circle id="Ellipse_90" data-name="Ellipse 90" cx="24.013" cy="24.013" r="24.013" transform="translate(1640.164 -325.898)" fill="#351c0d"/>
                  <circle id="Ellipse_91" data-name="Ellipse 91" cx="20.263" cy="20.263" r="20.263" transform="translate(1643.913 -322.148)" fill="#573512"/>
                  <circle id="Ellipse_92" data-name="Ellipse 92" cx="7.299" cy="7.299" r="7.299" transform="translate(1656.877 -309.184)" fill="#351c0d"/>
                  <ellipse id="Ellipse_93" data-name="Ellipse 93" cx="8.695" cy="14.66" rx="8.695" ry="14.66" transform="translate(1655.807 -314.248) rotate(-45)" fill="#fff"/>
                  <ellipse id="Ellipse_94" data-name="Ellipse 94" cx="3.478" cy="5.864" rx="3.478" ry="5.864" transform="translate(1646.353 -290.39) rotate(-45)" fill="#fff"/>
                </g>
                <g id="Group_180" data-name="Group 180">
                  <path id="Path_1507" data-name="Path 1507" d="M1560.522-314.384a131.514,131.514,0,0,1-23.871-1.631,29.277,29.277,0,0,1,21.172-9.026,29.307,29.307,0,0,1,22.581,10.592C1573.789-314.609,1567.138-314.411,1560.522-314.384Z" fill="#f5e4c4"/>
                </g>
              </g>
            </g>
            <g id="Group_187" data-name="Group 187">
              <g id="Group_183" data-name="Group 183">
                <circle id="Ellipse_95" data-name="Ellipse 95" cx="24.013" cy="24.013" r="24.013" transform="translate(1533.811 -325.524)" fill="#351c0d"/>
                <circle id="Ellipse_96" data-name="Ellipse 96" cx="20.263" cy="20.263" r="20.263" transform="translate(1537.561 -321.774)" fill="#573512"/>
                <circle id="Ellipse_97" data-name="Ellipse 97" cx="7.299" cy="7.299" r="7.299" transform="translate(1550.524 -308.811)" fill="#351c0d"/>
                <ellipse id="Ellipse_98" data-name="Ellipse 98" cx="8.695" cy="14.66" rx="8.695" ry="14.66" transform="translate(1549.454 -313.874) rotate(-45)" fill="#fff"/>
                <ellipse id="Ellipse_99" data-name="Ellipse 99" cx="3.478" cy="5.864" rx="3.478" ry="5.864" transform="translate(1540.001 -290.016) rotate(-45)" fill="#fff"/>
              </g>
              <g id="Group_184" data-name="Group 184">
                <path id="Path_1508" data-name="Path 1508" d="M1560.522-281.954a131.608,131.608,0,0,0-23.871,1.631,29.277,29.277,0,0,0,21.172,9.026,29.307,29.307,0,0,0,22.581-10.592C1573.789-281.729,1567.138-281.927,1560.522-281.954Z" fill="#f5e4c4"/>
              </g>
              <g id="Group_185" data-name="Group 185">
                <path id="Path_1509" data-name="Path 1509" d="M1557.782-308.735c-8.4.068-16.93-.454-25.166-3.385,5.634-11.535,13.548-18.725,22.321-18.725,9.572,0,18.127,8.549,23.807,21.975C1571.769-309.2,1564.757-308.792,1557.782-308.735Z" fill="#f5e4c4"/>
              </g>
              <g id="Group_186" data-name="Group 186">
                <path id="Path_1510" data-name="Path 1510" d="M1664.217-309.511c8.4.069,16.93-.453,25.167-3.384-5.635-11.535-13.549-18.725-22.322-18.725-9.571,0-18.126,8.549-23.806,21.974C1650.23-309.979,1657.242-309.568,1664.217-309.511Z" fill="#f5e4c4"/>
              </g>
            </g>
            <path id="Path_1511" data-name="Path 1511" d="M1554.2-249.245a2.61,2.61,0,0,1,2.559,3.716s-13.713,27.672-12.772,30.376c2.588,7.433,8.676,20.746,32.449,18.036,15.563-1.774,17.467-6.039,35.019-6.039s19.457,4.265,35.02,6.039c23.773,2.71,29.861-10.6,32.448-18.036.942-2.7-12.817-30.469-12.817-30.469a2.611,2.611,0,0,1,2.556-3.717" fill="#f5e4c4"/>
            <path id="Path_1512" data-name="Path 1512" d="M1624.635-240.222V-229.9S1630.773-233.568,1624.635-240.222Z" fill="#433219"/>
            <path id="Path_1513" data-name="Path 1513" d="M1598.28-240.222V-229.9S1592.142-233.568,1598.28-240.222Z" fill="#433219"/>
            <path id="Path_1514" data-name="Path 1514" d="M1620.375-18.444s6.9-158.226,58.9-183.044c87.095-41.568,156-36.635,156-36.635s-28.363,73.943-97.822,116.488C1685.948-90.091,1680.147-36.036,1620.375-18.444Z"/>
            <path id="Path_1515" data-name="Path 1515" d="M1720.382-43.944c1.9-9.985,4.968-22.609,9.692-33.447,9.537-21.878,37.024-40.39,37.024-40.39l-5.579-21.971s-66.225,11.35-103.248,33.788-36.67,69.186-36.67,69.186c-.32,6.987-.739,13.054-1.226,18.334C1663.063-16.48,1696.169-28.765,1720.382-43.944Z" fill="#50085f"/>
            <path id="Path_1516" data-name="Path 1516" d="M1602.539-18.444s-6.9-158.226-58.9-183.044c-87.095-41.568-156-36.635-156-36.635s28.363,73.943,97.823,116.488C1536.966-90.091,1542.768-36.036,1602.539-18.444Z"/>
            <path id="Path_1517" data-name="Path 1517" d="M1502.533-43.944c-1.9-9.985-4.968-22.609-9.693-33.447-9.536-21.878-37.023-40.39-37.023-40.39l5.579-21.971s66.224,11.35,103.248,33.788,36.669,69.186,36.669,69.186c.32,6.987.74,13.054,1.226,18.334C1559.852-16.48,1526.746-28.765,1502.533-43.944Z" fill="#50085f"/>
          </g>
        </g>
      </g>
    </g>
    <path id="Path_1518" data-name="Path 1518" d="M1514.272-311.355l2.726-1.759c1.748-1.1,4.3-2.6,7.465-4.188a65.373,65.373,0,0,1,11.243-4.334c1.045-.336,2.151-.525,3.243-.794,1.1-.252,2.23-.391,3.354-.6a44.313,44.313,0,0,1,6.884-.378,36.356,36.356,0,0,1,13.078,2.7,37.878,37.878,0,0,1,10.077,6.306,44.183,44.183,0,0,1,6.3,6.814c1.52,1.987,2.5,3.524,3,4.243a36.425,36.425,0,0,0,6.194,6.989c2.028,1.661,4,2.5,5.524,1.838,1.5-.645,2.242-2.717,2.008-5.618a21.269,21.269,0,0,0-3.994-10.086,42.23,42.23,0,0,0-4.135-4.861,50.591,50.591,0,0,0-8.9-7.387,45.921,45.921,0,0,0-13.578-5.992,42.984,42.984,0,0,0-15.911-.9,49.274,49.274,0,0,0-7.592,1.593,58.029,58.029,0,0,0-6.846,2.581,67.511,67.511,0,0,0-10.905,6.276c-2.953,2.114-5.255,4.011-6.818,5.378Z" fill="#824722"/>
    <path id="Path_1519" data-name="Path 1519" d="M1707.727-311.729,1705-313.487c-1.748-1.1-4.3-2.6-7.466-4.189a65.367,65.367,0,0,0-11.242-4.334c-1.046-.336-2.151-.525-3.243-.794-1.1-.252-2.231-.391-3.355-.6a44.306,44.306,0,0,0-6.884-.378,36.36,36.36,0,0,0-13.078,2.7,37.856,37.856,0,0,0-10.076,6.306,44.147,44.147,0,0,0-6.3,6.814c-1.519,1.987-2.5,3.524-3,4.244a36.414,36.414,0,0,1-6.194,6.988c-2.028,1.661-4,2.5-5.524,1.838-1.495-.645-2.242-2.716-2.007-5.618a21.271,21.271,0,0,1,3.993-10.086,42.377,42.377,0,0,1,4.136-4.861,50.561,50.561,0,0,1,8.9-7.387,45.877,45.877,0,0,1,13.577-5.991,42.967,42.967,0,0,1,15.912-.9,49.327,49.327,0,0,1,7.592,1.594,57.921,57.921,0,0,1,6.846,2.58,67.531,67.531,0,0,1,10.9,6.276c2.953,2.114,5.255,4.011,6.819,5.378Z" fill="#824722"/>
  </g>
</svg>
