<svg xmlns="http://www.w3.org/2000/svg" xmlns:xlink="http://www.w3.org/1999/xlink" width="425.658" height="425.658" viewBox="0 0 425.658 425.658">
  <defs>
    <clipPath id="clip-path">
      <circle id="Ellipse_73" data-name="Ellipse 73" cx="212.829" cy="212.829" r="212.829" transform="translate(811.171 161.958)" fill="none"/>
    </clipPath>
  </defs>
  <g id="Group_150" data-name="Group 150" transform="translate(-811.171 -161.958)">
    <g id="Group_148" data-name="Group 148">
      <g id="Group_147" data-name="Group 147" clip-path="url(#clip-path)">
        <g id="Group_146" data-name="Group 146">
          <circle id="Ellipse_69" data-name="Ellipse 69" cx="212.829" cy="212.829" r="212.829" transform="translate(811.171 161.958)" fill="#e6e7e8"/>
          <path id="Path_1321" data-name="Path 1321" d="M1108.926,855.019H939.074l23.909-381.407h122.035Z" fill="#221f1f"/>
          <path id="Path_1322" data-name="Path 1322" d="M1028.469,199.967s.074.656.152,1.928c.039.637.077,1.429.1,2.378.008.472.034.994.016,1.534l-.108,1.717a61.042,61.042,0,0,1-5.067,20.277,103.976,103.976,0,0,1-15.97,25.492,154.8,154.8,0,0,1-24.444,23.248c-8.8,6.744-17.179,12.188-24.7,17.194a198.2,198.2,0,0,0-19.317,13.984,67.5,67.5,0,0,0-6.825,6.654,53.758,53.758,0,0,0-4.665,6.142c-.586.929-1.137,1.788-1.547,2.557-.434.768-.82,1.441-1.083,1.994l-.876,1.725s-.345-.566-.951-1.708a23.723,23.723,0,0,1-1.012-2.17,31.14,31.14,0,0,1-1.138-3.109,40.444,40.444,0,0,1-1.666-9.131,51.216,51.216,0,0,1,.764-12.505c1.606-9.2,5.869-19.572,12.336-29.186a111.146,111.146,0,0,1,24.724-26.13,188.474,188.474,0,0,1,27.471-17.159c8.5-4.506,16.271-8.172,22.721-11.69a122.229,122.229,0,0,0,15.35-9.543l1.323-.95c.41-.3.757-.611,1.106-.889l1.774-1.437Z" fill="#452715"/>
          <path id="Path_1323" data-name="Path 1323" d="M1087.367,209.281s-.063.7-.244,2.022c-.091.663-.212,1.485-.373,2.46l-.275,1.575c-.128.546-.265,1.129-.409,1.745-.3,1.235-.653,2.612-1.071,4.126-.457,1.475-1,3.063-1.607,4.782-.587,1.745-1.364,3.478-2.176,5.377s-1.768,3.832-2.818,5.85a111.879,111.879,0,0,1-18.563,25.646c-2.08,2.127-4.252,4.286-6.613,6.33-2.313,2.1-4.841,4.071-7.434,6.055a106.163,106.163,0,0,1-17.594,10.543q-2.485,1.11-4.971,2.138l-.615.252-.549.208-1.1.41-2.193.8c-2.9,1.031-5.788,1.957-8.582,2.788-5.622,1.672-11.021,2.994-16.13,4.144-10.258,2.262-19.406,3.9-27.328,5.486-7.859,1.6-14.491,3.138-19.148,4.445-1.183.3-2.243.58-3.139.86l-2.33.671-1.979.539s.24-.658.753-1.894c.257-.618.583-1.381.985-2.281s.9-1.92,1.5-3.035a83.707,83.707,0,0,1,12.5-17.587,128.514,128.514,0,0,1,23.849-20.1,173.824,173.824,0,0,1,15.054-8.919c2.63-1.392,5.272-2.713,7.966-3.994l3.986-1.856q1.727-.839,3.5-1.619c4.755-2.243,9.56-4.521,14.32-6.715,2.357-1.157,4.745-2.194,7.058-3.32l6.908-3.208c9.086-4.2,17.5-8.174,24.741-11.711,1.805-.889,3.573-1.724,5.184-2.58s3.257-1.6,4.676-2.4l4.124-2.185,3.464-1.954,1.519-.84,1.3-.781,2.08-1.24Z" fill="#452715"/>
          <path id="Path_1324" data-name="Path 1324" d="M1169.321,233.749s-.63.624-1.857,1.77-3.044,2.844-5.475,4.875a197.669,197.669,0,0,1-21.56,15.776,296.707,296.707,0,0,1-33.986,18.432q-9.688,4.521-20.156,8.832c-3.491,1.422-7.01,2.854-10.61,4.227-3.565,1.408-7.282,2.763-10.728,4.081-7.035,2.643-13.891,5.151-20.4,7.736l-2.456.93-2.39.979c-1.584.652-3.2,1.24-4.749,1.89-3.078,1.321-6.183,2.52-9.095,3.851-3,1.234-5.792,2.6-8.609,3.859l-1.053.472-1.009.507-2.012.995c-1.325.67-2.709,1.265-3.967,1.953l-3.782,2-1.868.973-1.769,1.025-3.5,1.986c-.591.314-1.137.658-1.673,1.005L995,322.918l-3.181,1.965c-1.027.655-1.965,1.352-2.931,2l-2.822,1.921c-.945.61-1.731,1.3-2.577,1.918l-2.427,1.836c-.783.6-1.58,1.151-2.245,1.753l-3.855,3.246c-1.22.966-2.186,1.913-3.056,2.729l-2.24,2.079c-1.254,1.135-1.913,1.733-1.913,1.733s.073-.872.274-2.543c.1-.835.235-1.873.411-3.107a36.239,36.239,0,0,1,.777-4.227c.369-1.568.8-3.323,1.315-5.259.232-.985.59-1.94.937-2.961q.545-1.532,1.129-3.18c.417-1.087.787-2.278,1.314-3.4l1.609-3.519c.574-1.2,1.14-2.479,1.8-3.723q1.041-1.842,2.136-3.778l1.14-1.961c.384-.667.782-1.334,1.223-1.967l2.689-3.951,1.422-2.035c.495-.667,1.018-1.312,1.54-1.977q1.572-1.988,3.249-4.037c1.113-1.376,2.344-2.632,3.565-3.98l1.874-2.007.957-1.012,1-.965c2.679-2.569,5.476-5.243,8.519-7.684,2.993-2.563,6.217-4.9,9.545-7.283,1.668-1.181,3.4-2.26,5.144-3.392l2.644-1.675,2.715-1.571a152.373,152.373,0,0,1,23.37-11c4.179-1.589,8.094-2.832,12.032-4.04,3.932-1.158,7.829-2.233,11.666-3.156,7.671-1.871,15.12-3.3,22.184-4.42,14.142-2.238,26.852-3.351,37.633-4.248,10.776-.873,19.689-1.421,25.934-1.811,3.132-.164,5.568-.336,7.249-.395Z" fill="#452715"/>
          <path id="Path_1325" data-name="Path 1325" d="M1203.181,281.168s-.637.537-1.889,1.518l-2.343,1.793-1.521,1.127c-.548.388-1.142.772-1.772,1.191-1.262.83-2.681,1.743-4.258,2.727-1.583.948-3.333,1.9-5.237,2.942-1.9,1.069-3.976,2.008-6.2,3.064-2.223,1.075-4.6,2.018-7.129,3.035l-1.923.759-1.974.706-4.107,1.413c-2.8.916-5.738,1.763-8.8,2.6a190.829,190.829,0,0,1-19.547,4.026,252.6,252.6,0,0,1-43.757,2.566c-14.962-.335-28.755-1.569-41.261-2.592l-4.633-.385c-1.529-.139-3.015-.216-4.5-.345-2.984-.279-5.834-.4-8.653-.641l-8.133-.467-3.86-.155-1.889-.092-1.832-.027c-2.417-.026-4.791-.157-6.989-.1-2.208.038-4.371-.05-6.336.067l-5.612.181-4.777.3c-.727.046-1.427.072-2.073.124l-1.807.179-2.883.263-2.431.189s.534-.637,1.6-1.817c.534-.591,1.2-1.317,2.009-2.17l1.313-1.374c.479-.475,1.008-.947,1.565-1.463,1.118-1.024,2.383-2.157,3.8-3.386,1.43-1.183,3.037-2.389,4.787-3.709,1.74-1.359,3.7-2.56,5.782-3.929,2.082-1.392,4.363-2.618,6.782-3.964l1.847-1,1.911-.935,3.994-1.9c1.368-.652,2.777-1.189,4.219-1.793,1.443-.576,2.924-1.2,4.435-1.74,3.02-1.057,6.188-2.192,9.457-3.1,1.635-.464,3.309-.965,5-1.381s3.406-.823,5.152-1.221a177.193,177.193,0,0,1,21.858-3.368,205.682,205.682,0,0,1,23.12-.78,343.344,343.344,0,0,1,42.518,4.069c6.391.961,12.408,1.9,18.087,2.837l8.22,1.3,3.9.593,1.9.3,1.849.254c2.441.333,4.809.736,7.03.986,2.227.269,4.376.626,6.362.81l5.627.648,4.8.455,2.073.209,1.819.129,2.892.232Z" fill="#452715"/>
          <path id="Path_1326" data-name="Path 1326" d="M1199.1,319.246s-2.282,1.68-6.609,4.333c-1.082.656-2.292,1.4-3.632,2.145-1.341.724-2.807,1.494-4.4,2.3s-3.3,1.643-5.128,2.5c-1.829.841-3.775,1.635-5.833,2.473s-4.229,1.686-6.5,2.487q-3.41,1.154-7.126,2.28l-3.786,1.106c-1.283.335-2.589.655-3.917.972-2.657.632-5.4,1.238-8.229,1.794a156,156,0,0,1-36.867,2.342,158.024,158.024,0,0,1-36.223-6.752q-4.087-1.322-7.92-2.724c-1.276-.468-2.531-.932-3.761-1.415l-3.613-1.514q-3.541-1.52-6.788-3.046c-2.16-1.041-4.213-2.116-6.16-3.149s-3.789-2.041-5.513-3.059q-2.583-1.55-4.828-2.984c-1.495-.953-2.874-1.861-4.135-2.711s-2.393-1.707-3.409-2.457c-4.059-3.02-6.2-4.9-6.2-4.9s2.816-.693,7.711-1.572l8.83-1.524c1.7-.276,3.515-.551,5.421-.816s3.928-.6,6.026-.881,4.281-.543,6.547-.811q3.411-.442,7.04-.807l7.459-.691q3.832-.333,7.834-.536a266.836,266.836,0,0,1,34.277-.1,273.367,273.367,0,0,1,33.92,4.225q3.924.663,7.673,1.436l3.7.793,3.588.738q3.537.759,6.864,1.582c2.209.514,4.333.986,6.38,1.5l11.152,2.848c1.661.442,3.219.874,4.662,1.288l3.952,1.059C1196.345,318.308,1199.1,319.246,1199.1,319.246Z" fill="#452715"/>
          <path id="Path_1327" data-name="Path 1327" d="M1203.181,380.982s-.7.469-2.067,1.315l-2.551,1.543c-1.016.6-2.2,1.3-3.557,1.976q-2.035,1.049-4.569,2.282c-1.691.806-3.561,1.558-5.59,2.4-2.027.869-4.234,1.6-6.6,2.407-2.365.837-4.9,1.516-7.588,2.234l-2.048.535c-.692.166-1.392.308-2.1.462l-4.38.9c-1.5.311-3.026.5-4.6.74-1.564.212-3.175.486-4.8.624a142.244,142.244,0,0,1-20.936.625,155.724,155.724,0,0,1-22.772-2.869,161.188,161.188,0,0,1-23.307-6.64,178,178,0,0,1-21.73-9.677,213.935,213.935,0,0,1-18.794-11.136,276.027,276.027,0,0,1-29.169-22.368c-7.912-6.909-14.066-12.929-18.287-17.211s-6.474-6.842-6.474-6.842,3.4.167,9.4.873,14.562,1.995,24.837,4.142c10.273,2.128,22.233,5.15,34.971,8.935s26.246,8.365,39.889,13.354c6.828,2.492,13.384,5.023,19.7,7.392s12.4,4.63,18.247,6.758c5.853,2.046,11.479,3.993,16.852,5.693,1.343.463,2.67.8,3.98,1.219,1.309.384,2.6.837,3.875,1.173l3.765,1.065,1.839.531,1.807.462c9.546,2.527,17.758,4.289,23.566,5.373,1.458.316,2.755.528,3.888.726l2.889.527Z" fill="#452715"/>
          <path id="Path_1328" data-name="Path 1328" d="M1223.109,350.041s-.676.579-2,1.638l-2.475,1.942-1.6,1.221-1.874,1.293q-2,1.362-4.493,2.988-2.518,1.518-5.541,3.236a136.654,136.654,0,0,1-14.185,6.76,154.846,154.846,0,0,1-39.643,10.054,180.521,180.521,0,0,1-23.968,1.187,185.841,185.841,0,0,1-25.365-2.237,196.857,196.857,0,0,1-24.563-5.5,223.294,223.294,0,0,1-21.981-7.6,265.735,265.735,0,0,1-35.188-17.378c-9.665-5.675-17.221-10.834-22.386-14.556s-7.938-6-7.938-6,3.587-.251,9.939-.334,15.467-.008,26.484.522,23.929,1.493,37.886,2.96c6.98.746,14.223,1.609,21.641,2.579,7.419.989,15.012,2.1,22.716,3.3s15.161,2.5,22.352,3.708l20.759,3.473c13.26,2.091,25.43,3.836,35.945,4.822,5.253.5,10.091.88,14.4,1.15l6.057.339,5.154.17,2.227.094,1.951.023,3.1.063Z" fill="#452715"/>
          <path id="Path_1329" data-name="Path 1329" d="M954.167,378.231l-1.58-.689c-1.016-.481-2.585-1.133-4.458-2.173a83.889,83.889,0,0,1-15.117-10.356c-1.522-1.238-2.972-2.662-4.536-4.133-1.539-1.487-3.047-3.12-4.614-4.829-1.484-1.76-3.09-3.565-4.541-5.56-.738-.99-1.5-1.994-2.232-3.038l-2.144-3.23a93.746,93.746,0,0,1-7.631-14.614A90.351,90.351,0,0,1,900.3,294.88a93.683,93.683,0,0,1,1.357-16.431l.722-3.809c.267-1.246.581-2.467.877-3.666.562-2.4,1.341-4.689,2.026-6.887.78-2.183,1.535-4.274,2.376-6.242.87-1.962,1.654-3.837,2.575-5.57a83.871,83.871,0,0,1,9.91-15.413c1.322-1.686,2.514-2.9,3.264-3.733l1.189-1.249-.07,1.731c-.034,1.134-.195,2.751-.253,4.852-.22,4.162-.367,10.108-.258,17.135-.014,1.748.116,3.595.151,5.475.064,1.886.2,3.842.291,5.836.183,2.008.244,4.049.476,6.149l.276,3.174q.172,1.6.349,3.235c.944,8.709,2.436,17.955,4.323,27.509,1.971,9.536,4.187,18.636,6.7,27.028q.474,1.578.935,3.117l.977,3.032c.6,2.026,1.339,3.93,1.95,5.852.694,1.87,1.325,3.728,2,5.491.7,1.746,1.294,3.5,1.986,5.1,2.628,6.519,5.072,11.941,6.892,15.691.869,1.913,1.645,3.341,2.117,4.373Z" fill="#452715"/>
          <path id="Path_1330" data-name="Path 1330" d="M951.1,372.845s-2.055-.571-5.6-1.826a140.839,140.839,0,0,1-14.527-6.086,117.117,117.117,0,0,1-19.9-12.162,91.947,91.947,0,0,1-20.287-21.165,80.136,80.136,0,0,1-7.456-13.877,76.128,76.128,0,0,1-4.3-14.116q-.325-1.746-.606-3.444c-.188-1.13-.284-2.278-.411-3.386-.273-2.211-.3-4.415-.366-6.5-.026-1.044.04-2.092.07-3.1.053-1.015.06-1.993.175-2.97l.324-2.843.175-1.362.248-1.334a50.4,50.4,0,0,1,1.114-4.927c.455-1.535.814-2.956,1.35-4.265.5-1.308.958-2.5,1.441-3.581.52-1.076,1.007-2.039,1.451-2.892.226-.425.427-.826.643-1.2l.64-1.023,1.022-1.568c.56-.834.87-1.257.87-1.257l.322,1.508.36,1.786.217,1.117c.086.4.2.822.311,1.266l.708,2.9c.286,1.048.642,2.173.976,3.352.3,1.177.8,2.427,1.22,3.717.395,1.29.981,2.635,1.493,4.016l.4,1.043.461,1.058.918,2.155c.29.728.683,1.46,1.016,2.2.358.741.666,1.494,1.055,2.248.791,1.505,1.49,3.052,2.37,4.6.429.777.806,1.57,1.262,2.356l1.345,2.383c1.867,3.187,3.787,6.482,5.943,9.808q3.2,5,6.708,10.208c4.968,7.247,9.7,14.153,14.021,20.452,4.482,6.542,8.637,12.752,12.094,18.168s6.179,10.045,7.995,13.322S951.1,372.845,951.1,372.845Z" fill="#452715"/>
          <path id="Path_1331" data-name="Path 1331" d="M934.782,369.923l-1.3.123c-.85.068-2.105.16-3.7.192a80.986,80.986,0,0,1-13.371-.793,82.341,82.341,0,0,1-19.006-5.021,74.446,74.446,0,0,1-10.492-5.131,68.648,68.648,0,0,1-10.3-7.37,66.907,66.907,0,0,1-15.494-19.457,60.752,60.752,0,0,1-6.43-19.569,52.351,52.351,0,0,1-.2-13.782c.19-1.607.467-2.858.629-3.69s.285-1.271.285-1.271l.894.962c.585.625,1.37,1.558,2.428,2.7,2.1,2.291,5.093,5.449,8.733,8.916,3.66,3.473,7.917,7.253,12.628,11.151,4.693,3.924,9.773,8.028,15.062,12.583q3.946,3.435,7.706,6.865c2.492,2.293,4.91,4.581,7.246,6.814,4.646,4.494,8.956,8.793,12.619,12.6s6.7,7.075,8.808,9.417c1.049,1.179,1.871,2.107,2.424,2.755Z" fill="#452715"/>
          <ellipse id="Ellipse_70" data-name="Ellipse 70" cx="110.184" cy="64.946" rx="110.184" ry="64.946" transform="translate(913.816 270.08)" fill="#452510"/>
          <path id="Path_1332" data-name="Path 1332" d="M944.643,430.179l-.663-2.2-.753-2.69c-.3-1.067-.619-2.3-.912-3.7a129.718,129.718,0,0,1-3.109-24.125c-.147-2.589-.09-5.279-.078-8.112.044-2.826.23-5.755.435-8.8.306-3.021.563-6.188,1.086-9.392.247-1.606.486-3.246.784-4.894l1-4.992a147.522,147.522,0,0,1,6.1-20.72,143.6,143.6,0,0,1,22.948-40.193,147.53,147.53,0,0,1,14.745-15.783l3.789-3.4c1.267-1.1,2.558-2.133,3.816-3.162,2.493-2.08,5.09-3.91,7.536-5.71,2.521-1.727,4.949-3.375,7.36-4.85,2.434-1.45,4.721-2.866,7.026-4.056a129.642,129.642,0,0,1,22.355-9.586c1.351-.457,2.579-.808,3.649-1.1l2.7-.718,2.233-.548-1.408,1.828-1.717,2.164c-.683.841-1.466,1.81-2.316,2.931-3.479,4.371-8.329,10.718-13.918,18.44-1.429,1.9-2.809,3.988-4.312,6.063-1.482,2.1-2.96,4.324-4.523,6.561-1.49,2.312-3.121,4.587-4.662,7.039l-2.4,3.66-2.4,3.778c-6.474,10.18-13.094,21.379-19.881,33.183-6.715,11.845-12.994,23.238-18.47,33.988l-2.033,3.989L966.717,379c-1.328,2.574-2.458,5.134-3.692,7.593-1.132,2.483-2.3,4.887-3.351,7.23-1.023,2.349-2.123,4.6-3.03,6.795-3.808,8.738-6.809,16.142-8.8,21.36-.532,1.3-.97,2.468-1.346,3.484l-.991,2.578Z" fill="#824722"/>
          <path id="Path_1333" data-name="Path 1333" d="M1111.35,258.9s-2.025,2.475-5.929,6.625-9.711,9.938-17.116,16.6-16.4,14.191-26.429,22c-5.013,3.9-10.279,7.885-15.706,11.884-5.4,4.018-10.967,8.049-16.511,12.087q-8.226,6.036-15.7,11.914c-2.525,1.941-4.894,3.947-7.3,5.862-2.3,1.989-4.648,3.888-6.811,5.849l-1.656,1.437c-.548.477-1.055.977-1.584,1.458l-3.133,2.869c-1.962,1.954-4.011,3.8-5.8,5.717-3.771,3.739-6.983,7.494-10.009,11.012a134.235,134.235,0,0,0-12.9,18.432l-1.02,1.694c-.312.536-.56,1.049-.818,1.523l-1.3,2.424-1.119,2.03s-.148-.774-.385-2.27l-.411-2.791c-.07-.555-.17-1.16-.223-1.8l-.124-2.045a81.07,81.07,0,0,1,2.327-24.879,103.555,103.555,0,0,1,5.7-16.581c1.22-2.941,2.752-5.8,4.312-8.8.817-1.468,1.693-2.924,2.578-4.415.449-.739.886-1.5,1.363-2.233l1.463-2.194c1.941-2.981,4.136-5.85,6.412-8.781,2.353-2.836,4.792-5.733,7.464-8.467a135.982,135.982,0,0,1,17.711-15.54,194.223,194.223,0,0,1,38.053-21.189,294.063,294.063,0,0,1,32.923-11.676c9.562-2.794,17.476-4.676,23-5.932S1111.35,258.9,1111.35,258.9Z" fill="#824722"/>
          <path id="Path_1334" data-name="Path 1334" d="M1163.171,273.864s-.417.71-1.268,2.056a48.642,48.642,0,0,1-4.065,5.747l-1.554,1.892a24.946,24.946,0,0,1-1.8,2.024c-1.314,1.331-2.755,2.826-4.386,4.342-1.667,1.422-3.469,3.008-5.464,4.553l-3.133,2.282-1.654,1.179c-.562.393-1.14.742-1.724,1.121l-3.622,2.274c-1.245.78-2.528,1.455-3.845,2.2-2.641,1.507-5.4,2.867-8.291,4.283-5.747,2.735-11.977,5.357-18.357,7.8-6.379,2.458-12.959,4.814-19.473,7.193q-2.4.92-4.855,1.806l-4.786,1.857c-.816.291-1.587.63-2.365.963l-2.35.981-2.377.958-2.353,1.064a271.043,271.043,0,0,0-34.881,18.433,258.3,258.3,0,0,0-27.3,19.908c-7.592,6.382-13.581,12.2-17.714,16.376-1.08,1.019-1.915,2-2.714,2.821l-2.006,2.1-1.7,1.738s.113-.826.328-2.395c.123-.787.276-1.761.456-2.911.207-1.144.381-2.506.752-3.962a105.484,105.484,0,0,1,2.94-10.7q.521-1.551,1.075-3.208c.366-1.115.851-2.2,1.3-3.352.952-2.275,1.892-4.762,3.151-7.2a124.753,124.753,0,0,1,62.058-60.1c1-.442,1.988-.9,2.992-1.309l3.042-1.146,3.033-1.108c1.009-.367,2.015-.73,3.015-1.016,2-.6,4-1.21,5.968-1.748q2.934-.743,5.826-1.424c7.664-1.7,14.9-2.783,21.664-3.628,6.777-.826,13.015-1.454,18.854-2.052,2.879-.33,5.712-.59,8.351-.946,1.324-.173,2.671-.288,3.925-.485l3.729-.54c.608-.09,1.227-.158,1.813-.261l1.736-.315,3.386-.59c2.178-.428,4.206-.923,6.178-1.328,1.913-.486,3.685-1.008,5.374-1.451.856-.2,1.623-.483,2.369-.74l2.152-.728c2.8-.854,4.823-1.845,6.307-2.408Z" fill="#824722"/>
          <path id="Path_1335" data-name="Path 1335" d="M1213.067,287.407l-1.865,2.014c-.621.651-1.383,1.475-2.319,2.4l-3.29,3.155a158.524,158.524,0,0,1-23.217,17.589,247.891,247.891,0,0,1-38.217,19.256c-14.737,6.031-30.993,11.371-47.639,16.4-16.628,5.043-32.118,9.473-45.8,14.335a261.819,261.819,0,0,0-35.739,15.38c-4.945,2.669-9.381,5.3-13.232,7.784-1.907,1.257-3.682,2.466-5.321,3.6-1.586,1.177-3.1,2.229-4.415,3.235l-3.493,2.724c-1.012.8-1.828,1.526-2.522,2.092l-2.121,1.742.865-2.6c.3-.849.647-1.926,1.135-3.157s1.1-2.631,1.789-4.227c.709-1.582,1.593-3.284,2.551-5.189,1.007-1.858,2.152-3.868,3.455-5.994a118.838,118.838,0,0,1,10.058-13.7,144.6,144.6,0,0,1,33.883-28.567c14.221-8.828,30.958-16.02,48.62-21.372,17.673-5.331,34.495-8.521,49.573-11.2,15.1-2.642,28.589-4.813,39.983-6.994,11.367-2.182,20.668-4.306,27.138-5.992l4.316-1.131,3.172-.878Z" fill="#824722"/>
          <path id="Path_1336" data-name="Path 1336" d="M1225.639,334.644l-2.221,1.087c-1.462.686-3.622,1.737-6.442,2.92a240.061,240.061,0,0,1-24.248,8.766c-10.341,3.183-22.732,6.314-36.318,9.076s-28.316,5.223-43.474,7.439l-21.914,3.244c-7.067,1.022-13.81,2.167-20.28,3.254l-4.781.847c-1.578.276-3.107.611-4.643.893-3.085.537-6,1.241-8.907,1.806-1.444.3-2.832.658-4.226.966-1.38.333-2.781.588-4.1.952l-3.925.995-1.92.474-1.847.526c-2.437.7-4.836,1.291-7.02,2.02-2.2.706-4.365,1.276-6.29,1.989l-5.509,1.878-4.628,1.739c-.7.264-1.38.5-2,.743l-1.725.715-2.745,1.114-2.311.9,1.337-2.075,1.679-2.5,1.1-1.59c.4-.557.858-1.12,1.332-1.732q1.431-1.827,3.238-4.045c1.23-1.438,2.633-2.934,4.148-4.57,1.495-1.671,3.243-3.245,5.076-5,1.823-1.781,3.884-3.45,6.05-5.262l1.655-1.362,1.74-1.312,3.64-2.685c1.24-.932,2.561-1.744,3.892-2.639,1.339-.868,2.7-1.791,4.118-2.64,2.845-1.663,5.8-3.458,8.942-5.026,1.567-.8,3.157-1.646,4.792-2.412l5-2.279a173.188,173.188,0,0,1,21.8-7.8,193.3,193.3,0,0,1,24.035-5.182,253.831,253.831,0,0,1,46.24-2.185c14.062.533,26.585,1.834,37.133,3.081s19.143,2.519,25.143,3.39l6.94,1.065Z" fill="#824722"/>
          <path id="Path_1337" data-name="Path 1337" d="M1187.042,378.362l-1.941-.457-2.288-.568-1.428-.366c-.514-.119-1.076-.216-1.655-.336l-3.8-.778c-1.386-.245-2.9-.449-4.474-.71-1.55-.3-3.3-.4-5.043-.623-1.737-.251-3.642-.3-5.552-.464l-1.448-.112-1.5-.04-3.048-.109c-1.02-.059-2.1,0-3.159-.014-1.072.014-2.131-.038-3.235.008-2.213.105-4.428.08-6.746.27-1.154.081-2.3.093-3.481.2s-2.366.2-3.559.288c-4.8.472-9.753.955-14.872,1.717q-7.67,1.105-15.75,2.5c-10.914,1.968-21.6,4-31.742,5.963-10.123,1.952-19.654,3.731-27.869,5.107s-15.106,2.3-19.927,2.835-7.58.674-7.58.674,1.762-2.119,5.125-5.638A182.454,182.454,0,0,1,1037,373.76a152.541,152.541,0,0,1,25.021-17.1,120,120,0,0,1,35.881-12.791,104.446,104.446,0,0,1,20.387-1.479,99.061,99.061,0,0,1,18.982,2.375q2.238.537,4.4,1.1c1.438.373,2.845.865,4.224,1.3,2.76.841,5.384,1.967,7.884,2.99,1.25.519,2.453,1.15,3.631,1.716,1.173.6,2.327,1.119,3.422,1.768l3.193,1.879,1.521.922,1.447.995c1.888,1.334,3.673,2.534,5.245,3.9,1.578,1.344,3.073,2.513,4.34,3.833,1.284,1.281,2.461,2.444,3.485,3.58q1.5,1.767,2.664,3.229c.386.489.756.936,1.081,1.384l.876,1.291c.536.8.975,1.478,1.324,2.027C1186.7,377.777,1187.042,378.362,1187.042,378.362Z" fill="#824722"/>
          <path id="Path_1338" data-name="Path 1338" d="M1195.184,445.616l-1.09-1.7-1.261-2.007q-.361-.582-.778-1.252c-.293-.439-.649-.891-1-1.371l-2.274-3.117c-.875-1.1-1.893-2.231-2.894-3.438l-.766-.912c-.274-.3-.58-.594-.871-.9l-1.794-1.839c-1.141-1.28-2.623-2.456-3.981-3.73-.35-.314-.686-.638-1.047-.951l-1.153-.907-2.31-1.854c-.761-.633-1.662-1.184-2.485-1.794l-1.26-.9a14.617,14.617,0,0,0-1.3-.887c-1.83-1.113-3.555-2.348-5.534-3.385l-1.435-.827a16.612,16.612,0,0,0-1.464-.807q-1.52-.753-3.022-1.546c-.253-.13-.5-.27-.755-.394l-.792-.35-1.577-.715-1.568-.738c-.516-.259-1.085-.437-1.622-.666l-3.259-1.344q-1.686-.577-3.355-1.211a136.679,136.679,0,0,0-13.933-3.965c-4.964-1.047-9.906-1.833-14.828-2.438-4.919-.647-9.833-.877-14.64-1.072q-1.8-.033-3.59-.1l-3.539.019-1.754-.008-1.731.061-3.425.08c-4.5.243-8.824.485-12.818.9-8,.781-14.8,1.748-19.559,2.534-1.205.167-2.265.353-3.188.518l-2.365.392-1.987.3s.4-.561,1.2-1.6l1.5-1.913c.6-.757,1.3-1.617,2.141-2.531s1.768-1.951,2.815-3.063c1.057-1.1,2.254-2.223,3.55-3.454,1.286-1.251,2.749-2.452,4.309-3.757,1.551-1.327,3.277-2.592,5.116-3.922a99.392,99.392,0,0,1,12.78-7.74l3.757-1.748,1.947-.875,2.019-.792c1.362-.522,2.753-1.047,4.176-1.557q2.16-.68,4.406-1.34a86.7,86.7,0,0,1,19.532-3.238,85.068,85.068,0,0,1,21.685,1.713,79.382,79.382,0,0,1,20.829,7.894q2.325,1.346,4.563,2.714c1.46.965,2.86,1.993,4.244,2.991.684.513,1.388.98,2.032,1.533l1.923,1.632,1.874,1.628.919.812c.3.279.582.576.87.863q1.722,1.736,3.344,3.447c.552.555,1.05,1.168,1.546,1.771l1.465,1.795a72.525,72.525,0,0,1,5.14,7.225,21.225,21.225,0,0,1,1.082,1.827l1,1.831c.635,1.223,1.31,2.361,1.832,3.584s1.032,2.4,1.508,3.562l.7,1.715c.2.579.381,1.168.564,1.739a53.7,53.7,0,0,1,1.774,6.547q.3,1.564.574,3.039c.083.49.178.963.241,1.44l.13,1.426c.149,1.866.3,3.558.326,5.123-.04,1.589-.1,3.016-.177,4.282-.043.634-.064,1.223-.13,1.782l-.254,1.571c-.163.966-.313,1.772-.439,2.418C1195.342,444.956,1195.184,445.616,1195.184,445.616Z" fill="#824722"/>
          <path id="Path_1339" data-name="Path 1339" d="M1176.478,486.081l-2.522-6.381q-.614-1.473-1.362-3.266c-.512-1.175-1.123-2.43-1.717-3.755-.562-1.328-1.329-2.711-2.032-4.156-.678-1.449-1.544-2.931-2.365-4.467-.779-1.544-1.795-3.091-2.695-4.7-.437-.808-.991-1.6-1.49-2.407l-1.535-2.447-1.659-2.455c-.278-.412-.538-.833-.827-1.244l-.893-1.229-1.771-2.491q-.953-1.225-1.88-2.477c-.592-.848-1.3-1.643-1.944-2.472-.665-.819-1.275-1.676-1.995-2.471q-1.039-1.217-2.047-2.468-1.092-1.191-2.149-2.421-4.347-4.832-9.089-9.544-4.824-4.639-9.756-8.862-1.256-1.026-2.472-2.091-1.275-.977-2.515-1.988c-.811-.7-1.683-1.291-2.518-1.936-.844-.628-1.654-1.314-2.517-1.885q-1.273-.9-2.52-1.821l-2.532-1.712-1.25-.864c-.418-.279-.845-.529-1.263-.8l-2.494-1.6-2.482-1.476c-.822-.48-1.624-1.015-2.441-1.433-1.628-.862-3.2-1.841-4.761-2.584-1.554-.784-3.057-1.615-4.522-2.258-1.461-.669-2.861-1.4-4.2-1.934-1.339-.562-2.608-1.143-3.8-1.628l-3.3-1.285-6.439-2.37s.534-.317,1.578-.881c.523-.282,1.174-.625,1.955-1.021l1.268-.632c.456-.215.946-.41,1.468-.631,1.043-.433,2.218-.9,3.526-1.4,1.307-.466,2.745-.885,4.317-1.351,1.574-.5,3.266-.817,5.095-1.207,1.834-.414,3.773-.645,5.846-.9,2.081-.3,4.242-.334,6.543-.439,1.154-.066,2.308,0,3.5.022,1.191.042,2.418.069,3.657.159q1.847.176,3.77.4c.64.078,1.292.144,1.939.245l1.948.346c1.307.248,2.649.484,3.989.794q2,.505,4.05,1.074c1.38.352,2.722.851,4.1,1.326,1.37.492,2.78.961,4.138,1.58q2.058.887,4.149,1.848,2.039,1.055,4.1,2.184A74.073,74.073,0,0,1,1173.29,415.2q1.179,2.032,2.28,4.048,1.011,2.065,1.946,4.1c.651,1.344,1.152,2.742,1.677,4.1.507,1.368,1.038,2.7,1.422,4.07q.618,2.039,1.169,4.022c.342,1.333.61,2.669.888,3.97l.393,1.939c.116.645.2,1.3.29,1.933q.269,1.917.487,3.76c.119,1.236.175,2.462.245,3.651.052,1.2.143,2.347.1,3.5-.051,2.3-.038,4.464-.285,6.551-.2,2.078-.391,4.022-.762,5.865-.346,1.838-.627,3.537-1.086,5.123-.428,1.582-.814,3.029-1.249,4.347-.465,1.319-.908,2.505-1.316,3.559-.209.527-.392,1.021-.6,1.481l-.6,1.284c-.378.79-.706,1.449-.975,1.978C1176.783,485.54,1176.478,486.081,1176.478,486.081Z" fill="#824722"/>
          <path id="Path_1340" data-name="Path 1340" d="M1135.61,500.076l-.012-1.765c-.016-1.152.062-2.8.035-4.9,0-4.187-.129-10.1-.784-16.82-.092-.841-.137-1.687-.256-2.552l-.354-2.62-.165-1.326-.234-1.342q-.219-1.331-.446-2.71c-.743-3.633-1.5-7.347-2.617-11.031s-2.364-7.343-3.824-10.957c-1.478-3.616-3.193-7.148-5.088-10.731s-3.952-7.075-6.139-10.5c-2.236-3.395-4.6-6.708-7.005-9.937a216.367,216.367,0,0,0-14.9-17.266c-4.786-4.99-9.113-9.066-12.157-12l-3.584-3.361-1.262-1.235s.6-.088,1.741-.211,2.834-.3,5.015-.391a81.36,81.36,0,0,1,18.441,1.486,79.5,79.5,0,0,1,26.226,10.326,77.2,77.2,0,0,1,13.56,10.9,69.117,69.117,0,0,1,11.367,15.576,65.533,65.533,0,0,1,6.512,18.446,68.465,68.465,0,0,1,.934,17.91,69.242,69.242,0,0,1-3.123,15.455q-.608,1.728-1.226,3.363l-.621,1.61-.7,1.545-1.386,2.951c-.462.951-1,1.849-1.483,2.729a67.27,67.27,0,0,1-11.361,14.879c-1.541,1.543-2.886,2.625-3.75,3.372C1136.089,499.708,1135.61,500.076,1135.61,500.076Z" fill="#824722"/>
          <path id="Path_1341" data-name="Path 1341" d="M1112.307,523.365s-.415-2.505-.907-6.9-1.094-10.662-1.679-18.1c-.282-3.65-.59-7.643-.92-11.925-.373-4.2-.657-8.591-1.09-13.076-.776-9-1.819-18.293-3.1-27.662q-1.013-6.807-2.288-13.281c-.829-4.328-1.908-8.452-2.963-12.469q-.445-1.476-.853-2.959c-.26-1-.625-1.909-.915-2.871-.562-1.94-1.292-3.709-1.916-5.539-.306-.921-.71-1.741-1.046-2.616-.361-.851-.666-1.751-1.05-2.558q-.57-1.238-1.117-2.426l-.541-1.207-.589-1.131c-.8-1.478-1.5-3.034-2.33-4.337l-1.172-2-.57-.975-.6-.892c-.8-1.171-1.535-2.335-2.264-3.373l-2.112-2.78c-.326-.425-.628-.849-.929-1.221l-.874-1.01-1.4-1.634-1.175-1.4s.618-.012,1.81.02c.6.016,1.338.043,2.223.092l1.436.091c.507.051,1.031.143,1.6.228,1.132.178,2.4.4,3.809.67,1.375.32,2.84.761,4.455,1.242l1.231.381c.408.144.809.311,1.225.473l2.573,1.051a52.141,52.141,0,0,1,5.453,2.711c.471.26.958.517,1.431.8l1.394.9q1.41.918,2.88,1.921c.985.665,1.884,1.432,2.855,2.189.942.776,1.969,1.54,2.882,2.41a70.863,70.863,0,0,1,5.567,5.593c.886,1.021,1.852,2.041,2.69,3.148s1.7,2.233,2.557,3.394a78.938,78.938,0,0,1,8.647,15.75,81.511,81.511,0,0,1,5.074,18.643,89.471,89.471,0,0,1,.573,18.728,95.008,95.008,0,0,1-2.8,16.807,108.136,108.136,0,0,1-4.8,14.314,120.9,120.9,0,0,1-5.665,11.688,126.432,126.432,0,0,1-10.276,15.7C1114.013,521.5,1112.307,523.365,1112.307,523.365Z" fill="#824722"/>
          <path id="Path_1342" data-name="Path 1342" d="M1038.714,368.791s.663-.313,1.975-.871c.657-.267,1.479-.643,2.472-.983.993-.319,2.156-.677,3.5-1.064,1.338-.359,2.843-.628,4.535-.96.844-.156,1.72-.225,2.648-.338.923-.086,1.907-.234,2.907-.258a61.432,61.432,0,0,1,13.854.912,66.557,66.557,0,0,1,16.367,5.342,70.694,70.694,0,0,1,16.857,11.221,75.013,75.013,0,0,1,14.351,17.515,84.231,84.231,0,0,1,9.165,22.138,91.246,91.246,0,0,1,2.7,23.309,93.426,93.426,0,0,1-2.765,21.234,106.667,106.667,0,0,1-13.844,31.887,117.208,117.208,0,0,1-14.145,17.871c-1.871,1.923-3.368,3.363-4.42,4.315l-1.606,1.444.254-2.145c.181-1.381.448-3.417.792-6.036.684-5.189,1.631-12.607,2.426-21.378a236.33,236.33,0,0,0,.847-29.468,156.666,156.666,0,0,0-1.415-16.03,161.685,161.685,0,0,0-3.17-16.278,126.25,126.25,0,0,0-4.946-15.288,87.3,87.3,0,0,0-6.6-13.261,78.409,78.409,0,0,0-17.671-20.041,77.4,77.4,0,0,0-9.3-6.284c-.736-.451-1.475-.778-2.185-1.163-.714-.359-1.405-.757-2.084-1.061-1.36-.586-2.635-1.2-3.809-1.668l-3.191-1.2c-.943-.335-1.757-.549-2.423-.766Z" fill="#824722"/>
          <path id="Path_1343" data-name="Path 1343" d="M991.157,356.236s-2.254.83-6.357,1.983c-2.055.6-4.563,1.205-7.482,1.818q-2.188.464-4.682.926-2.481.424-5.238.8a151.225,151.225,0,0,1-25.658,1.348,142.456,142.456,0,0,1-30.538-4.38,140.476,140.476,0,0,1-28.812-11.23,142.646,142.646,0,0,1-21.69-14.026q-2.2-1.73-4.138-3.351-1.922-1.674-3.576-3.2c-2.208-2.022-4.055-3.833-5.507-5.419-2.92-3.123-4.406-5-4.406-5s2.445-.121,6.634-.07l7.551.121c1.454.037,3,.091,4.615.168,1.634.048,3.354.1,5.138.194,7.12.4,15.484.913,24.473,2.1a214.624,214.624,0,0,1,28.705,5.434,210.08,210.08,0,0,1,27.736,9.406c8.445,3.436,16,7.157,22.392,10.431,1.6.826,3.117,1.646,4.557,2.433,1.443.764,2.8,1.508,4.08,2.221,2.551,1.433,4.755,2.736,6.566,3.786C989.141,354.863,991.157,356.236,991.157,356.236Z" fill="#824722"/>
          <path id="Path_1344" data-name="Path 1344" d="M1002.123,353.452s-2.157,1.4-6.176,3.616c-2.009,1.126-4.491,2.384-7.4,3.746q-2.184,1.027-4.687,2.134c-1.666.715-3.434,1.427-5.3,2.16a179.74,179.74,0,0,1-26.564,8.075,175.98,175.98,0,0,1-33.015,4.064,181.193,181.193,0,0,1-33.049-2.376,204.463,204.463,0,0,1-26.79-6.3c-7.589-2.322-13.692-4.679-17.9-6.444s-6.519-2.934-6.519-2.934,2.378-1.048,6.654-2.6,10.448-3.629,18.029-5.738a260.724,260.724,0,0,1,26.506-5.89,224.56,224.56,0,0,1,32.213-3.151,233.458,233.458,0,0,1,32.2,1.51c9.922,1.065,18.947,2.667,26.586,4.138,1.911.376,3.741.77,5.475,1.144,1.729.355,3.368.712,4.906,1.063,3.08.709,5.755,1.379,7.946,1.9C999.629,352.667,1002.123,353.452,1002.123,353.452Z" fill="#824722"/>
          <path id="Path_1345" data-name="Path 1345" d="M975.705,367.965s-1.4,1.732-4.144,4.582c-1.367,1.448-3.1,3.086-5.164,4.926-1.033.918-2.148,1.894-3.348,2.892q-1.811,1.458-3.865,3.017a122.708,122.708,0,0,1-20.247,12.385,115.491,115.491,0,0,1-26.948,9.145,112.475,112.475,0,0,1-28.569,1.837,109.222,109.222,0,0,1-23.693-4.181q-2.506-.745-4.735-1.493c-1.492-.534-2.892-1.1-4.187-1.625a63.057,63.057,0,0,1-6.546-3.008c-3.525-1.876-5.361-3.1-5.361-3.1s2.078-.985,5.632-2.436c1.769-.681,3.921-1.655,6.368-2.673l3.88-1.575q2.056-.891,4.306-1.8c5.985-2.376,12.98-5.229,20.692-7.791a192.37,192.37,0,0,1,25.267-6.91,183.016,183.016,0,0,1,26.163-3.277c8.224-.531,15.888-.468,22.441-.333,1.641.042,3.219.1,4.725.181,1.494.054,2.911.11,4.251.184,2.68.146,5.039.343,6.961.461C973.449,367.653,975.705,367.965,975.705,367.965Z" fill="#824722"/>
          <path id="Path_1346" data-name="Path 1346" d="M944.33,377.7l-1.184,1.057c-.768.7-1.918,1.607-3.32,2.878-2.833,2.442-6.74,6-11.1,10.223-2.186,2.1-4.457,4.441-6.815,6.853-2.322,2.479-4.751,5.007-7.16,7.7-4.865,5.347-9.756,11.075-14.883,16.921-5.068,5.9-10.052,11.544-14.663,17.112-2.332,2.764-4.493,5.524-6.622,8.171-2.057,2.674-4.052,5.251-5.828,7.711-3.571,4.906-6.543,9.274-8.564,12.421-1.06,1.567-1.8,2.833-2.382,3.691l-.881,1.321s-.234-.492-.637-1.443c-.383-.949-1.02-2.37-1.6-4.225a64.17,64.17,0,0,1-3.07-16.293,72.41,72.41,0,0,1,.227-11.56,74.6,74.6,0,0,1,2.579-13.107,71.669,71.669,0,0,1,39.38-45.361,74.643,74.643,0,0,1,12.615-4.394,72.369,72.369,0,0,1,11.413-1.848,64.138,64.138,0,0,1,16.563.751c1.918.312,3.414.743,4.408.988C943.81,377.541,944.33,377.7,944.33,377.7Z" fill="#824722"/>
          <path id="Path_1347" data-name="Path 1347" d="M979.332,341.75s-1.625,2.525-4.738,6.819-7.712,10.354-13.4,17.492c-2.851,3.564-5.925,7.428-9.216,11.467-1.594,2.054-3.331,4.092-5,6.241l-2.587,3.215-2.592,3.295c-7.01,8.849-14.109,18.326-20.842,28.273-3.217,4.869-6.181,9.753-8.911,14.608q-.972,1.84-1.984,3.64l-1.83,3.638c-.3.6-.639,1.2-.913,1.8l-.823,1.809-.84,1.793c-.285.6-.578,1.186-.8,1.786q-.735,1.791-1.5,3.551c-.272.586-.494,1.173-.7,1.761l-.655,1.751c-.96,2.324-1.621,4.62-2.4,6.876l-.286.844-.227.839-.46,1.667c-.293,1.1-.667,2.206-.909,3.285l-.719,3.2-.369,1.577c-.115.521-.173,1.031-.264,1.542q-.262,1.55-.513,3.025c-.078.495-.193.995-.242,1.478l-.146,1.434-.3,2.8-.15,1.36-.047,1.3c-.054,1.716-.163,3.371-.189,4.9l.119,4.2c.02.642.017,1.264.053,1.836l.159,1.591.241,2.554.183,2.167s-.541-.5-1.549-1.495c-.505-.5-1.127-1.127-1.859-1.887l-1.18-1.242c-.4-.458-.779-.967-1.2-1.5q-1.262-1.617-2.782-3.681c-.934-1.4-1.851-2.985-2.871-4.718l-.768-1.333-.677-1.414-1.388-3.018-.713-1.6c-.237-.545-.408-1.106-.618-1.674L878.7,476.06c-.2-.611-.423-1.232-.593-1.863l-.48-1.922q-.479-1.953-.947-4.027c-.3-1.381-.465-2.788-.693-4.24l-.309-2.2-.15-1.123-.084-1.125a84.493,84.493,0,0,1-.29-9.416l.067-2.455c.018-.829.057-1.659.15-2.481q.233-2.481.522-5.045c.079-.86.229-1.7.38-2.552l.46-2.571.493-2.6c.173-.872.416-1.722.63-2.592.452-1.729.891-3.494,1.42-5.245q.855-2.6,1.785-5.237a101.761,101.761,0,0,1,10.454-20.537,116.361,116.361,0,0,1,14.266-17.2A127.975,127.975,0,0,1,921.3,368.505l3.875-2.716c1.294-.855,2.581-1.677,3.85-2.483,2.527-1.637,5.066-3.038,7.5-4.437,4.911-2.684,9.568-4.971,13.891-6.873a205.326,205.326,0,0,1,20.941-7.917C976.421,342.471,979.332,341.75,979.332,341.75Z" fill="#824722"/>
          <path id="Path_1348" data-name="Path 1348" d="M925.134,509.658s-.441-.466-1.244-1.382c-.782-.924-2.02-2.273-3.381-4.128a87.107,87.107,0,0,1-9.989-16.908c-.906-1.895-1.664-3.93-2.5-6.068-.807-2.141-1.517-4.407-2.242-6.777-.628-2.376-1.341-4.857-1.823-7.445-.255-1.294-.526-2.612-.747-3.954q-.3-2.014-.572-4.1a96.042,96.042,0,0,1,18.282-69.072q1.264-1.677,2.523-3.278c.856-1.057,1.744-2.069,2.606-3.067,1.7-2.011,3.546-3.814,5.267-5.569,1.8-1.7,3.541-3.319,5.3-4.78,1.784-1.445,3.449-2.838,5.174-4.037a87.09,87.09,0,0,1,17.046-9.753c2.1-.939,3.843-1.5,4.98-1.915,1.151-.4,1.765-.586,1.765-.586l-.743,1.715c-.477,1.126-1.261,2.686-2.144,4.759-1.847,4.066-4.337,9.907-7.052,16.832-.712,1.706-1.336,3.562-2.061,5.406-.7,1.862-1.367,3.819-2.1,5.783-.65,2.019-1.427,4.011-2.08,6.127l-1.056,3.161-1.025,3.24c-2.768,8.715-5.368,18.06-7.988,27.791-2.537,9.753-4.9,19.161-6.806,28.1q-.36,1.683-.712,3.324l-.645,3.269c-.48,2.162-.79,4.278-1.224,6.354-.336,2.068-.727,4.1-1.038,6.063-.281,1.962-.658,3.884-.882,5.719-1.067,7.361-1.792,13.669-2.2,18.116-.257,2.239-.348,3.982-.49,5.2Z" fill="#824722"/>
          <path id="Path_1349" data-name="Path 1349" d="M980.993,359.984l-.843,1.813-1.034,2.141-.659,1.34-.7,1.557q-.742,1.613-1.646,3.574l-1.809,4.245c-1.258,3.028-2.6,6.444-3.942,10.168-.676,1.859-1.3,3.836-2,5.82l-.951,3.089-.5,1.562-.452,1.61-.942,3.256-.868,3.364-.453,1.695-.4,1.737c-.259,1.164-.58,2.312-.826,3.5-1.058,4.721-1.949,9.631-2.771,14.651l-.585,3.794q-.223,1.919-.506,3.845c-.291,2.605-.62,5.093-.9,8.006-.588,5.652-1.239,11.2-1.758,16.58-.538,5.376-1.1,10.6-1.5,15.589-.26,2.51-.386,4.935-.594,7.331-.125,1.206-.138,2.361-.223,3.527-.062,1.158-.165,2.318-.217,3.445-.186,4.5-.356,8.776-.312,12.7.035,1.953-.015,3.883.112,5.648l.113,2.632.051,1.274.11,1.21.388,4.533.521,3.841.217,1.683.28,1.445.434,2.322.347,1.974s-.564-.375-1.622-1.142c-.53-.384-1.184-.867-1.955-1.457l-1.245-.965-1.306-1.187q-1.382-1.273-3.058-2.908c-1.046-1.119-2.138-2.378-3.324-3.76l-.9-1.064-.852-1.132-1.762-2.417c-1.252-1.67-2.339-3.513-3.533-5.476a96.33,96.33,0,0,1-6.539-13.407c-.5-1.244-.931-2.518-1.4-3.82-.442-1.3-.949-2.635-1.322-3.989-.793-2.711-1.615-5.535-2.219-8.442a118.693,118.693,0,0,1-2.178-38.335,101.041,101.041,0,0,1,1.637-10.364q.594-2.562,1.234-5.065c.476-1.656,1-3.283,1.511-4.891a96.942,96.942,0,0,1,7.985-17.629c.757-1.334,1.6-2.6,2.395-3.863l1.207-1.861,1.276-1.782c.854-1.17,1.692-2.318,2.543-3.425l2.641-3.174c.439-.513.864-1.024,1.306-1.517l1.352-1.438,2.647-2.743c1.825-1.715,3.552-3.345,5.3-4.8a90.033,90.033,0,0,1,9.852-7.155q2.3-1.391,4.274-2.507,2.042-1.053,3.722-1.861l1.583-.754,1.436-.594,2.254-.889C980.346,360.2,980.993,359.984,980.993,359.984Z" fill="#824722"/>
          <ellipse id="Ellipse_71" data-name="Ellipse 71" cx="85.228" cy="93.372" rx="85.228" ry="93.372" transform="translate(938.772 354.321)" fill="#81441d"/>
          <ellipse id="Ellipse_72" data-name="Ellipse 72" cx="39.433" cy="39.812" rx="39.433" ry="39.812" transform="translate(984.567 470.287)" fill="#f5e4c4"/>
          <g id="Group_142" data-name="Group 142">
            <path id="Path_1350" data-name="Path 1350" d="M1024,515.586c-17.405,0-18.9,9.176-31.934,12.733v.023S1006.337,541.4,1024,541.4s31.934-13.059,31.934-13.059v-.023C1042.9,524.762,1041.405,515.586,1024,515.586Z" fill="#433219"/>
            <path id="Path_1351" data-name="Path 1351" d="M1031.813,531.11c-2.351-.979-5,1.56-7.813,1.56s-5.462-2.539-7.813-1.56a16.867,16.867,0,0,0-6.78,5.022,29.6,29.6,0,0,0,29.186,0A16.866,16.866,0,0,0,1031.813,531.11Z" fill="#cc2128"/>
          </g>
          <g id="Group_143" data-name="Group 143">
            <path id="Path_1352" data-name="Path 1352" d="M1024,520.68c-15.718,0-17.071,7.871-28.838,10.922v.019c9.827-1.283,12.888-2.6,28.838-2.6s19.011,1.316,28.838,2.6V531.6C1041.071,528.551,1039.718,520.68,1024,520.68Z" fill="#433219"/>
          </g>
          <path id="Path_1353" data-name="Path 1353" d="M1074.726,483.91q1.445.074,2.908.074a57.529,57.529,0,0,0,57.522-58.424c-.457-30.032-26.19-55.954-56.218-56.619a57.331,57.331,0,0,0-42.8,17.69,16.9,16.9,0,0,1-24.272-.021q-1.835-1.909-3.883-3.687a57.527,57.527,0,1,0-34.662,100.9" fill="#f5e4c4"/>
          <g id="Group_144" data-name="Group 144">
            <path id="Path_1354" data-name="Path 1354" d="M1097.771,420.433a4.194,4.194,0,0,1,4.1,5.047,25.865,25.865,0,0,1-47.415,8.156,4.188,4.188,0,0,1,7.155-4.356,17.489,17.489,0,0,0,32.062-5.515A4.19,4.19,0,0,1,1097.771,420.433Z" fill="#351c0d"/>
            <path id="Path_1355" data-name="Path 1355" d="M1121.185,419.209l-2.725-1.759c-1.749-1.1-4.3-2.6-7.466-4.188a65.365,65.365,0,0,0-11.242-4.334c-1.046-.336-2.151-.525-3.243-.794-1.1-.252-2.231-.391-3.355-.6a44.306,44.306,0,0,0-6.884-.378,36.36,36.36,0,0,0-13.078,2.7,37.874,37.874,0,0,0-10.077,6.306,44.181,44.181,0,0,0-6.3,6.814c-1.52,1.987-2.5,3.524-3,4.243a36.391,36.391,0,0,1-6.194,6.989c-2.028,1.661-4,2.5-5.524,1.838-1.495-.645-2.242-2.717-2.007-5.618a21.267,21.267,0,0,1,3.993-10.086,42.269,42.269,0,0,1,4.136-4.861,50.519,50.519,0,0,1,8.9-7.387,45.9,45.9,0,0,1,13.577-5.992,42.988,42.988,0,0,1,15.912-.9,49.326,49.326,0,0,1,7.592,1.593,58.105,58.105,0,0,1,6.846,2.581,67.456,67.456,0,0,1,10.9,6.276c2.953,2.114,5.255,4.011,6.819,5.378Z" fill="#824722"/>
            <path id="Path_1356" data-name="Path 1356" d="M1097.771,420.433a4.194,4.194,0,0,1,4.1,5.047,25.865,25.865,0,0,1-47.415,8.156,4.188,4.188,0,0,1,7.155-4.356,17.489,17.489,0,0,0,32.062-5.515A4.19,4.19,0,0,1,1097.771,420.433Z" fill="#351c0d"/>
          </g>
          <path id="Path_1357" data-name="Path 1357" d="M966.745,478.721a2.61,2.61,0,0,1,2.559,3.716s-13.713,27.672-12.772,30.376c2.588,7.433,8.675,20.746,32.448,18.036,15.564-1.774,17.468-1.827,35.02-1.827s19.456.053,35.02,1.827c23.773,2.71,29.86-10.6,32.448-18.036.941-2.7-12.818-30.469-12.818-30.469a2.61,2.61,0,0,1,2.557-3.716" fill="#f5e4c4"/>
          <path id="Path_1358" data-name="Path 1358" d="M1037.178,487.745V498.07S1043.315,494.4,1037.178,487.745Z" fill="#433219"/>
          <g id="Group_145" data-name="Group 145">
            <path id="Path_1359" data-name="Path 1359" d="M950.229,420.433a4.194,4.194,0,0,0-4.1,5.047,25.865,25.865,0,0,0,47.415,8.156,4.188,4.188,0,0,0-7.155-4.356,17.489,17.489,0,0,1-32.062-5.515A4.19,4.19,0,0,0,950.229,420.433Z" fill="#351c0d"/>
            <path id="Path_1360" data-name="Path 1360" d="M926.815,419.209l2.725-1.759c1.749-1.1,4.3-2.6,7.466-4.188a65.364,65.364,0,0,1,11.242-4.334c1.046-.336,2.151-.525,3.243-.794,1.1-.252,2.231-.391,3.355-.6a44.3,44.3,0,0,1,6.884-.378,36.36,36.36,0,0,1,13.078,2.7,37.874,37.874,0,0,1,10.077,6.306,44.178,44.178,0,0,1,6.3,6.814c1.519,1.987,2.5,3.524,3,4.243a36.391,36.391,0,0,0,6.194,6.989c2.028,1.661,4,2.5,5.524,1.838,1.495-.645,2.242-2.717,2.007-5.618a21.268,21.268,0,0,0-3.993-10.086,42.269,42.269,0,0,0-4.136-4.861,50.519,50.519,0,0,0-8.9-7.387,45.9,45.9,0,0,0-13.577-5.992,42.988,42.988,0,0,0-15.912-.9A49.322,49.322,0,0,0,953.8,402.8a58.106,58.106,0,0,0-6.846,2.581,67.453,67.453,0,0,0-10.9,6.276c-2.953,2.114-5.255,4.011-6.819,5.378Z" fill="#824722"/>
            <path id="Path_1361" data-name="Path 1361" d="M950.229,420.433a4.194,4.194,0,0,0-4.1,5.047,25.865,25.865,0,0,0,47.415,8.156,4.188,4.188,0,0,0-7.155-4.356,17.489,17.489,0,0,1-32.062-5.515A4.19,4.19,0,0,0,950.229,420.433Z" fill="#351c0d"/>
          </g>
          <path id="Path_1362" data-name="Path 1362" d="M1010.822,487.745V498.07S1004.685,494.4,1010.822,487.745Z" fill="#433219"/>
          <path id="Path_1363" data-name="Path 1363" d="M1032.918,709.522s6.9-158.226,58.9-183.043c87.094-41.568,156-36.636,156-36.636s-28.363,73.943-97.823,116.488C1098.491,637.875,1092.689,691.93,1032.918,709.522Z"/>
          <path id="Path_1364" data-name="Path 1364" d="M1132.924,684.022c1.9-9.984,4.968-22.608,9.693-33.447,9.536-21.878,37.024-40.389,37.024-40.389l-5.579-21.972s-66.225,11.35-103.249,33.789-36.669,69.185-36.669,69.185c-.32,6.987-.74,13.054-1.226,18.334C1075.606,711.487,1108.712,699.2,1132.924,684.022Z" fill="#50085f"/>
          <path id="Path_1365" data-name="Path 1365" d="M1015.082,709.522s-6.9-158.226-58.9-183.043c-87.094-41.568-156-36.636-156-36.636s28.363,73.943,97.823,116.488C949.509,637.875,955.311,691.93,1015.082,709.522Z"/>
          <path id="Path_1366" data-name="Path 1366" d="M915.076,684.022c-1.9-9.984-4.968-22.608-9.693-33.447-9.536-21.878-37.024-40.389-37.024-40.389l5.579-21.972S940.163,599.564,977.187,622s36.669,69.185,36.669,69.185c.32,6.987.74,13.054,1.226,18.334C972.394,711.487,939.288,699.2,915.076,684.022Z" fill="#50085f"/>
        </g>
      </g>
    </g>
    <g id="Group_149" data-name="Group 149">
      <path id="Path_1367" data-name="Path 1367" d="M1101.218,372.431c3.4,6.169,4.993,14.21,12.356,16.974,4.572,1.717,9.878.717,14.322-.906,4.008-1.463,7.667-3.627,11.531-5.4,1.326-.608,4.663-2.957,2.81-4.641s-5.768-.242-7.611.6c-1.547.709-3.053,1.5-4.568,2.271-.723.368-1.447.733-2.178,1.084-.365.174-.735.338-1.1.511-1.194.568,1.134-.42,0,0-.431.16-.858.329-1.294.477-1.334.452.613-.115.057.01-.163.036-1.2.387-1.294.281l.708-.1c-.244.029-.49.051-.735.066-1.161.127.982.129-.174,0-.366-.04-.728-.069-1.09-.139.886.172-.178-.094-.366-.16-.287-.1-.9-.363-1.022-.427-2.449-1.326-4-3.809-5.242-6.331-1.326-2.691-2.335-5.53-3.786-8.16-1.167-2.114-4.778-1.332-6.59-.652a9.642,9.642,0,0,0-3.73,2.181c-.516.557-1.463,1.614-1,2.452Z" fill="red"/>
      <path id="Path_1368" data-name="Path 1368" d="M1086.625,380.7c1.9,3.22,4.429,6.025,6.236,9.3,1.716,3.111,2.363,5.865,1.334,9.162-.194.622.259-.382-.173.359-.17.292-.322.592-.5.877-.134.21-.442.856-.673.951q.54-.637.229-.276c-.1.113-.195.224-.3.333-.514.561-1.074,1.067-1.639,1.576-.93.839.721-.525-.085.068-.339.249-.671.508-1.013.753-2.468,1.771-5.124,3.258-7.618,4.99-1.355.942-3.342,3.486-.759,4.33s5.954-.3,8.077-1.775c5.716-3.971,12.888-7.224,15.651-14.081,3.218-7.985-3.768-14.31-7.446-20.55-1.23-2.087-4.729-1.35-6.59-.652a9.65,9.65,0,0,0-3.73,2.181c-.5.544-1.483,1.634-1,2.452Z" fill="red"/>
      <path id="Path_1369" data-name="Path 1369" d="M1126.567,427.893c-3.405-6.17-4.993-14.21-12.356-16.975-4.573-1.717-9.878-.717-14.323.906-4.007,1.464-7.666,3.627-11.53,5.4-1.327.609-4.664,2.957-2.811,4.641s5.769.243,7.612-.6c1.546-.71,3.053-1.5,4.568-2.271.722-.369,1.446-.734,2.178-1.084.365-.175.735-.338,1.1-.512,1.194-.568-1.135.42,0,0,.431-.161.858-.33,1.294-.478,1.334-.452-.613.116-.058-.009.164-.037,1.2-.387,1.294-.281l-.708.1q.367-.043.736-.066c1.161-.126-.982-.128.174,0,.366.04.727.069,1.09.139-.886-.171.177.094.366.161.287.1.9.362,1.022.427,2.448,1.325,4,3.809,5.242,6.331,1.326,2.69,2.335,5.53,3.786,8.159,1.167,2.114,4.777,1.333,6.59.653a9.663,9.663,0,0,0,3.73-2.182c.516-.556,1.463-1.614,1-2.451Z" fill="red"/>
      <path id="Path_1370" data-name="Path 1370" d="M1141.159,419.627c-1.9-3.22-4.428-6.024-6.236-9.3-1.716-3.111-2.362-5.865-1.333-9.161.194-.622-.26.381.173-.36.17-.292.322-.591.5-.877.133-.21.442-.856.672-.951q-.539.637-.228.277c.1-.113.195-.224.3-.333.514-.562,1.074-1.067,1.638-1.576.931-.84-.721.525.085-.069.339-.249.671-.507,1.014-.753,2.468-1.771,5.124-3.258,7.618-4.99,1.355-.942,3.342-3.486.759-4.33s-5.955.3-8.078,1.775c-5.716,3.972-12.888,7.225-15.651,14.081-3.218,7.985,3.769,14.31,7.447,20.55,1.23,2.087,4.728,1.351,6.589.652a9.645,9.645,0,0,0,3.731-2.181c.5-.543,1.483-1.634,1-2.452Z" fill="red"/>
    </g>
  </g>
</svg>
