<svg xmlns="http://www.w3.org/2000/svg" xmlns:xlink="http://www.w3.org/1999/xlink" width="425.658" height="425.658" viewBox="0 0 425.658 425.658">
  <defs>
    <clipPath id="clip-path">
      <circle id="Ellipse_85" data-name="Ellipse 85" cx="212.829" cy="212.829" r="212.829" transform="translate(1986.086 -4833.175)" fill="none"/>
    </clipPath>
  </defs>
  <g id="Group_176" data-name="Group 176" transform="translate(-1986.086 4833.175)">
    <g id="Group_175" data-name="Group 175">
      <g id="Group_174" data-name="Group 174" clip-path="url(#clip-path)">
        <g id="Group_173" data-name="Group 173">
          <circle id="Ellipse_74" data-name="Ellipse 74" cx="212.829" cy="212.829" r="212.829" transform="translate(1986.086 -4833.175)" fill="#e6e7e8"/>
          <path id="Path_1371" data-name="Path 1371" d="M2283.841-4140.114H2113.988l23.909-381.407h122.035Z" fill="#221f1f"/>
          <path id="Path_1372" data-name="Path 1372" d="M2203.383-4795.166s.075.656.153,1.928c.039.637.077,1.429.1,2.378.008.472.034.994.015,1.534l-.107,1.717a61.071,61.071,0,0,1-5.067,20.277,103.974,103.974,0,0,1-15.97,25.492,154.828,154.828,0,0,1-24.445,23.248c-8.8,6.744-17.179,12.188-24.7,17.194a198.181,198.181,0,0,0-19.317,13.984,67.389,67.389,0,0,0-6.825,6.654,53.766,53.766,0,0,0-4.665,6.142c-.586.929-1.137,1.788-1.548,2.557-.433.768-.819,1.441-1.082,1.994l-.876,1.725s-.345-.566-.951-1.708a23.676,23.676,0,0,1-1.012-2.17,31.142,31.142,0,0,1-1.138-3.109,40.448,40.448,0,0,1-1.666-9.131,51.213,51.213,0,0,1,.764-12.5c1.606-9.2,5.869-19.572,12.336-29.186a111.147,111.147,0,0,1,24.724-26.13,188.516,188.516,0,0,1,27.47-17.159c8.5-4.506,16.272-8.172,22.721-11.69a122.192,122.192,0,0,0,15.351-9.543l1.323-.95c.409-.305.757-.611,1.106-.889l1.774-1.437Z" fill="#452715"/>
          <path id="Path_1373" data-name="Path 1373" d="M2262.282-4785.852s-.063.7-.244,2.022c-.091.663-.212,1.485-.373,2.46l-.276,1.575-.408,1.745c-.3,1.235-.653,2.612-1.071,4.126-.457,1.475-1,3.063-1.607,4.782-.587,1.745-1.365,3.478-2.176,5.377s-1.768,3.832-2.818,5.85a111.885,111.885,0,0,1-18.564,25.646c-2.08,2.127-4.251,4.286-6.613,6.33-2.313,2.1-4.84,4.071-7.433,6.055a106.16,106.16,0,0,1-17.595,10.543q-2.485,1.11-4.97,2.138l-.615.252-.549.208-1.1.41-2.193.8c-2.9,1.031-5.788,1.957-8.582,2.788-5.622,1.672-11.021,2.994-16.13,4.144-10.258,2.262-19.407,3.9-27.328,5.486-7.859,1.6-14.491,3.138-19.149,4.445-1.183.3-2.242.58-3.138.86l-2.33.671-1.979.539s.24-.658.753-1.894c.257-.618.582-1.381.985-2.281s.894-1.92,1.5-3.034a83.642,83.642,0,0,1,12.5-17.588,128.541,128.541,0,0,1,23.848-20.1,173.867,173.867,0,0,1,15.054-8.919c2.631-1.392,5.273-2.713,7.966-3.994l3.986-1.856q1.728-.839,3.5-1.619c4.755-2.243,9.56-4.521,14.32-6.715,2.357-1.157,4.745-2.194,7.058-3.32l6.908-3.208c9.086-4.2,17.5-8.174,24.741-11.711,1.8-.889,3.573-1.724,5.184-2.58s3.257-1.6,4.676-2.4l4.124-2.185,3.464-1.954,1.519-.84,1.3-.781,2.08-1.24Z" fill="#452715"/>
          <path id="Path_1374" data-name="Path 1374" d="M2344.236-4761.384s-.63.624-1.858,1.77-3.043,2.844-5.474,4.875a197.732,197.732,0,0,1-21.56,15.776,296.751,296.751,0,0,1-33.986,18.432q-9.688,4.521-20.157,8.832c-3.49,1.422-7.01,2.854-10.609,4.227-3.565,1.408-7.283,2.763-10.728,4.081-7.035,2.643-13.892,5.151-20.4,7.736l-2.456.93-2.391.979c-1.583.652-3.2,1.24-4.748,1.89-3.078,1.321-6.183,2.52-9.1,3.851-3,1.234-5.793,2.6-8.61,3.859l-1.052.472-1.009.507-2.013,1c-1.324.67-2.708,1.265-3.966,1.954l-3.782,2-1.868.973-1.769,1.025-3.5,1.986c-.591.314-1.137.658-1.673,1l-1.616,1.016-3.181,1.965c-1.027.655-1.965,1.352-2.931,2l-2.823,1.921c-.944.61-1.73,1.3-2.576,1.918l-2.427,1.836c-.783.6-1.581,1.151-2.245,1.753l-3.855,3.246c-1.22.966-2.186,1.913-3.056,2.729s-1.635,1.517-2.241,2.079l-1.912,1.733s.073-.872.274-2.543c.1-.835.235-1.873.411-3.107a36.257,36.257,0,0,1,.777-4.227c.369-1.568.8-3.323,1.315-5.259.231-.985.59-1.94.937-2.961q.545-1.531,1.129-3.18c.417-1.087.786-2.278,1.314-3.4l1.609-3.519c.574-1.2,1.139-2.478,1.8-3.723l2.136-3.777,1.14-1.962c.384-.667.782-1.334,1.223-1.967l2.689-3.951,1.422-2.035c.495-.667,1.018-1.312,1.539-1.977q1.572-1.987,3.25-4.037c1.113-1.376,2.344-2.632,3.565-3.98l1.874-2.007.957-1.012,1-.965c2.68-2.569,5.476-5.243,8.52-7.684,2.993-2.563,6.217-4.9,9.545-7.283,1.668-1.181,3.4-2.26,5.144-3.392l2.644-1.675,2.715-1.571a152.445,152.445,0,0,1,23.369-11c4.18-1.589,8.095-2.832,12.032-4.04,3.933-1.158,7.83-2.233,11.667-3.156,7.671-1.871,15.12-3.305,22.184-4.42,14.141-2.238,26.852-3.351,37.633-4.248,10.776-.873,19.689-1.421,25.934-1.811,3.132-.164,5.568-.336,7.248-.4Z" fill="#452715"/>
          <path id="Path_1375" data-name="Path 1375" d="M2378.1-4713.964s-.638.536-1.889,1.517l-2.344,1.793-1.52,1.127c-.548.388-1.143.772-1.773,1.191-1.261.83-2.68,1.743-4.257,2.727-1.583.948-3.334,1.9-5.237,2.942-1.9,1.069-3.976,2.008-6.2,3.064-2.222,1.075-4.6,2.018-7.129,3.036l-1.922.758-1.974.706-4.107,1.413c-2.8.916-5.738,1.763-8.8,2.6a190.83,190.83,0,0,1-19.547,4.026,252.6,252.6,0,0,1-43.756,2.566c-14.962-.335-28.756-1.569-41.261-2.592l-4.633-.385c-1.53-.139-3.016-.216-4.5-.345-2.985-.279-5.835-.4-8.654-.641l-8.132-.467-3.86-.155-1.889-.092-1.832-.027c-2.417-.026-4.791-.157-6.989-.1-2.208.038-4.371-.05-6.336.067l-5.612.181-4.777.305c-.727.046-1.427.072-2.073.124l-1.807.179-2.883.263-2.431.189s.534-.637,1.6-1.817c.534-.591,1.2-1.317,2.008-2.17l1.314-1.374c.479-.475,1.007-.947,1.565-1.463,1.118-1.024,2.382-2.157,3.8-3.385,1.431-1.184,3.038-2.39,4.787-3.71,1.74-1.359,3.7-2.56,5.782-3.929,2.083-1.392,4.364-2.618,6.783-3.964l1.846-1,1.912-.935,3.994-1.9c1.368-.652,2.777-1.189,4.219-1.793,1.443-.576,2.923-1.2,4.435-1.74,3.02-1.057,6.188-2.192,9.457-3.1,1.634-.464,3.309-.965,5-1.381s3.406-.823,5.152-1.221a177.143,177.143,0,0,1,21.858-3.368,205.944,205.944,0,0,1,23.12-.78,343.618,343.618,0,0,1,42.518,4.069c6.391.961,12.407,1.9,18.086,2.837l8.221,1.3,3.9.593,1.9.3,1.849.254c2.441.333,4.809.736,7.03.986,2.227.269,4.376.626,6.361.81l5.628.648,4.8.455,2.073.209,1.819.129,2.892.232Z" fill="#452715"/>
          <path id="Path_1376" data-name="Path 1376" d="M2374.015-4675.887s-2.282,1.68-6.609,4.333c-1.083.656-2.292,1.4-3.632,2.145-1.341.724-2.807,1.494-4.4,2.3s-3.3,1.643-5.128,2.5c-1.829.841-3.775,1.635-5.833,2.473-2.057.823-4.229,1.686-6.5,2.487q-3.409,1.154-7.126,2.28L2331-4656.26c-1.283.334-2.589.654-3.918.971-2.656.632-5.4,1.238-8.228,1.794a155.949,155.949,0,0,1-36.867,2.342,158.022,158.022,0,0,1-36.223-6.752q-4.088-1.322-7.92-2.724c-1.276-.468-2.531-.932-3.761-1.415l-3.613-1.514q-3.541-1.519-6.788-3.045c-2.16-1.042-4.213-2.117-6.16-3.15s-3.789-2.041-5.513-3.059q-2.584-1.55-4.828-2.984c-1.5-.953-2.874-1.861-4.135-2.711s-2.393-1.707-3.409-2.457c-4.059-3.02-6.2-4.9-6.2-4.9s2.815-.693,7.711-1.572l8.83-1.524c1.7-.276,3.515-.551,5.42-.816s3.929-.6,6.027-.881,4.281-.543,6.547-.811q3.409-.443,7.039-.807l7.46-.691q3.832-.333,7.834-.536a266.86,266.86,0,0,1,34.277-.1,273.429,273.429,0,0,1,33.92,4.225q3.922.663,7.673,1.436l3.7.793,3.588.738q3.537.76,6.864,1.582c2.209.514,4.333.986,6.38,1.5l11.152,2.848c1.661.442,3.219.874,4.662,1.288l3.952,1.06C2371.26-4676.825,2374.015-4675.887,2374.015-4675.887Z" fill="#452715"/>
          <path id="Path_1377" data-name="Path 1377" d="M2378.1-4614.151s-.7.469-2.068,1.315l-2.55,1.543c-1.016.6-2.2,1.3-3.557,1.976q-2.035,1.048-4.57,2.282c-1.69.806-3.561,1.558-5.589,2.4-2.028.869-4.234,1.6-6.6,2.407-2.365.837-4.9,1.516-7.588,2.234l-2.048.535c-.692.166-1.393.308-2.1.462q-2.144.439-4.38.9c-1.5.311-3.026.5-4.595.74-1.564.212-3.176.486-4.8.624a142.24,142.24,0,0,1-20.935.625,155.732,155.732,0,0,1-22.772-2.869,161.2,161.2,0,0,1-23.308-6.64,178.033,178.033,0,0,1-21.729-9.677,213.962,213.962,0,0,1-18.795-11.136,276.115,276.115,0,0,1-29.168-22.368c-7.912-6.909-14.066-12.929-18.287-17.211s-6.474-6.842-6.474-6.842,3.4.167,9.4.873,14.563,2,24.837,4.142c10.273,2.128,22.234,5.15,34.972,8.935s26.246,8.365,39.889,13.354c6.828,2.492,13.384,5.023,19.7,7.392s12.4,4.63,18.247,6.758c5.853,2.046,11.478,3.993,16.852,5.693,1.343.463,2.67.8,3.979,1.219,1.31.384,2.6.837,3.876,1.173l3.765,1.065,1.839.531,1.806.462c9.547,2.527,17.758,4.289,23.567,5.373,1.458.316,2.755.528,3.888.726l2.888.527Z" fill="#452715"/>
          <path id="Path_1378" data-name="Path 1378" d="M2398.024-4645.092s-.676.579-2,1.639l-2.476,1.941-1.6,1.221L2390.07-4639q-2,1.362-4.493,2.988-2.518,1.518-5.541,3.236a136.531,136.531,0,0,1-14.186,6.76,154.82,154.82,0,0,1-39.642,10.054,180.589,180.589,0,0,1-23.968,1.187,185.852,185.852,0,0,1-25.365-2.237,196.923,196.923,0,0,1-24.564-5.5,223.353,223.353,0,0,1-21.98-7.6,265.728,265.728,0,0,1-35.188-17.378c-9.666-5.675-17.221-10.834-22.386-14.556s-7.938-6-7.938-6,3.587-.251,9.938-.334,15.468-.008,26.485.522,23.929,1.493,37.886,2.96c6.98.746,14.223,1.609,21.641,2.58,7.419.988,15.012,2.1,22.715,3.3s15.162,2.5,22.353,3.708l20.759,3.473c13.259,2.091,25.43,3.836,35.945,4.822,5.253.5,10.091.88,14.4,1.15q3.258.182,6.056.339l5.154.17,2.228.095,1.951.022,3.1.063Z" fill="#452715"/>
          <path id="Path_1379" data-name="Path 1379" d="M2129.082-4616.9l-1.581-.689c-1.016-.48-2.584-1.133-4.457-2.173a83.879,83.879,0,0,1-15.117-10.356c-1.522-1.238-2.972-2.662-4.536-4.133-1.539-1.487-3.047-3.12-4.614-4.829-1.484-1.76-3.091-3.564-4.541-5.56-.738-.99-1.5-1.993-2.232-3.038q-1.059-1.594-2.144-3.23a93.641,93.641,0,0,1-7.631-14.614,95.026,95.026,0,0,1-5.228-17.017,94.962,94.962,0,0,1-1.79-17.712,93.678,93.678,0,0,1,1.357-16.431l.722-3.809c.267-1.246.581-2.467.877-3.666.562-2.4,1.341-4.689,2.025-6.887.781-2.183,1.536-4.274,2.377-6.242.87-1.962,1.654-3.837,2.575-5.57a83.934,83.934,0,0,1,9.909-15.413c1.323-1.686,2.515-2.9,3.265-3.733l1.189-1.249-.07,1.731c-.034,1.134-.2,2.751-.253,4.852-.22,4.162-.368,10.108-.258,17.135-.014,1.748.116,3.6.151,5.475.064,1.886.2,3.842.291,5.836.183,2.008.243,4.049.475,6.149l.277,3.174q.172,1.6.349,3.235c.944,8.709,2.436,17.955,4.323,27.509,1.971,9.536,4.186,18.636,6.7,27.028q.474,1.578.935,3.117l.977,3.032c.6,2.026,1.339,3.93,1.95,5.852.694,1.87,1.324,3.728,2,5.491.7,1.746,1.295,3.5,1.986,5.1,2.629,6.519,5.073,11.941,6.892,15.691.869,1.913,1.646,3.341,2.117,4.373Z" fill="#452715"/>
          <path id="Path_1380" data-name="Path 1380" d="M2126.014-4622.288s-2.055-.571-5.6-1.826a141.009,141.009,0,0,1-14.528-6.086,117.205,117.205,0,0,1-19.9-12.162,91.97,91.97,0,0,1-20.286-21.165,80.136,80.136,0,0,1-7.456-13.877,76.057,76.057,0,0,1-4.3-14.116q-.326-1.746-.606-3.444c-.188-1.13-.285-2.278-.411-3.386-.273-2.211-.3-4.415-.366-6.5-.026-1.044.04-2.092.07-3.1.053-1.015.06-1.993.174-2.97l.325-2.843.175-1.362.248-1.334a50.079,50.079,0,0,1,1.114-4.927c.454-1.535.814-2.956,1.35-4.265.5-1.308.958-2.5,1.441-3.581.52-1.076,1.007-2.039,1.451-2.892.226-.425.427-.826.643-1.195l.639-1.023,1.023-1.568c.56-.834.869-1.257.869-1.257l.323,1.508.36,1.786.216,1.117c.087.4.2.822.312,1.266l.708,2.9c.285,1.048.642,2.173.976,3.352.3,1.177.805,2.427,1.22,3.717.4,1.29.981,2.635,1.493,4.016l.394,1.043.462,1.058.917,2.155c.291.728.684,1.46,1.017,2.2.358.741.666,1.494,1.055,2.248.79,1.5,1.49,3.052,2.369,4.6.43.777.807,1.57,1.263,2.356l1.345,2.383c1.867,3.187,3.787,6.482,5.943,9.808q3.2,5,6.708,10.208l14.021,20.452c4.482,6.542,8.637,12.752,12.093,18.168s6.18,10.045,8,13.323S2126.014-4622.288,2126.014-4622.288Z" fill="#452715"/>
          <path id="Path_1381" data-name="Path 1381" d="M2109.7-4625.21l-1.3.123c-.851.068-2.1.16-3.7.192a80.955,80.955,0,0,1-13.37-.793,82.317,82.317,0,0,1-19.006-5.021,74.494,74.494,0,0,1-10.492-5.131,68.715,68.715,0,0,1-10.3-7.37,66.937,66.937,0,0,1-15.494-19.457,60.744,60.744,0,0,1-6.429-19.569,52.357,52.357,0,0,1-.2-13.782c.19-1.607.467-2.858.629-3.69s.285-1.271.285-1.271l.893.962c.586.625,1.371,1.558,2.428,2.7,2.1,2.291,5.094,5.449,8.734,8.916,3.66,3.473,7.916,7.253,12.628,11.151,4.692,3.924,9.773,8.028,15.062,12.583q3.947,3.435,7.706,6.865c2.492,2.293,4.91,4.581,7.246,6.814,4.646,4.495,8.956,8.793,12.618,12.6s6.705,7.075,8.809,9.417c1.048,1.179,1.871,2.107,2.423,2.755Z" fill="#452715"/>
          <ellipse id="Ellipse_75" data-name="Ellipse 75" cx="110.184" cy="64.946" rx="110.184" ry="64.946" transform="translate(2088.731 -4725.053)" fill="#452510"/>
          <path id="Path_1382" data-name="Path 1382" d="M2119.558-4564.954l-.663-2.2-.754-2.69c-.3-1.067-.618-2.3-.911-3.7a129.717,129.717,0,0,1-3.109-24.125c-.147-2.589-.09-5.279-.078-8.112.044-2.826.229-5.755.435-8.8.306-3.021.562-6.188,1.086-9.392.247-1.606.485-3.246.783-4.894l1-4.991a147.352,147.352,0,0,1,6.1-20.721,150.329,150.329,0,0,1,9.843-21.027,150.3,150.3,0,0,1,13.1-19.166,147.459,147.459,0,0,1,14.745-15.783l3.788-3.4c1.268-1.094,2.559-2.133,3.817-3.162,2.493-2.08,5.089-3.91,7.536-5.71,2.521-1.727,4.949-3.375,7.36-4.85,2.434-1.45,4.721-2.866,7.025-4.056a129.719,129.719,0,0,1,22.356-9.586c1.351-.457,2.579-.808,3.649-1.095l2.7-.718,2.233-.548-1.408,1.828c-.465.585-1.039,1.309-1.717,2.164s-1.466,1.81-2.316,2.931c-3.479,4.371-8.329,10.718-13.919,18.44-1.428,1.9-2.808,3.988-4.311,6.063-1.482,2.1-2.96,4.324-4.523,6.561-1.49,2.312-3.121,4.587-4.662,7.039l-2.4,3.66-2.4,3.778c-6.474,10.18-13.094,21.379-19.881,33.183-6.715,11.845-12.994,23.238-18.47,33.988l-2.033,3.989-1.933,3.924c-1.328,2.574-2.459,5.134-3.692,7.593-1.132,2.483-2.3,4.887-3.351,7.23-1.023,2.349-2.123,4.6-3.03,6.795-3.808,8.738-6.809,16.142-8.805,21.36-.533,1.3-.97,2.468-1.346,3.484l-.991,2.579Z" fill="#824722"/>
          <path id="Path_1383" data-name="Path 1383" d="M2286.265-4736.228s-2.025,2.475-5.929,6.625-9.711,9.938-17.116,16.6-16.4,14.191-26.429,22c-5.013,3.9-10.279,7.885-15.706,11.885-5.4,4.017-10.967,8.048-16.511,12.086q-8.226,6.037-15.7,11.914c-2.526,1.941-4.894,3.947-7.3,5.862-2.305,1.989-4.649,3.888-6.811,5.849l-1.657,1.437c-.547.477-1.054.977-1.583,1.458l-3.133,2.869c-1.962,1.954-4.012,3.8-5.8,5.717-3.771,3.74-6.983,7.494-10.009,11.012a134.246,134.246,0,0,0-12.9,18.432l-1.02,1.694c-.312.536-.56,1.049-.818,1.523l-1.3,2.424-1.118,2.03s-.149-.774-.385-2.27l-.411-2.791c-.07-.555-.17-1.16-.223-1.8l-.124-2.045a81.073,81.073,0,0,1,2.327-24.879,103.557,103.557,0,0,1,5.7-16.581c1.22-2.941,2.751-5.8,4.312-8.8.817-1.468,1.693-2.924,2.578-4.415.449-.739.886-1.5,1.363-2.233l1.463-2.194c1.94-2.981,4.136-5.85,6.412-8.781,2.353-2.836,4.792-5.733,7.463-8.467a135.947,135.947,0,0,1,17.712-15.54,194.207,194.207,0,0,1,38.052-21.189,294.121,294.121,0,0,1,32.924-11.676c9.561-2.794,17.476-4.676,23-5.932S2286.265-4736.228,2286.265-4736.228Z" fill="#824722"/>
          <path id="Path_1384" data-name="Path 1384" d="M2338.085-4721.269s-.416.71-1.267,2.056a48.607,48.607,0,0,1-4.066,5.747l-1.553,1.892a25.152,25.152,0,0,1-1.8,2.024c-1.314,1.331-2.755,2.826-4.386,4.342-1.667,1.422-3.469,3.008-5.464,4.553l-3.133,2.282-1.655,1.179c-.561.393-1.14.742-1.724,1.121l-3.621,2.274c-1.245.78-2.528,1.455-3.845,2.2-2.641,1.507-5.4,2.867-8.291,4.283-5.747,2.735-11.977,5.357-18.357,7.8-6.379,2.458-12.959,4.814-19.473,7.193q-2.4.92-4.856,1.806l-4.785,1.857c-.816.291-1.587.63-2.365.963l-2.351.981-2.376.958-2.353,1.064a271.054,271.054,0,0,0-34.882,18.433,258.478,258.478,0,0,0-27.3,19.908c-7.592,6.382-13.581,12.2-17.714,16.376-1.08,1.019-1.915,2-2.714,2.821l-2.006,2.1-1.7,1.738s.113-.826.328-2.4c.123-.787.276-1.761.456-2.911.206-1.144.38-2.506.752-3.962a105.162,105.162,0,0,1,2.94-10.7q.521-1.552,1.075-3.209c.366-1.115.851-2.2,1.3-3.352.953-2.275,1.892-4.762,3.151-7.2a125.974,125.974,0,0,1,22.252-32.158,125.24,125.24,0,0,1,39.806-27.938c1-.442,1.989-.9,2.993-1.309l3.042-1.146,3.032-1.108c1.009-.367,2.016-.73,3.016-1.016,2-.6,4-1.21,5.968-1.748q2.934-.742,5.826-1.424c7.664-1.7,14.9-2.783,21.663-3.628,6.778-.826,13.015-1.454,18.855-2.052,2.879-.33,5.712-.59,8.35-.946,1.325-.173,2.671-.288,3.926-.485l3.728-.54c.609-.09,1.228-.158,1.814-.261l1.736-.315,3.385-.59c2.179-.428,4.207-.923,6.179-1.328,1.913-.486,3.685-1.008,5.374-1.45.856-.206,1.623-.484,2.369-.741l2.152-.728c2.8-.854,4.823-1.845,6.307-2.408Z" fill="#824722"/>
          <path id="Path_1385" data-name="Path 1385" d="M2387.982-4707.726l-1.865,2.014c-.621.651-1.383,1.475-2.319,2.4l-3.29,3.155a158.54,158.54,0,0,1-23.217,17.589,247.838,247.838,0,0,1-38.218,19.256c-14.736,6.031-30.992,11.371-47.638,16.4-16.628,5.043-32.118,9.473-45.8,14.335a261.876,261.876,0,0,0-35.74,15.38c-4.944,2.669-9.381,5.3-13.231,7.784-1.907,1.257-3.682,2.466-5.321,3.6-1.586,1.177-3.1,2.229-4.415,3.235l-3.493,2.724c-1.012.8-1.828,1.526-2.522,2.092l-2.121,1.742.865-2.6c.3-.849.647-1.926,1.135-3.157s1.1-2.631,1.789-4.227c.709-1.582,1.593-3.284,2.55-5.189,1.008-1.858,2.153-3.868,3.455-5.994a118.844,118.844,0,0,1,10.059-13.7,144.6,144.6,0,0,1,33.883-28.567c14.221-8.828,30.958-16.02,48.62-21.372,17.673-5.331,34.494-8.521,49.573-11.2,15.1-2.642,28.589-4.813,39.983-6.994,11.367-2.182,20.668-4.306,27.138-5.992l4.316-1.131,3.172-.878Z" fill="#824722"/>
          <path id="Path_1386" data-name="Path 1386" d="M2400.554-4660.489l-2.221,1.087c-1.463.686-3.622,1.737-6.442,2.92a240.226,240.226,0,0,1-24.248,8.766c-10.341,3.183-22.732,6.314-36.318,9.076s-28.316,5.223-43.474,7.439l-21.915,3.244c-7.066,1.022-13.81,2.167-20.279,3.254q-2.421.429-4.782.847c-1.578.276-3.106.611-4.642.893-3.085.537-6,1.241-8.908,1.806-1.444.3-2.831.658-4.225.966-1.38.333-2.781.588-4.1.952l-3.926.995-1.919.474-1.848.526c-2.436.7-4.835,1.291-7.019,2.02-2.2.706-4.365,1.276-6.29,1.989l-5.509,1.878-4.628,1.739c-.7.264-1.381.5-2,.743l-1.724.715-2.745,1.114-2.312.9,1.337-2.075,1.68-2.5,1.1-1.59c.4-.557.859-1.12,1.333-1.732q1.431-1.827,3.238-4.045c1.23-1.438,2.633-2.934,4.147-4.57,1.5-1.671,3.244-3.245,5.077-5,1.823-1.781,3.884-3.45,6.05-5.262l1.655-1.362,1.74-1.312,3.64-2.685c1.24-.932,2.561-1.744,3.891-2.639,1.34-.868,2.7-1.791,4.118-2.64,2.846-1.663,5.8-3.458,8.943-5.026,1.567-.8,3.156-1.646,4.792-2.412l5-2.279a173.167,173.167,0,0,1,21.8-7.805,193.3,193.3,0,0,1,24.035-5.182,253.825,253.825,0,0,1,46.24-2.185c14.062.533,26.584,1.834,37.133,3.081s19.143,2.519,25.143,3.39l6.939,1.065Z" fill="#824722"/>
          <path id="Path_1387" data-name="Path 1387" d="M2361.957-4616.771l-1.941-.457-2.288-.568-1.428-.366c-.514-.119-1.076-.216-1.655-.336l-3.8-.778c-1.386-.245-2.9-.448-4.474-.71-1.55-.3-3.3-.4-5.043-.623-1.737-.251-3.642-.3-5.552-.464l-1.448-.112-1.5-.04-3.049-.109c-1.019-.059-2.1,0-3.158-.014-1.072.014-2.131-.038-3.236.008-2.212.1-4.427.08-6.745.27-1.154.081-2.3.093-3.481.2s-2.366.2-3.559.289c-4.8.471-9.753.954-14.872,1.716q-7.671,1.105-15.75,2.5c-10.915,1.968-21.6,4-31.742,5.963s-19.654,3.731-27.869,5.107-15.107,2.3-19.927,2.835-7.58.674-7.58.674,1.762-2.119,5.124-5.637a182.343,182.343,0,0,1,14.929-13.948,152.471,152.471,0,0,1,25.021-17.1,119.987,119.987,0,0,1,35.881-12.791,104.456,104.456,0,0,1,20.387-1.479,99.077,99.077,0,0,1,18.981,2.375q2.239.537,4.4,1.1c1.438.373,2.845.865,4.224,1.3,2.76.841,5.383,1.967,7.884,2.99,1.249.519,2.453,1.15,3.631,1.716,1.173.6,2.327,1.119,3.422,1.768s2.151,1.266,3.193,1.879l1.521.922,1.446.995c1.889,1.334,3.674,2.534,5.246,3.9,1.578,1.344,3.073,2.513,4.34,3.833,1.283,1.281,2.461,2.445,3.485,3.58q1.5,1.767,2.664,3.229c.386.489.756.937,1.081,1.384l.876,1.291c.536.8.975,1.478,1.324,2.027C2361.617-4617.356,2361.957-4616.771,2361.957-4616.771Z" fill="#824722"/>
          <path id="Path_1388" data-name="Path 1388" d="M2370.1-4549.517l-1.09-1.7-1.261-2.007-.778-1.252c-.294-.439-.65-.891-1-1.371l-2.275-3.117c-.874-1.1-1.892-2.231-2.893-3.438l-.766-.912c-.274-.3-.58-.594-.872-.9l-1.794-1.839c-1.14-1.28-2.622-2.456-3.98-3.73-.35-.314-.686-.638-1.047-.951l-1.153-.907-2.31-1.854c-.761-.633-1.662-1.184-2.485-1.794l-1.26-.9a14.583,14.583,0,0,0-1.3-.887c-1.83-1.113-3.555-2.348-5.534-3.385q-.713-.411-1.435-.827a16.467,16.467,0,0,0-1.465-.807q-1.518-.754-3.022-1.546c-.252-.13-.5-.27-.754-.394l-.792-.35-1.577-.715-1.568-.738c-.516-.259-1.085-.437-1.623-.666l-3.258-1.344q-1.686-.576-3.355-1.211a136.706,136.706,0,0,0-13.933-3.965c-4.964-1.047-9.906-1.833-14.829-2.438-4.918-.647-9.832-.877-14.64-1.072q-1.8-.033-3.589-.1l-3.539.019-1.754-.008-1.731.061-3.425.08c-4.5.243-8.824.486-12.818.9-8,.781-14.8,1.748-19.559,2.534-1.205.167-2.266.353-3.188.518l-2.365.392-1.988.3s.4-.561,1.2-1.6l1.5-1.913c.6-.757,1.3-1.617,2.141-2.531s1.768-1.951,2.815-3.063c1.057-1.1,2.254-2.223,3.55-3.454,1.285-1.251,2.749-2.452,4.309-3.757,1.55-1.327,3.276-2.592,5.116-3.922a99.381,99.381,0,0,1,12.78-7.74l3.757-1.748,1.946-.875,2.02-.792c1.362-.522,2.753-1.047,4.176-1.557q2.158-.68,4.406-1.34a86.682,86.682,0,0,1,19.532-3.238,85.071,85.071,0,0,1,21.685,1.713,79.388,79.388,0,0,1,20.829,7.894q2.325,1.345,4.563,2.714c1.46.965,2.86,1.993,4.244,2.991.684.514,1.388.98,2.032,1.533l1.923,1.632,1.874,1.628.919.812c.3.279.581.576.87.863q1.72,1.735,3.344,3.447c.552.555,1.05,1.168,1.546,1.771l1.465,1.795a72.615,72.615,0,0,1,5.14,7.225,21.142,21.142,0,0,1,1.082,1.827l1,1.831c.636,1.223,1.311,2.361,1.833,3.584s1.032,2.4,1.508,3.562l.7,1.715c.2.579.381,1.168.564,1.739a53.92,53.92,0,0,1,1.774,6.547q.3,1.564.574,3.039c.083.49.178.963.241,1.44l.13,1.426c.149,1.866.3,3.558.326,5.123-.04,1.589-.1,3.016-.177,4.282-.043.634-.064,1.223-.131,1.782l-.253,1.571c-.163.966-.313,1.772-.439,2.418C2370.257-4550.177,2370.1-4549.517,2370.1-4549.517Z" fill="#824722"/>
          <path id="Path_1389" data-name="Path 1389" d="M2351.393-4509.052l-2.522-6.381-1.362-3.266c-.513-1.175-1.124-2.43-1.717-3.755-.563-1.328-1.33-2.711-2.033-4.156-.678-1.448-1.544-2.931-2.364-4.467-.779-1.544-1.795-3.091-2.7-4.7-.437-.808-.991-1.6-1.491-2.407l-1.534-2.447-1.659-2.455c-.278-.412-.538-.833-.827-1.244l-.893-1.229-1.771-2.491q-.953-1.226-1.88-2.476c-.592-.849-1.3-1.644-1.944-2.473-.665-.819-1.275-1.676-1.995-2.471q-1.041-1.217-2.047-2.468-1.092-1.191-2.149-2.421-4.347-4.832-9.089-9.544-4.824-4.64-9.756-8.862-1.256-1.025-2.472-2.091-1.275-.976-2.515-1.988c-.812-.7-1.683-1.291-2.518-1.936-.844-.628-1.655-1.314-2.517-1.885q-1.274-.9-2.52-1.821l-2.532-1.712-1.25-.864c-.418-.279-.845-.529-1.263-.8l-2.494-1.6-2.482-1.476c-.822-.48-1.624-1.015-2.441-1.433-1.628-.862-3.2-1.841-4.761-2.584-1.555-.784-3.058-1.615-4.522-2.258-1.461-.669-2.862-1.4-4.2-1.934-1.339-.562-2.609-1.143-3.795-1.628l-3.3-1.285-6.439-2.37s.534-.317,1.578-.881c.522-.281,1.174-.625,1.955-1.021l1.268-.632c.456-.215.946-.41,1.467-.631,1.044-.433,2.219-.9,3.527-1.4,1.307-.466,2.745-.885,4.316-1.351,1.575-.5,3.267-.817,5.1-1.207,1.834-.414,3.773-.645,5.846-.9,2.08-.3,4.242-.334,6.543-.439,1.154-.066,2.308,0,3.5.022,1.191.042,2.418.069,3.657.159q1.847.176,3.77.4c.64.078,1.292.144,1.939.245l1.948.346c1.307.248,2.649.484,3.989.794q1.995.505,4.049,1.074c1.381.352,2.723.851,4.1,1.326,1.371.492,2.78.961,4.139,1.58q2.058.886,4.149,1.848,2.038,1.055,4.1,2.184a77.963,77.963,0,0,1,15.6,11.656,77.983,77.983,0,0,1,12.021,15.318q1.179,2.032,2.28,4.048,1.011,2.065,1.946,4.1c.651,1.344,1.152,2.742,1.677,4.1.507,1.368,1.038,2.7,1.422,4.07q.616,2.039,1.169,4.022c.342,1.333.61,2.669.888,3.97l.393,1.939c.116.645.2,1.295.29,1.933q.268,1.917.486,3.76c.12,1.236.176,2.462.246,3.651.052,1.195.143,2.347.1,3.5-.051,2.3-.038,4.464-.285,6.551-.206,2.078-.391,4.022-.762,5.865-.346,1.838-.627,3.537-1.086,5.123-.429,1.582-.814,3.029-1.249,4.347-.465,1.319-.908,2.505-1.317,3.559-.208.527-.392,1.021-.595,1.481l-.6,1.284c-.378.79-.706,1.449-.975,1.978C2351.7-4509.593,2351.393-4509.052,2351.393-4509.052Z" fill="#824722"/>
          <path id="Path_1390" data-name="Path 1390" d="M2310.525-4495.057l-.012-1.765c-.016-1.152.062-2.8.035-4.9,0-4.187-.129-10.1-.784-16.82-.093-.841-.137-1.687-.257-2.552l-.353-2.62-.165-1.326-.234-1.342q-.219-1.331-.446-2.71c-.744-3.633-1.5-7.347-2.617-11.031s-2.365-7.343-3.825-10.957c-1.477-3.616-3.192-7.148-5.088-10.731s-3.951-7.075-6.139-10.5c-2.235-3.4-4.6-6.708-7-9.937a216.455,216.455,0,0,0-14.9-17.266c-4.786-4.99-9.114-9.066-12.157-12l-3.584-3.361-1.262-1.235s.6-.088,1.741-.211,2.834-.3,5.015-.391a81.378,81.378,0,0,1,18.441,1.486,79.514,79.514,0,0,1,26.226,10.326,77.206,77.206,0,0,1,13.56,10.9,69.113,69.113,0,0,1,11.367,15.576,65.562,65.562,0,0,1,6.512,18.446,68.509,68.509,0,0,1,.934,17.91,69.244,69.244,0,0,1-3.123,15.455q-.609,1.728-1.226,3.363l-.621,1.61-.7,1.545-1.386,2.951c-.462.951-1,1.849-1.484,2.729a67.271,67.271,0,0,1-11.36,14.879c-1.542,1.543-2.887,2.625-3.75,3.372C2311-4495.425,2310.525-4495.057,2310.525-4495.057Z" fill="#824722"/>
          <path id="Path_1391" data-name="Path 1391" d="M2287.222-4471.768s-.415-2.5-.907-6.9-1.095-10.662-1.679-18.1c-.282-3.65-.59-7.643-.92-11.925-.373-4.195-.658-8.591-1.09-13.076-.776-9-1.819-18.293-3.1-27.661q-1.013-6.809-2.288-13.282c-.829-4.328-1.908-8.452-2.963-12.469q-.445-1.477-.853-2.959c-.261-1-.625-1.909-.915-2.871-.562-1.94-1.292-3.709-1.916-5.539-.306-.921-.71-1.741-1.046-2.616-.361-.851-.666-1.751-1.05-2.558q-.57-1.237-1.117-2.426l-.542-1.207-.589-1.131c-.8-1.478-1.495-3.034-2.329-4.337l-1.172-2-.57-.974-.6-.893c-.8-1.171-1.535-2.335-2.264-3.373l-2.113-2.78c-.325-.425-.627-.849-.928-1.221l-.874-1.01-1.4-1.634-1.174-1.4s.618-.012,1.81.02c.6.016,1.338.043,2.223.092l1.436.091c.507.052,1.031.143,1.6.228,1.132.178,2.4.4,3.809.67,1.375.32,2.84.761,4.455,1.242l1.231.381c.408.144.808.311,1.225.473l2.573,1.051a52.117,52.117,0,0,1,5.453,2.711c.47.26.958.517,1.431.8l1.394.9q1.408.918,2.88,1.921c.985.665,1.883,1.432,2.855,2.189.942.776,1.969,1.54,2.882,2.41a70.651,70.651,0,0,1,5.566,5.593c.887,1.021,1.853,2.041,2.69,3.148s1.7,2.233,2.558,3.394a78.89,78.89,0,0,1,8.646,15.75,81.459,81.459,0,0,1,5.075,18.643,89.473,89.473,0,0,1,.573,18.728,94.914,94.914,0,0,1-2.8,16.807,108.132,108.132,0,0,1-4.8,14.314,120.9,120.9,0,0,1-5.665,11.688,126.413,126.413,0,0,1-10.276,15.7C2288.927-4473.632,2287.222-4471.768,2287.222-4471.768Z" fill="#824722"/>
          <path id="Path_1392" data-name="Path 1392" d="M2213.629-4626.342s.662-.313,1.975-.87c.657-.268,1.479-.644,2.472-.984.993-.319,2.156-.677,3.5-1.064,1.338-.359,2.843-.628,4.535-.96.844-.156,1.72-.225,2.648-.338.923-.086,1.907-.234,2.907-.258a61.434,61.434,0,0,1,13.854.912,66.566,66.566,0,0,1,16.367,5.342,70.669,70.669,0,0,1,16.856,11.221,75.031,75.031,0,0,1,14.351,17.515,84.244,84.244,0,0,1,9.166,22.138,91.2,91.2,0,0,1,2.695,23.309,93.366,93.366,0,0,1-2.764,21.234,106.7,106.7,0,0,1-13.844,31.887,117.217,117.217,0,0,1-14.145,17.871c-1.871,1.923-3.368,3.363-4.42,4.315l-1.606,1.444.254-2.145c.181-1.381.448-3.417.792-6.036.684-5.189,1.631-12.607,2.426-21.378a236.305,236.305,0,0,0,.847-29.468,156.663,156.663,0,0,0-1.415-16.03,161.729,161.729,0,0,0-3.17-16.278,126.264,126.264,0,0,0-4.946-15.288,87.3,87.3,0,0,0-6.6-13.261,78.427,78.427,0,0,0-17.671-20.041,77.36,77.36,0,0,0-9.305-6.284c-.736-.451-1.474-.777-2.185-1.163-.713-.359-1.405-.757-2.084-1.061-1.359-.586-2.634-1.2-3.808-1.668l-3.191-1.2c-.944-.335-1.757-.549-2.423-.766Z" fill="#824722"/>
          <path id="Path_1393" data-name="Path 1393" d="M2166.072-4638.9s-2.254.83-6.357,1.983c-2.055.6-4.564,1.205-7.482,1.818q-2.19.464-4.682.926-2.481.424-5.238.8a151.182,151.182,0,0,1-25.658,1.348,142.465,142.465,0,0,1-30.538-4.38,140.476,140.476,0,0,1-28.812-11.23,142.727,142.727,0,0,1-21.691-14.026q-2.2-1.73-4.137-3.351-1.922-1.674-3.576-3.2c-2.208-2.022-4.055-3.833-5.507-5.419-2.92-3.123-4.406-5-4.406-5s2.445-.121,6.634-.07l7.551.121c1.454.037,3,.091,4.614.168,1.635.048,3.354.1,5.139.194,7.12.4,15.484.913,24.473,2.1a214.779,214.779,0,0,1,28.705,5.434,210.156,210.156,0,0,1,27.736,9.406c8.445,3.436,16,7.157,22.392,10.431,1.6.826,3.116,1.646,4.557,2.433,1.442.764,2.8,1.508,4.08,2.221,2.551,1.433,4.755,2.736,6.566,3.786C2164.056-4640.27,2166.072-4638.9,2166.072-4638.9Z" fill="#824722"/>
          <path id="Path_1394" data-name="Path 1394" d="M2177.038-4641.681s-2.158,1.405-6.176,3.616c-2.009,1.126-4.491,2.384-7.4,3.746q-2.184,1.028-4.687,2.134c-1.666.715-3.434,1.427-5.3,2.16a179.735,179.735,0,0,1-26.564,8.075,175.967,175.967,0,0,1-33.015,4.064,181.18,181.18,0,0,1-33.049-2.376,204.349,204.349,0,0,1-26.79-6.3c-7.59-2.322-13.693-4.679-17.9-6.444s-6.519-2.934-6.519-2.934,2.378-1.048,6.654-2.6,10.448-3.629,18.029-5.738a260.752,260.752,0,0,1,26.506-5.89,224.507,224.507,0,0,1,32.212-3.151,233.474,233.474,0,0,1,32.2,1.51c9.922,1.065,18.947,2.667,26.585,4.138,1.912.376,3.742.77,5.476,1.144,1.729.355,3.368.712,4.906,1.063,3.079.709,5.755,1.379,7.946,1.9C2174.544-4642.466,2177.038-4641.681,2177.038-4641.681Z" fill="#824722"/>
          <path id="Path_1395" data-name="Path 1395" d="M2150.62-4627.168s-1.4,1.732-4.144,4.582c-1.367,1.448-3.1,3.086-5.165,4.926-1.032.918-2.147,1.894-3.348,2.892q-1.809,1.458-3.865,3.017a122.656,122.656,0,0,1-20.246,12.385,115.482,115.482,0,0,1-26.949,9.145,112.451,112.451,0,0,1-28.568,1.837,109.254,109.254,0,0,1-23.693-4.181q-2.507-.746-4.735-1.493c-1.492-.534-2.892-1.1-4.187-1.625a63.1,63.1,0,0,1-6.546-3.008c-3.525-1.876-5.362-3.1-5.362-3.1s2.079-.985,5.632-2.436c1.769-.681,3.922-1.655,6.369-2.673l3.88-1.575q2.055-.891,4.306-1.8c5.985-2.376,12.98-5.229,20.692-7.79a192.168,192.168,0,0,1,25.267-6.911,183.037,183.037,0,0,1,26.162-3.277c8.225-.531,15.889-.468,22.442-.333,1.641.042,3.219.1,4.724.181,1.5.054,2.912.11,4.252.184,2.679.146,5.039.343,6.961.461C2148.364-4627.48,2150.62-4627.168,2150.62-4627.168Z" fill="#824722"/>
          <path id="Path_1396" data-name="Path 1396" d="M2119.244-4617.429l-1.184,1.057c-.768.7-1.917,1.607-3.319,2.878-2.833,2.442-6.74,6-11.1,10.223-2.186,2.1-4.457,4.441-6.815,6.853-2.322,2.479-4.751,5.007-7.161,7.7-4.865,5.347-9.755,11.075-14.883,16.921-5.067,5.9-10.052,11.544-14.662,17.112-2.332,2.764-4.494,5.524-6.622,8.171-2.057,2.674-4.053,5.251-5.828,7.711-3.571,4.906-6.543,9.274-8.564,12.421-1.06,1.567-1.8,2.833-2.383,3.691l-.88,1.321s-.234-.492-.638-1.443c-.382-.949-1.019-2.37-1.6-4.225a64.167,64.167,0,0,1-3.07-16.293,72.4,72.4,0,0,1,.227-11.56,74.692,74.692,0,0,1,2.578-13.107,72.689,72.689,0,0,1,5.6-13.771,73.2,73.2,0,0,1,9.073-13.262,73.244,73.244,0,0,1,11.856-10.846,72.709,72.709,0,0,1,12.848-7.482,74.631,74.631,0,0,1,12.614-4.394,72.409,72.409,0,0,1,11.414-1.848,64.2,64.2,0,0,1,16.563.751c1.918.312,3.414.743,4.408.988C2118.725-4617.592,2119.244-4617.429,2119.244-4617.429Z" fill="#824722"/>
          <path id="Path_1397" data-name="Path 1397" d="M2154.247-4653.383s-1.625,2.525-4.738,6.819-7.712,10.354-13.4,17.492c-2.851,3.564-5.926,7.428-9.216,11.467-1.594,2.054-3.332,4.092-5,6.241l-2.586,3.215-2.593,3.295c-7.009,8.849-14.109,18.326-20.841,28.273-3.218,4.869-6.181,9.753-8.911,14.608q-.972,1.841-1.984,3.64l-1.83,3.638c-.3.6-.639,1.2-.913,1.8l-.823,1.809-.84,1.793c-.286.6-.578,1.186-.806,1.786q-.734,1.791-1.5,3.551c-.272.586-.494,1.174-.7,1.761l-.655,1.751c-.96,2.324-1.621,4.62-2.4,6.876l-.287.844-.226.839-.46,1.667c-.293,1.1-.667,2.206-.909,3.285l-.719,3.2-.369,1.577c-.115.521-.173,1.031-.264,1.542q-.263,1.549-.513,3.025c-.078.5-.193,1-.242,1.478l-.146,1.434-.3,2.8-.15,1.36-.047,1.3c-.054,1.716-.163,3.371-.189,4.9l.119,4.2c.02.642.016,1.264.052,1.836l.16,1.591.241,2.554.182,2.167s-.54-.5-1.548-1.5c-.5-.5-1.127-1.127-1.859-1.887l-1.18-1.242c-.4-.457-.779-.967-1.2-1.5-.84-1.078-1.771-2.3-2.781-3.681-.934-1.4-1.851-2.985-2.872-4.718l-.767-1.333-.677-1.414-1.388-3.018-.713-1.6c-.237-.545-.409-1.106-.618-1.674l-1.211-3.539c-.2-.611-.423-1.232-.593-1.863l-.48-1.922q-.479-1.953-.947-4.027c-.3-1.381-.465-2.788-.693-4.24l-.31-2.2-.149-1.123-.084-1.125a84.49,84.49,0,0,1-.29-9.416l.067-2.455c.018-.828.057-1.659.15-2.481q.233-2.481.521-5.045c.08-.86.23-1.7.381-2.552l.46-2.571.493-2.6c.173-.872.416-1.722.629-2.592.452-1.729.892-3.494,1.421-5.245q.855-2.6,1.785-5.237a101.694,101.694,0,0,1,10.454-20.537,116.377,116.377,0,0,1,14.266-17.2,127.86,127.86,0,0,1,15.518-13.119l3.876-2.716c1.294-.855,2.581-1.677,3.85-2.483,2.527-1.636,5.066-3.038,7.5-4.436,4.912-2.685,9.569-4.972,13.892-6.874a205.341,205.341,0,0,1,20.941-7.917C2151.336-4652.662,2154.247-4653.383,2154.247-4653.383Z" fill="#824722"/>
          <path id="Path_1398" data-name="Path 1398" d="M2100.049-4485.475s-.441-.466-1.244-1.382c-.782-.924-2.02-2.272-3.381-4.128a87.118,87.118,0,0,1-9.989-16.908c-.906-1.9-1.664-3.93-2.5-6.068-.807-2.141-1.517-4.407-2.242-6.777-.628-2.376-1.341-4.857-1.823-7.445-.255-1.294-.526-2.612-.747-3.954q-.3-2.014-.572-4.1a97.4,97.4,0,0,1-.539-17.574,98.259,98.259,0,0,1,2.974-18.737,98.324,98.324,0,0,1,6.684-17.756,97.486,97.486,0,0,1,9.163-15.005q1.265-1.677,2.523-3.278c.856-1.057,1.743-2.069,2.606-3.067,1.7-2.011,3.546-3.814,5.267-5.569,1.8-1.7,3.54-3.319,5.3-4.78,1.784-1.445,3.449-2.838,5.174-4.037a87.163,87.163,0,0,1,17.045-9.753c2.1-.939,3.844-1.5,4.98-1.915,1.152-.4,1.766-.586,1.766-.586l-.743,1.715c-.477,1.126-1.261,2.686-2.144,4.759-1.847,4.066-4.337,9.907-7.052,16.832-.713,1.706-1.336,3.562-2.062,5.406-.7,1.862-1.366,3.819-2.1,5.783-.65,2.019-1.428,4.011-2.08,6.128l-1.056,3.16-1.025,3.24c-2.769,8.715-5.368,18.06-7.989,27.791-2.536,9.753-4.9,19.161-6.805,28.1q-.36,1.683-.712,3.324l-.645,3.269c-.48,2.162-.79,4.278-1.224,6.354-.337,2.068-.727,4.1-1.038,6.063-.282,1.962-.658,3.884-.883,5.719-1.066,7.361-1.791,13.669-2.2,18.116-.257,2.239-.348,3.982-.491,5.2Z" fill="#824722"/>
          <path id="Path_1399" data-name="Path 1399" d="M2155.908-4635.149l-.844,1.813-1.033,2.141-.66,1.34-.7,1.557-1.646,3.574-1.809,4.245c-1.258,3.028-2.6,6.444-3.942,10.168-.676,1.859-1.3,3.836-2,5.82l-.951,3.089-.5,1.562-.452,1.61-.942,3.256-.868,3.364-.453,1.695-.4,1.737c-.259,1.164-.58,2.312-.826,3.5-1.058,4.721-1.949,9.631-2.771,14.651l-.586,3.794q-.223,1.918-.505,3.845c-.291,2.606-.62,5.093-.9,8.006-.588,5.652-1.238,11.2-1.757,16.58-.538,5.376-1.1,10.6-1.5,15.589-.261,2.511-.386,4.935-.594,7.331-.126,1.206-.138,2.361-.223,3.527-.062,1.158-.166,2.318-.217,3.445-.187,4.5-.356,8.776-.312,12.7.035,1.953-.016,3.883.112,5.648l.112,2.632.051,1.274.111,1.21.388,4.533.521,3.841.217,1.683.28,1.445.434,2.322.347,1.974s-.564-.375-1.623-1.142c-.529-.384-1.183-.867-1.954-1.457l-1.245-.965-1.306-1.187c-.921-.849-1.944-1.816-3.058-2.908-1.046-1.119-2.138-2.378-3.324-3.76l-.9-1.064-.852-1.132-1.762-2.417c-1.252-1.67-2.339-3.513-3.533-5.476a96.3,96.3,0,0,1-6.539-13.407c-.5-1.244-.931-2.518-1.4-3.82-.442-1.3-.949-2.635-1.323-3.989-.792-2.711-1.614-5.535-2.218-8.442a115.823,115.823,0,0,1-2.611-18.433,116.22,116.22,0,0,1,.433-19.9,100.807,100.807,0,0,1,1.637-10.364q.594-2.561,1.234-5.065c.476-1.656,1-3.283,1.511-4.891a96.89,96.89,0,0,1,7.985-17.629c.757-1.334,1.6-2.6,2.4-3.863l1.207-1.861,1.276-1.782c.854-1.17,1.691-2.318,2.543-3.425l2.641-3.174c.438-.513.864-1.024,1.306-1.517l1.352-1.438,2.647-2.743c1.825-1.715,3.552-3.345,5.3-4.8a90.086,90.086,0,0,1,9.852-7.155q2.3-1.391,4.273-2.507,2.042-1.052,3.723-1.861l1.583-.753,1.436-.6,2.254-.889C2155.26-4634.928,2155.908-4635.149,2155.908-4635.149Z" fill="#824722"/>
          <ellipse id="Ellipse_76" data-name="Ellipse 76" cx="85.228" cy="93.372" rx="85.228" ry="93.372" transform="translate(2113.686 -4640.812)" fill="#81441d"/>
          <ellipse id="Ellipse_77" data-name="Ellipse 77" cx="39.433" cy="39.812" rx="39.433" ry="39.812" transform="translate(2159.482 -4524.846)" fill="#f5e4c4"/>
          <g id="Group_151" data-name="Group 151">
            <path id="Path_1400" data-name="Path 1400" d="M2198.915-4479.547c-17.406,0-18.9,9.176-31.934,12.733v.023s14.271,13.059,31.934,13.059,31.934-13.059,31.934-13.059v-.023C2217.819-4470.371,2216.32-4479.547,2198.915-4479.547Z" fill="#433219"/>
            <path id="Path_1401" data-name="Path 1401" d="M2206.728-4464.023c-2.351-.979-5.005,1.56-7.813,1.56s-5.462-2.539-7.813-1.56a16.867,16.867,0,0,0-6.78,5.022,27.794,27.794,0,0,0,14.593,3.848,27.792,27.792,0,0,0,14.592-3.848A16.864,16.864,0,0,0,2206.728-4464.023Z" fill="#cc2128"/>
          </g>
          <g id="Group_152" data-name="Group 152">
            <path id="Path_1402" data-name="Path 1402" d="M2198.915-4474.453c-15.718,0-17.071,7.871-28.838,10.922v.019c9.827-1.283,12.888-2.6,28.838-2.6s19.011,1.316,28.838,2.6v-.019C2215.986-4466.582,2214.632-4474.453,2198.915-4474.453Z" fill="#433219"/>
          </g>
          <path id="Path_1403" data-name="Path 1403" d="M2249.641-4511.223q1.444.074,2.908.074a57.53,57.53,0,0,0,57.522-58.424c-.457-30.032-26.19-55.954-56.218-56.619a57.331,57.331,0,0,0-42.8,17.69,16.9,16.9,0,0,1-24.272-.021q-1.836-1.909-3.883-3.687a57.659,57.659,0,0,0-75.295.057,57.536,57.536,0,0,0-1.763,85.353,57.426,57.426,0,0,0,42.4,15.491" fill="#f5e4c4"/>
          <g id="Group_153" data-name="Group 153">
            <path id="Path_1404" data-name="Path 1404" d="M2296.1-4587.27l-2.726-1.758c-1.748-1.1-4.3-2.6-7.465-4.189a65.408,65.408,0,0,0-11.243-4.334c-1.045-.336-2.15-.525-3.242-.794-1.1-.252-2.231-.39-3.355-.595a44.141,44.141,0,0,0-6.884-.378,36.364,36.364,0,0,0-13.078,2.7,37.91,37.91,0,0,0-10.077,6.306,44.255,44.255,0,0,0-6.3,6.814c-1.52,1.987-2.5,3.525-3,4.244a36.44,36.44,0,0,1-6.194,6.988c-2.028,1.662-4,2.5-5.524,1.838-1.5-.644-2.242-2.716-2.008-5.617a21.281,21.281,0,0,1,3.994-10.087,42.261,42.261,0,0,1,4.136-4.861,50.625,50.625,0,0,1,8.9-7.387,45.908,45.908,0,0,1,13.578-5.991,42.956,42.956,0,0,1,15.911-.9,49.145,49.145,0,0,1,7.593,1.593,57.978,57.978,0,0,1,6.846,2.58,67.5,67.5,0,0,1,10.9,6.277c2.953,2.113,5.255,4.01,6.819,5.378Z" fill="#824722"/>
            <path id="Path_1405" data-name="Path 1405" d="M2101.73-4587.27l2.725-1.758c1.748-1.1,4.3-2.6,7.466-4.189a65.422,65.422,0,0,1,11.242-4.334c1.046-.336,2.151-.525,3.243-.794,1.1-.252,2.231-.39,3.354-.595a44.152,44.152,0,0,1,6.885-.378,36.363,36.363,0,0,1,13.078,2.7,37.89,37.89,0,0,1,10.076,6.306,44.218,44.218,0,0,1,6.3,6.814c1.519,1.987,2.5,3.525,3,4.244a36.407,36.407,0,0,0,6.194,6.988c2.028,1.662,4,2.5,5.524,1.838,1.495-.644,2.242-2.716,2.007-5.617a21.27,21.27,0,0,0-3.993-10.087,42.366,42.366,0,0,0-4.136-4.861,50.655,50.655,0,0,0-8.9-7.387,45.884,45.884,0,0,0-13.578-5.991,42.953,42.953,0,0,0-15.911-.9,49.151,49.151,0,0,0-7.592,1.593,57.9,57.9,0,0,0-6.846,2.58,67.491,67.491,0,0,0-10.9,6.277c-2.953,2.113-5.255,4.01-6.819,5.378Z" fill="#824722"/>
            <path id="Path_1406" data-name="Path 1406" d="M2232.956-4549.069a4.18,4.18,0,0,1-.862-.09,4.186,4.186,0,0,1-3.241-4.956,25.728,25.728,0,0,1,20.933-20.2,25.732,25.732,0,0,1,26.481,12.047,4.188,4.188,0,0,1-1.4,5.755,4.189,4.189,0,0,1-5.755-1.4,17.4,17.4,0,0,0-17.907-8.147,17.4,17.4,0,0,0-14.155,13.663A4.19,4.19,0,0,1,2232.956-4549.069Z" fill="#351c0d"/>
          </g>
          <g id="Group_156" data-name="Group 156">
            <g id="Group_154" data-name="Group 154">
              <circle id="Ellipse_78" data-name="Ellipse 78" cx="24.013" cy="24.013" r="24.013" transform="translate(2121.268 -4592.69)" fill="#351c0d"/>
              <circle id="Ellipse_79" data-name="Ellipse 79" cx="20.263" cy="20.263" r="20.263" transform="translate(2125.018 -4588.94)" fill="#573512"/>
              <circle id="Ellipse_80" data-name="Ellipse 80" cx="7.299" cy="7.299" r="7.299" transform="translate(2137.981 -4575.977)" fill="#351c0d"/>
              <ellipse id="Ellipse_81" data-name="Ellipse 81" cx="8.695" cy="14.66" rx="8.695" ry="14.66" transform="translate(2136.911 -4581.041) rotate(-45)" fill="#fff"/>
              <ellipse id="Ellipse_82" data-name="Ellipse 82" cx="3.478" cy="5.864" rx="3.478" ry="5.864" transform="translate(2127.458 -4557.183) rotate(-45)" fill="#fff"/>
            </g>
            <g id="Group_155" data-name="Group 155">
              <path id="Path_1407" data-name="Path 1407" d="M2147.979-4549.121a131.625,131.625,0,0,0-23.871,1.632,29.283,29.283,0,0,0,21.173,9.026,29.306,29.306,0,0,0,22.581-10.593C2161.246-4548.9,2154.595-4549.093,2147.979-4549.121Z" fill="#f5e4c4"/>
            </g>
          </g>
          <path id="Path_1408" data-name="Path 1408" d="M2141.659-4516.412a2.611,2.611,0,0,1,2.56,3.716s-13.714,27.672-12.772,30.376c2.588,7.433,8.675,20.746,32.448,18.036,15.563-1.774,17.468-12.039,35.02-12.039s19.456,10.265,35.019,12.039c23.773,2.71,29.861-10.6,32.449-18.036.941-2.7-12.818-30.469-12.818-30.469a2.61,2.61,0,0,1,2.557-3.716" fill="#f5e4c4"/>
          <path id="Path_1409" data-name="Path 1409" d="M2212.093-4507.388v10.325S2218.23-4500.734,2212.093-4507.388Z" fill="#433219"/>
          <path id="Path_1410" data-name="Path 1410" d="M2185.737-4507.388v10.325S2179.6-4500.734,2185.737-4507.388Z" fill="#433219"/>
          <g id="Group_161" data-name="Group 161">
            <g id="Group_158" data-name="Group 158">
              <g id="Group_157" data-name="Group 157">
                <path id="Path_1411" data-name="Path 1411" d="M2187.212-3888.886a106.553,106.553,0,0,1-56.562,5.123,14.6,14.6,0,0,0-15.752,7.724l-3.825,7.62a16.334,16.334,0,0,0,15.562,23.612c.119-.006.24-.012.361-.016a84.089,84.089,0,0,0,25.185-5.384c11.746-4.249,20.23,0,29.664-7.656,6.863-5.565,12.095-15.566,13.234-25.077A5.772,5.772,0,0,0,2187.212-3888.886Z" fill="#f5e4c4"/>
                <path id="Path_1412" data-name="Path 1412" d="M2084.773-3834.579l.294-2.355.183-1.5.405-2.274.4-2.275c.123-.761.335-1.5.5-2.248.363-1.488.636-3.007,1.1-4.458q.221-.759.4-1.527a84.766,84.766,0,0,1,6.1-17.006,63.54,63.54,0,0,1,9.68-14.612,9.406,9.406,0,0,1,.859-1.021l.894-.986,1.787-2a8.852,8.852,0,0,0,2.217-3.294,15.718,15.718,0,0,0,1.025-4.039,15.231,15.231,0,0,0-1.864-9.024h0a10.843,10.843,0,0,0-7.537-5.368,11.349,11.349,0,0,0-5.093.151,16.247,16.247,0,0,0-5.059,2.368l-3.009,2.434-1.5,1.232a18.2,18.2,0,0,0-1.458,1.277,90.314,90.314,0,0,0-15.293,19.492,113.228,113.228,0,0,0-9.969,22.135q-.321.989-.607,1.992c-.6,1.927-.979,3.89-1.445,5.84-.212.978-.473,1.949-.64,2.933l-.523,2.95-.515,2.952-.246,1.939-.378,3.044q-.09.732-.113,1.452c.006.481.034.958.083,1.427a14.9,14.9,0,0,0,.535,2.711,13.425,13.425,0,0,0,.992,2.453,13.159,13.159,0,0,0,1.487,2.126,11.442,11.442,0,0,0,8.835,4.059h4.212a14.119,14.119,0,0,0,9.02-3.339,12.438,12.438,0,0,0,1.58-1.612,11.972,11.972,0,0,0,1.3-1.828,10.108,10.108,0,0,0,.887-2.018,9.425,9.425,0,0,0,.269-1.075A9.7,9.7,0,0,0,2084.773-3834.579Z" fill="#f3e1c3"/>
                <path id="Path_1413" data-name="Path 1413" d="M2112.391-3824.707q-.063-2.056-.069-4.095c-.046-3.4-.018-6.771.058-10.119.014-.436.013-.873,0-1.308-.186-5.065-.173-10.06.028-14.957a114.864,114.864,0,0,1,1.373-14.2c.173-1.046.288-2.155.5-3.162l.623-3.041a10.761,10.761,0,0,0,.3-2.2,12.469,12.469,0,0,0-.179-2.236,15.236,15.236,0,0,0-1.46-4.4,21.04,21.04,0,0,0-6.835-8.123h0a11.683,11.683,0,0,0-10.844-1.347,15.277,15.277,0,0,0-5.2,3.408,15.855,15.855,0,0,0-2.057,2.573,17.368,17.368,0,0,0-1.623,3.044l-1.587,4.25c-.526,1.424-.907,2.81-1.362,4.224a145.013,145.013,0,0,0-3.894,17.764q-1.4,8.772-2.086,17.384c-.042.495-.071.993-.086,1.49-.087,3.8-.116,7.581-.066,11.332q.008,2.265.075,4.508a14.937,14.937,0,0,0,4.7,10.638,14.3,14.3,0,0,0,10.632,3.835l4.906-.278a15.106,15.106,0,0,0,10.191-4.788A14.447,14.447,0,0,0,2112.391-3824.707Z" fill="#f3e1c3"/>
                <path id="Path_1414" data-name="Path 1414" d="M2143.53-3815.572l-.5-3.992c-.173-1.554-.288-3.151-.439-4.724s-.2-3.207-.307-4.807q-.036-.63-.117-1.257c-.509-4.888-.956-9.847-1.14-14.851-.146-2.5-.156-5-.226-7.513l-.005-3.754c-.007-1.255,0-2.506.043-3.747l.053-3.8.14-3.763a14.056,14.056,0,0,0-.8-5.422,15.657,15.657,0,0,0-2.649-4.737,18.281,18.281,0,0,0-9.622-6.224h0a13.958,13.958,0,0,0-11.449,2.011,16.145,16.145,0,0,0-4.294,4.394,17.291,17.291,0,0,0-2.429,5.986l-.82,4.342-.716,4.328c-.227,1.426-.418,2.847-.592,4.267l-.535,4.268c-.286,2.846-.627,5.695-.827,8.555-.508,5.712-.733,11.477-.857,17.3,0,.5.014,1.01.042,1.515.126,1.939.189,3.854.373,5.812s.328,3.9.547,5.869l.65,5.154a18.99,18.99,0,0,0,2.394,6.769,17.189,17.189,0,0,0,4.584,4.992,13.3,13.3,0,0,0,12.15,1.858l5-1.64a20.114,20.114,0,0,0,9.591-7.031,14.7,14.7,0,0,0,2.394-4.8A12.187,12.187,0,0,0,2143.53-3815.572Z" fill="#f3e1c3"/>
                <path id="Path_1415" data-name="Path 1415" d="M2170.651-3826.608c-.633-1.228-1.2-2.409-1.78-3.6l-1.124-2.56-.94-2.484c-.08-.216-.192-.427-.275-.629a46.8,46.8,0,0,1-4.517-15.343c-.122-2.3-.3-4.617-.206-7.078a16.638,16.638,0,0,0-.251-2.738,13.609,13.609,0,0,0-.7-2.7,15.948,15.948,0,0,0-1.239-2.584,17.034,17.034,0,0,0-1.6-2.442,18.578,18.578,0,0,0-10.34-6.62h0a15.4,15.4,0,0,0-12.149,2.2,16.875,16.875,0,0,0-2.521,2.057,17.826,17.826,0,0,0-2.054,2.657,19.685,19.685,0,0,0-1.609,3.131,17.253,17.253,0,0,0-.957,3.61c-.62,3.3-.951,6.8-1.267,10.295l-.2,3.414c-.044,1.147-.161,2.272-.119,3.449l.05,3.514c.018.588.009,1.173.053,1.765l.145,1.78.321,3.573c.161,1.186.356,2.373.544,3.564.328,2.4.939,4.7,1.465,7.055a8.6,8.6,0,0,0,.363,1.169c.543,1.452,1.083,2.922,1.653,4.35l1.812,4.134c.845,1.766,1.707,3.534,2.577,5.218a16.885,16.885,0,0,0,10.577,8.755,16.8,16.8,0,0,0,12.772-1.778l4.844-2.841a16.78,16.78,0,0,0,7.771-10.284A16.822,16.822,0,0,0,2170.651-3826.608Z" fill="#f3e1c3"/>
              </g>
              <path id="Path_1416" data-name="Path 1416" d="M2057.718-3873.524l1.958-2.677a79.383,79.383,0,0,0,4.406-6.9c1.632-2.823,3.278-6.095,4.981-9.612.855-1.743,1.748-3.562,2.67-5.443.935-1.865,1.928-3.774,2.994-5.735,2.148-3.9,4.458-7.609,6.745-11.086s4.533-6.708,6.531-9.522l4.928-6.912,1.443-1.986.534-.706.375.8c.236.525.581,1.306.943,2.321a42.915,42.915,0,0,1,2.156,8.79,47.867,47.867,0,0,1,0,13.2,44.553,44.553,0,0,1-5.026,15.348,40.951,40.951,0,0,1-4.867,7.032,40.25,40.25,0,0,1-5.847,5.621,39.518,39.518,0,0,1-6.246,4.036,36.015,36.015,0,0,1-6.044,2.438,29.673,29.673,0,0,1-9.245,1.308,22.435,22.435,0,0,1-2.523-.195C2058.016-3873.471,2057.718-3873.524,2057.718-3873.524Z" fill="#854820"/>
              <path id="Path_1417" data-name="Path 1417" d="M2096.868-3866.186s-.241-.126-.684-.4a15.193,15.193,0,0,1-1.863-1.31,24.211,24.211,0,0,1-5.454-6.329,34.5,34.5,0,0,1-4.33-11.264,37.238,37.238,0,0,1-.082-14.061,38.553,38.553,0,0,1,5.009-12.83,41.093,41.093,0,0,1,7.332-8.9,34.734,34.734,0,0,1,6.516-4.743c.841-.475,1.537-.8,2.011-1.006l.73-.308.044.794.09,2.185c.072,1.792.174,4.354.3,7.455.191,6.044.31,13.665-1.137,21.308-1.466,7.653-4.2,14.177-5.993,19.62a62.225,62.225,0,0,0-1.934,6.882c-.212.9-.315,1.611-.409,2.117Z" fill="#854820"/>
              <path id="Path_1418" data-name="Path 1418" d="M2124.567-3863.4a28.256,28.256,0,0,1-3.009-.842c-.48-.157-1.012-.342-1.592-.557a13.269,13.269,0,0,1-1.831-.79c-1.259-.641-2.694-1.432-4.238-2.417a44.908,44.908,0,0,1-4.558-3.819c-.731-.778-1.473-1.61-2.217-2.5-.365-.446-.764-.891-1.1-1.376s-.661-.986-.988-1.5a33.4,33.4,0,0,1-5.283-14.727,35.249,35.249,0,0,1,1.6-15.126c.179-.551.346-1.1.547-1.623l.641-1.539c.441-1,.859-1.972,1.345-2.874a41.183,41.183,0,0,1,3-4.836c.514-.706,1.017-1.366,1.5-1.98s1-1.167,1.471-1.684a33.752,33.752,0,0,1,2.544-2.552c1.488-1.338,2.406-2,2.406-2s.332,1.12.76,3.015c.21.936.467,2.074.761,3.383.268,1.269.57,2.7.9,4.276.274,1.541.682,3.194.966,4.9q.25,1.265.515,2.6l.225,1.33.266,1.34c.6,3.609,1.258,7.275,1.678,10.985s.553,7.231.877,10.615l.062,1.287c.021.428.1.829.133,1.246.089.827.156,1.658.208,2.488.18,1.621.417,3.176.548,4.716.261,1.461.489,2.863.675,4.158a17.651,17.651,0,0,0,.327,1.791l.312,1.538C2124.394-3864.573,2124.567-3863.4,2124.567-3863.4Z" fill="#854820"/>
              <path id="Path_1419" data-name="Path 1419" d="M2141.263-3866.186a20.442,20.442,0,0,1-2.692.017,17.506,17.506,0,0,1-3.1-.376c-.59-.119-1.221-.262-1.889-.434l-1.029-.281-1.027-.372a26.264,26.264,0,0,1-4.431-2.077c-.749-.443-1.529-.919-2.293-1.45q-1.1-.819-2.208-1.765a28.094,28.094,0,0,1-7.3-9.8,28.569,28.569,0,0,1-2.437-11.771,23.427,23.427,0,0,1,.133-2.747c.091-.894.177-1.75.337-2.589a31.3,31.3,0,0,1,1.194-4.611,27.17,27.17,0,0,1,1.541-3.7,23.612,23.612,0,0,1,1.529-2.683,22.529,22.529,0,0,1,1.6-2.172s.687.763,1.72,2.034l4.139,5.036c.774,1.008,1.7,2.075,2.522,3.2.42.562.888,1.13,1.311,1.717l1.283,1.789a48.764,48.764,0,0,1,4.552,7.841,49.886,49.886,0,0,1,2.747,8.423c.175.686.327,1.381.461,2.081.159.673.318,1.333.452,2.007.245,1.376.565,2.609.8,3.866l.179.928.208.86.379,1.653c.219,1.089.473,2,.681,2.789C2141.039-3867.2,2141.263-3866.186,2141.263-3866.186Z" fill="#854820"/>
              <path id="Path_1420" data-name="Path 1420" d="M2163.183-3871.44a28.206,28.206,0,0,1-2.936.3,25.953,25.953,0,0,1-3.423.028c-1.31-.089-2.815-.229-4.459-.506a42.264,42.264,0,0,1-5.223-1.42,33.146,33.146,0,0,1-5.637-2.664,30.876,30.876,0,0,1-10.452-9.964,29.947,29.947,0,0,1-4.765-14.012,28.457,28.457,0,0,1,1.557-12.031c.3-.812.571-1.569.9-2.269.353-.7.7-1.346,1.036-1.936s.66-1.126.966-1.608c.334-.48.673-.905.971-1.282a23.735,23.735,0,0,1,1.97-2.221s.538,1,1.33,2.607l.644,1.308q.389.693.841,1.495l.891,1.629c.326.562.715,1.139,1.07,1.727,1.386,2.366,3.213,4.838,4.975,7.312,1.749,2.5,3.7,4.963,5.476,7.741,1.8,2.763,3.346,5.673,4.964,8.511.726,1.482,1.592,2.822,2.288,4.261.751,1.385,1.512,2.7,2.165,4.016.709,1.248,1.371,2.429,1.944,3.531.561,1.12,1.133,2.007,1.557,2.827C2162.706-3872.452,2163.183-3871.44,2163.183-3871.44Z" fill="#854820"/>
              <path id="Path_1421" data-name="Path 1421" d="M2181.908-3888.934a23.684,23.684,0,0,1-2.151,1.767,22.609,22.609,0,0,1-2.707,1.78,42.109,42.109,0,0,1-3.848,1.817,39.038,39.038,0,0,1-4.962,1.352c-.91.135-1.863.249-2.853.335-.495.043-1,.08-1.513.107-.507-.006-1.022-.019-1.545-.042a27.574,27.574,0,0,1-13.044-3.695,28.393,28.393,0,0,1-5.628-4.268c-.792-.827-1.539-1.666-2.238-2.506a27.174,27.174,0,0,1-1.847-2.631c-.28-.441-.551-.878-.807-1.313q-.354-.684-.675-1.354c-.421-.9-.827-1.758-1.143-2.632a28.579,28.579,0,0,1-1.32-4.99c-.129-.782-.229-1.524-.3-2.224s-.071-1.4-.081-2.023a20.456,20.456,0,0,1,.17-3.236,22.709,22.709,0,0,1,.5-2.755s.964.459,2.46,1.253c.725.406,1.666.848,2.679,1.35.51.248,1.018.524,1.578.789l1.747.808c1.144.589,2.486,1.1,3.728,1.713l1.973.856.97.457,1.012.42c.679.277,1.3.627,1.977.906s1.333.6,1.97.938c1.343.587,2.6,1.319,3.906,2.025.321.187.63.391.939.592.322.173.638.357.947.549.628.365,1.193.853,1.816,1.205.608.385,1.2.8,1.777,1.254.594.4,1.192.8,1.771,1.234l.866.667.883.6c.584.409,1.161.837,1.729,1.275,1.155.8,2.292,1.572,3.369,2.384,1.093.7,2.13,1.4,3.075,2.056.946.674,1.8,1.142,2.519,1.629C2181.041-3889.557,2181.908-3888.934,2181.908-3888.934Z" fill="#854820"/>
              <path id="Path_1422" data-name="Path 1422" d="M2065.81-3963.941s14.594,21.985,6.889,65.308c0,0,9.4,9.7,50.637,9.7s41.145-14.225,41.145-14.225-9.765-14.226,2.156-60.782a91.571,91.571,0,0,0-48.606-14.208C2089.565-3978.149,2065.81-3963.941,2065.81-3963.941Z" fill="#221f1f"/>
              <path id="Path_1423" data-name="Path 1423" d="M2065.083-4001.871c-3.861.02-9.511,3.17-5.76,6.311.434.363.4,1.18-.031,1.333-2.081.742-3.528,2.944-1.864,5.2a72.873,72.873,0,0,0,8.686,9.08c.694.638-.529.456-.914.273-7.313-3.488-13.74,7.417-6.386,10.924.077.037,1.451.523.579,1.31-2.373,2.143-2.755,6.014,1.024,8.036,51.855,27.757,111.5,8.153,111.5,8.153,5.357-1.078,5.591-6.93,2.755-10.172a2.375,2.375,0,0,1,1.071-3.757q.872-.311,1.741-.629a5.416,5.416,0,0,0,2.65-7.933,2.391,2.391,0,0,1,1.152-3.444q1.287-.524,2.564-1.074c3.162-1.363,3.811-5.946,2.27-8.655-1.857-3.262-5.536-3.614-8.655-2.269q-4.948,2.133-10.061,3.776c2.252-1.268,4.458-2.633,6.595-4.12,3.981-2.771.191-9.354-3.832-6.555Z" fill="#50085f"/>
            </g>
            <g id="Group_160" data-name="Group 160">
              <g id="Group_159" data-name="Group 159">
                <path id="Path_1424" data-name="Path 1424" d="M2210.618-3888.886a106.55,106.55,0,0,0,56.561,5.123,14.6,14.6,0,0,1,15.752,7.724l3.826,7.62a16.335,16.335,0,0,1-15.562,23.612c-.12-.006-.24-.012-.361-.016a84.086,84.086,0,0,1-25.185-5.384c-11.747-4.249-20.23,0-29.665-7.656-6.863-5.565-12.095-15.566-13.233-25.077A5.771,5.771,0,0,1,2210.618-3888.886Z" fill="#f5e4c4"/>
                <path id="Path_1425" data-name="Path 1425" d="M2342.357-3837.824l-.379-3.044-.245-1.939-.515-2.952-.523-2.95c-.168-.984-.429-1.955-.641-2.933-.466-1.95-.848-3.913-1.444-5.84q-.287-1-.608-1.992a113.151,113.151,0,0,0-9.968-22.135,90.32,90.32,0,0,0-15.293-19.492,18.367,18.367,0,0,0-1.458-1.277l-1.5-1.232-3.009-2.434a16.256,16.256,0,0,0-5.059-2.368,11.348,11.348,0,0,0-5.093-.151,10.844,10.844,0,0,0-7.538,5.368,15.244,15.244,0,0,0-1.864,9.024,15.719,15.719,0,0,0,1.026,4.039,8.853,8.853,0,0,0,2.216,3.294l1.788,2,.893.986a9.351,9.351,0,0,1,.859,1.021,63.507,63.507,0,0,1,9.68,14.612,84.735,84.735,0,0,1,6.1,17.006q.183.768.4,1.527c.466,1.451.739,2.97,1.1,4.458.161.751.373,1.487.5,2.248l.4,2.275.405,2.274.183,1.5.294,2.355a9.806,9.806,0,0,0,.207,1.111,9.747,9.747,0,0,0,.27,1.075,10.066,10.066,0,0,0,.887,2.018,11.907,11.907,0,0,0,1.305,1.828,12.374,12.374,0,0,0,1.58,1.612,14.115,14.115,0,0,0,9.019,3.339h4.212a11.446,11.446,0,0,0,8.836-4.059,13.22,13.22,0,0,0,1.487-2.126,13.425,13.425,0,0,0,.992-2.453,15.087,15.087,0,0,0,.535-2.711c.048-.469.076-.946.082-1.427Q2342.447-3837.092,2342.357-3837.824Z" fill="#f3e1c3"/>
                <path id="Path_1426" data-name="Path 1426" d="M2319.822-3823.922q.067-2.244.076-4.508c.05-3.751.021-7.532-.067-11.332-.014-.5-.043-1-.085-1.49q-.7-8.607-2.086-17.384a145.148,145.148,0,0,0-3.894-17.764c-.456-1.414-.836-2.8-1.362-4.224l-1.587-4.25a17.432,17.432,0,0,0-1.623-3.044,15.873,15.873,0,0,0-2.058-2.573,15.275,15.275,0,0,0-5.2-3.408,11.685,11.685,0,0,0-10.845,1.347h0a21.033,21.033,0,0,0-6.834,8.123,15.207,15.207,0,0,0-1.46,4.4,12.537,12.537,0,0,0-.18,2.236,10.881,10.881,0,0,0,.3,2.2l.624,3.041c.213,1.007.328,2.116.5,3.162a115.15,115.15,0,0,1,1.372,14.2c.2,4.9.215,9.892.028,14.957-.014.435-.014.872,0,1.308.077,3.348.1,6.72.059,10.119q-.006,2.038-.069,4.095a14.442,14.442,0,0,0,3.958,10.192,15.1,15.1,0,0,0,10.19,4.788l4.906.278a14.3,14.3,0,0,0,10.632-3.835A14.933,14.933,0,0,0,2319.822-3823.922Z" fill="#f3e1c3"/>
                <path id="Path_1427" data-name="Path 1427" d="M2290.779-3810.36l.649-5.154c.219-1.971.366-3.912.548-5.869s.246-3.873.372-5.812q.044-.757.043-1.515c-.125-5.824-.35-11.589-.857-17.3-.2-2.86-.542-5.709-.828-8.555l-.534-4.268c-.174-1.42-.365-2.841-.593-4.267l-.716-4.328-.82-4.342a17.289,17.289,0,0,0-2.428-5.986,16.148,16.148,0,0,0-4.294-4.394,13.96,13.96,0,0,0-11.45-2.011h0a18.278,18.278,0,0,0-9.621,6.224,15.652,15.652,0,0,0-2.649,4.737,14.038,14.038,0,0,0-.8,5.422l.139,3.763.053,3.8c.043,1.241.051,2.492.044,3.747l-.005,3.754c-.07,2.51-.08,5.012-.226,7.513-.184,5-.631,9.963-1.14,14.851q-.081.627-.118,1.257c-.108,1.6-.153,3.233-.307,4.807s-.265,3.17-.438,4.724l-.5,3.992a12.169,12.169,0,0,0,.363,5.355,14.7,14.7,0,0,0,2.394,4.8,20.11,20.11,0,0,0,9.591,7.031l5,1.64a13.3,13.3,0,0,0,12.151-1.858,17.2,17.2,0,0,0,4.584-4.992A19.013,19.013,0,0,0,2290.779-3810.36Z" fill="#f3e1c3"/>
                <path id="Path_1428" data-name="Path 1428" d="M2262.041-3808.454c.871-1.684,1.733-3.452,2.577-5.218l1.813-4.134c.57-1.428,1.109-2.9,1.653-4.35a8.81,8.81,0,0,0,.363-1.169c.525-2.355,1.136-4.651,1.465-7.055.187-1.191.382-2.378.544-3.564l.32-3.573.146-1.78c.044-.592.034-1.177.052-1.765l.051-3.514c.042-1.177-.076-2.3-.12-3.449l-.2-3.414c-.316-3.5-.647-6.99-1.267-10.295a17.237,17.237,0,0,0-.956-3.61,19.77,19.77,0,0,0-1.61-3.131,17.886,17.886,0,0,0-2.053-2.657,16.937,16.937,0,0,0-2.521-2.057,15.4,15.4,0,0,0-12.15-2.2h0a18.578,18.578,0,0,0-10.339,6.62,17.126,17.126,0,0,0-1.6,2.442,16.043,16.043,0,0,0-1.238,2.584,13.592,13.592,0,0,0-.7,2.7,16.428,16.428,0,0,0-.251,2.738c.1,2.461-.084,4.777-.206,7.078a46.775,46.775,0,0,1-4.518,15.343c-.082.2-.194.413-.274.629l-.94,2.484-1.124,2.56c-.577,1.187-1.147,2.368-1.78,3.6a16.824,16.824,0,0,0-1.1,12.006,16.789,16.789,0,0,0,7.771,10.284l4.845,2.841a16.793,16.793,0,0,0,12.771,1.778A16.881,16.881,0,0,0,2262.041-3808.454Z" fill="#f3e1c3"/>
              </g>
              <path id="Path_1429" data-name="Path 1429" d="M2340.112-3873.524s-.3.053-.87.125a22.449,22.449,0,0,1-2.523.195,29.669,29.669,0,0,1-9.245-1.308,36.025,36.025,0,0,1-6.045-2.438,39.561,39.561,0,0,1-6.246-4.036,40.289,40.289,0,0,1-5.847-5.621,40.959,40.959,0,0,1-4.866-7.032,44.571,44.571,0,0,1-5.027-15.348,47.9,47.9,0,0,1,0-13.2,42.905,42.905,0,0,1,2.157-8.79c.361-1.015.707-1.8.942-2.321l.376-.8.533.706c.333.457.82,1.128,1.444,1.986l4.928,6.912c2,2.814,4.232,6.054,6.53,9.522s4.6,7.187,6.746,11.086q1.6,2.941,2.993,5.735c.923,1.881,1.816,3.7,2.67,5.443,1.7,3.517,3.349,6.789,4.982,9.612a79.583,79.583,0,0,0,4.405,6.9Z" fill="#854820"/>
              <path id="Path_1430" data-name="Path 1430" d="M2300.962-3866.186l-.144-.784c-.094-.506-.2-1.218-.41-2.117a62.126,62.126,0,0,0-1.933-6.882c-1.79-5.443-4.527-11.967-5.993-19.62-1.448-7.643-1.328-15.264-1.138-21.308.124-3.1.227-5.663.3-7.455.039-.942.07-1.681.091-2.185l.044-.794.73.308c.473.21,1.17.531,2.011,1.006a34.765,34.765,0,0,1,6.516,4.743,41.093,41.093,0,0,1,7.332,8.9,38.531,38.531,0,0,1,5.008,12.83,37.244,37.244,0,0,1-.081,14.061,34.491,34.491,0,0,1-4.33,11.264,24.224,24.224,0,0,1-5.454,6.329,15.114,15.114,0,0,1-1.864,1.31C2301.2-3866.312,2300.962-3866.186,2300.962-3866.186Z" fill="#854820"/>
              <path id="Path_1431" data-name="Path 1431" d="M2273.262-3863.4s.174-1.178.544-3.068c.094-.464.2-.978.312-1.538a17.648,17.648,0,0,0,.327-1.791c.186-1.295.414-2.7.675-4.158.131-1.54.368-3.095.548-4.716.052-.83.119-1.661.208-2.488.036-.417.112-.818.132-1.246l.063-1.287c.324-3.384.443-6.906.877-10.615s1.074-7.376,1.678-10.985q.134-.676.265-1.34.114-.673.226-1.33.264-1.34.514-2.6c.285-1.707.693-3.36.967-4.9l.9-4.276.762-3.383c.428-1.9.76-3.015.76-3.015s.918.667,2.405,2a33.616,33.616,0,0,1,2.544,2.552c.468.517.978,1.072,1.471,1.684s.99,1.274,1.5,1.98a41.248,41.248,0,0,1,3,4.836c.487.9.905,1.872,1.346,2.874l.64,1.539c.2.526.369,1.072.547,1.623a35.234,35.234,0,0,1,1.6,15.126,33.4,33.4,0,0,1-5.282,14.727q-.492.769-.988,1.5c-.336.485-.736.93-1.1,1.376-.745.886-1.487,1.718-2.217,2.5a44.781,44.781,0,0,1-4.559,3.819c-1.543.985-2.979,1.776-4.237,2.417a13.269,13.269,0,0,1-1.831.79c-.58.215-1.112.4-1.592.557A28.292,28.292,0,0,1,2273.262-3863.4Z" fill="#854820"/>
              <path id="Path_1432" data-name="Path 1432" d="M2256.567-3866.186s.224-1.013.635-2.592c.208-.785.463-1.7.681-2.789l.38-1.653.208-.86.179-.928c.24-1.257.56-2.49.8-3.866.135-.674.294-1.334.453-2.007q.2-1.05.46-2.081a50.064,50.064,0,0,1,2.747-8.423,48.891,48.891,0,0,1,4.552-7.841q.656-.915,1.284-1.789c.422-.587.89-1.155,1.31-1.717.824-1.125,1.748-2.192,2.523-3.2l4.138-5.036c1.034-1.271,1.72-2.034,1.72-2.034a22.667,22.667,0,0,1,1.6,2.172,23.621,23.621,0,0,1,1.528,2.683,27.2,27.2,0,0,1,1.542,3.7,31.543,31.543,0,0,1,1.194,4.611c.159.839.245,1.7.337,2.589a23.642,23.642,0,0,1,.132,2.747,28.545,28.545,0,0,1-2.437,11.771,28.11,28.11,0,0,1-7.3,9.8c-.739.63-1.478,1.219-2.209,1.765-.763.531-1.543,1.007-2.293,1.45a26.214,26.214,0,0,1-4.43,2.077l-1.028.372-1.028.281c-.668.172-1.3.315-1.89.434a17.491,17.491,0,0,1-3.1.376A20.447,20.447,0,0,1,2256.567-3866.186Z" fill="#854820"/>
              <path id="Path_1433" data-name="Path 1433" d="M2234.646-3871.44s.477-1.012,1.351-2.617c.425-.82,1-1.707,1.558-2.827.573-1.1,1.235-2.283,1.943-3.531.654-1.317,1.414-2.631,2.166-4.016.7-1.439,1.561-2.779,2.287-4.261,1.619-2.838,3.164-5.748,4.965-8.511,1.776-2.778,3.727-5.24,5.475-7.741,1.763-2.474,3.59-4.946,4.975-7.312.355-.588.745-1.165,1.07-1.727s.612-1.119.892-1.629l.841-1.495.644-1.308c.792-1.609,1.33-2.607,1.33-2.607a23.779,23.779,0,0,1,1.97,2.221c.3.377.637.8.971,1.282.306.482.63,1.018.966,1.608s.683,1.235,1.035,1.936c.329.7.6,1.457.9,2.269a28.456,28.456,0,0,1,1.558,12.031,29.936,29.936,0,0,1-4.766,14.012,30.873,30.873,0,0,1-10.452,9.964,33.109,33.109,0,0,1-5.637,2.664,42.264,42.264,0,0,1-5.223,1.42c-1.643.277-3.149.417-4.458.506a25.953,25.953,0,0,1-3.423-.028A28.253,28.253,0,0,1,2234.646-3871.44Z" fill="#854820"/>
              <path id="Path_1434" data-name="Path 1434" d="M2215.922-3888.934s.866-.623,2.3-1.552c.716-.487,1.573-.955,2.518-1.629.946-.658,1.983-1.36,3.076-2.056,1.077-.812,2.213-1.587,3.368-2.384.569-.438,1.145-.866,1.73-1.275l.882-.6.866-.667c.58-.439,1.177-.83,1.772-1.234.578-.449,1.168-.869,1.776-1.254.623-.352,1.189-.84,1.816-1.205.31-.192.625-.376.948-.549.309-.2.618-.405.939-.592,1.308-.706,2.562-1.438,3.906-2.025.636-.342,1.293-.653,1.969-.938s1.3-.629,1.978-.906l1.012-.42.97-.457,1.972-.856c1.243-.614,2.584-1.124,3.729-1.713l1.747-.808c.559-.265,1.067-.541,1.578-.789,1.012-.5,1.954-.944,2.679-1.35,1.5-.794,2.459-1.253,2.459-1.253a22.594,22.594,0,0,1,.5,2.755,20.541,20.541,0,0,1,.17,3.236c-.011.627-.016,1.316-.081,2.023s-.177,1.442-.305,2.224a28.664,28.664,0,0,1-1.32,4.99c-.316.874-.722,1.732-1.144,2.632q-.321.671-.674,1.354-.385.653-.807,1.313a27.318,27.318,0,0,1-1.848,2.631c-.7.84-1.445,1.679-2.237,2.506a28.423,28.423,0,0,1-5.628,4.268,27.572,27.572,0,0,1-13.044,3.695c-.523.023-1.039.036-1.545.042-.513-.027-1.018-.064-1.513-.107-.991-.086-1.943-.2-2.853-.335a39.042,39.042,0,0,1-4.962-1.352,42.01,42.01,0,0,1-3.848-1.817,22.452,22.452,0,0,1-2.707-1.78A23.505,23.505,0,0,1,2215.922-3888.934Z" fill="#854820"/>
              <path id="Path_1435" data-name="Path 1435" d="M2332.02-3963.941s-14.595,21.985-6.889,65.308c0,0-9.4,9.7-50.637,9.7s-41.146-14.225-41.146-14.225,9.766-14.226-2.156-60.782a91.576,91.576,0,0,1,48.606-14.208C2308.265-3978.149,2332.02-3963.941,2332.02-3963.941Z" fill="#221f1f"/>
              <path id="Path_1436" data-name="Path 1436" d="M2332.746-4001.871c3.861.02,9.512,3.17,5.761,6.311-.434.363-.4,1.18.03,1.333,2.081.742,3.529,2.944,1.865,5.2a72.884,72.884,0,0,1-8.687,9.08c-.693.638.53.456.915.273,7.312-3.488,13.739,7.417,6.386,10.924-.077.037-1.451.523-.579,1.31,2.372,2.143,2.755,6.014-1.025,8.036-51.855,27.757-111.5,8.153-111.5,8.153-5.356-1.078-5.591-6.93-2.754-10.172a2.375,2.375,0,0,0-1.072-3.757q-.871-.311-1.74-.629a5.416,5.416,0,0,1-2.65-7.933,2.392,2.392,0,0,0-1.153-3.444q-1.285-.524-2.564-1.074c-3.162-1.363-3.811-5.946-2.269-8.655,1.856-3.262,5.536-3.614,8.655-2.269q4.949,2.133,10.061,3.776c-2.253-1.268-4.458-2.633-6.595-4.12-3.982-2.771-.192-9.354,3.831-6.555Z" fill="#50085f"/>
            </g>
          </g>
          <path id="Path_1437" data-name="Path 1437" d="M2201.3-4148.374c1.965-31.875,4.714-117.49,6.532-137.237,42.687,1.965,75.794-10.321,100.006-25.5-1.933,10.17-2.649,17.6-2.649,17.6s-.422,83.278,9.537,99.291c39.829,64.042,53.853,222.072,52.731,265.828,0,0-92.18,1.182-168.543-72.249-76.363,73.431-168.543,72.249-168.543,72.249-1.122-43.756,12.9-201.786,52.731-265.828,9.958-16.013,9.536-99.291,9.536-99.291s-.716-7.431-2.649-17.6c24.213,15.179,57.319,27.465,100.007,25.5,1.817,19.747,4.567,105.362,6.532,137.237A2.39,2.39,0,0,0,2201.3-4148.374Z"/>
          <g id="Group_164" data-name="Group 164">
            <path id="Path_1438" data-name="Path 1438" d="M2126.146-4229.169a5.738,5.738,0,0,0-7.407,5.49v22.656a5.732,5.732,0,0,0,3.953,5.454c10.653,3.466,41.492,12.259,75.876,10.637v-34.684C2167.359-4218.143,2139.071-4225.251,2126.146-4229.169Z" fill="#50085f"/>
            <path id="Path_1439" data-name="Path 1439" d="M2255.914-4203.263v-22.014a5.731,5.731,0,0,0-8.025-5.259c-16.064,7.068-33.087,10.154-49.321,10.92v34.684c17.883-.844,36.725-4.5,54.185-13.2A5.73,5.73,0,0,0,2255.914-4203.263Z" fill="#440832"/>
            <path id="Path_1440" data-name="Path 1440" d="M2203.383-4219.448v34.685a181.031,181.031,0,0,0,23.748-2.647v-34.682A181.1,181.1,0,0,1,2203.383-4219.448Z" fill="#50085f"/>
            <g id="Group_163" data-name="Group 163">
              <circle id="Ellipse_83" data-name="Ellipse 83" cx="4.895" cy="4.895" r="4.895" transform="translate(2215.746 -4208.788)" fill="#210d16"/>
              <g id="Group_162" data-name="Group 162">
                <path id="Path_1441" data-name="Path 1441" d="M2204.37-4175.862a7.526,7.526,0,0,1-4.915-1.826,7.531,7.531,0,0,1-2.619-5.711v-36.2a7.491,7.491,0,0,1,6.416-7.453l30.336-4.559a7.541,7.541,0,0,1,6.038,1.742,7.532,7.532,0,0,1,2.619,5.711v36.2a7.492,7.492,0,0,1-6.417,7.453l-30.336,4.558A7.632,7.632,0,0,1,2204.37-4175.862Zm30.345-48.407a.091.091,0,0,0-.024,0l-30.336,4.558a.113.113,0,0,0-.1.113v36.2a.1.1,0,0,0,.04.086.086.086,0,0,0,.091.026l30.337-4.558a.113.113,0,0,0,.1-.112v-36.2a.1.1,0,0,0-.04-.086A.1.1,0,0,0,2234.715-4224.269Z" fill="#414141"/>
                <path id="Path_1442" data-name="Path 1442" d="M2200.543-4197.824a3.711,3.711,0,0,1-3.682-3.276,3.712,3.712,0,0,1,3.251-4.121l18.993-2.241a3.713,3.713,0,0,1,4.121,3.251,3.711,3.711,0,0,1-3.251,4.12l-18.993,2.242A3.829,3.829,0,0,1,2200.543-4197.824Z" fill="#414141"/>
              </g>
            </g>
            <path id="Path_1443" data-name="Path 1443" d="M2267.592-4235.6a142.387,142.387,0,0,1-40.461,13.511v34.682a139.933,139.933,0,0,0,45.326-16.178,6.311,6.311,0,0,0,3.16-5.385v-22.014A5.327,5.327,0,0,0,2267.592-4235.6Z" fill="#50085f"/>
            <circle id="Ellipse_84" data-name="Ellipse 84" cx="4.895" cy="4.895" r="4.895" transform="translate(2237.673 -4213.683)" fill="#210d16"/>
          </g>
          <path id="Path_1444" data-name="Path 1444" d="M2207.833-4285.611s6.9-158.226,58.9-183.043c87.094-41.568,156-36.636,156-36.636s-28.363,73.943-97.823,116.488C2273.406-4357.257,2267.6-4303.2,2207.833-4285.611Z"/>
          <path id="Path_1445" data-name="Path 1445" d="M2307.839-4311.111c1.9-9.984,4.968-22.608,9.693-33.447,9.536-21.878,37.023-40.389,37.023-40.389l-5.578-21.972s-66.225,11.35-103.249,33.789-36.669,69.185-36.669,69.185c-.32,6.987-.74,13.054-1.226,18.334C2250.52-4283.646,2283.627-4295.932,2307.839-4311.111Z" fill="#50085f"/>
          <path id="Path_1446" data-name="Path 1446" d="M2190-4285.611s-6.9-158.226-58.9-183.043c-87.094-41.568-156-36.636-156-36.636s28.363,73.943,97.822,116.488C2124.424-4357.257,2130.226-4303.2,2190-4285.611Z"/>
          <path id="Path_1447" data-name="Path 1447" d="M2089.99-4311.111c-1.9-9.984-4.968-22.608-9.692-33.447-9.537-21.878-37.024-40.389-37.024-40.389l5.579-21.972s66.225,11.35,103.248,33.789,36.67,69.185,36.67,69.185c.32,6.987.74,13.054,1.226,18.334C2147.309-4283.646,2114.2-4295.932,2089.99-4311.111Z" fill="#50085f"/>
          <g id="Group_168" data-name="Group 168">
            <g id="Group_167" data-name="Group 167">
              <g id="Group_165" data-name="Group 165">
                <path id="Path_1448" data-name="Path 1448" d="M2082.43-3984.274l-1.061-3.274-1.282-4.452-1.183-4.576c-.107-.4-.208-.8-.328-1.2-2.794-9.229-5.18-18.868-7.112-28.5-.5-2.163-.909-4.309-1.365-6.468a12.231,12.231,0,0,0-1.8-4.439,13.291,13.291,0,0,0-3.217-3.426,14.8,14.8,0,0,0-9.275-2.926h0a12.207,12.207,0,0,0-8.878,4.207,13.57,13.57,0,0,0-2.56,4.4,14.418,14.418,0,0,0-.771,5.268c.139,2.41.238,4.847.426,7.241.931,10.682,2.311,21.235,4.286,31.962.085.462.173.92.3,1.382l1.367,5.281,1.536,5.333,1.343,4.154a13.515,13.515,0,0,0,1.282,2.822,16.515,16.515,0,0,0,1.748,2.451,14.736,14.736,0,0,0,4.653,3.554,11.411,11.411,0,0,0,5.418,1.189,10.587,10.587,0,0,0,5.056-1.586l3.818-2.3a18.111,18.111,0,0,0,4.065-3.439,19.537,19.537,0,0,0,2.757-3.887,12.261,12.261,0,0,0,1.29-4.254,10.125,10.125,0,0,0-.005-2.254A13.19,13.19,0,0,0,2082.43-3984.274Z" fill="#f3e1c3"/>
                <path id="Path_1449" data-name="Path 1449" d="M2053.048-3978.74c-.188-1.187-.369-2.383-.525-3.608-.373-2.643-.681-5.34-.991-8.032q-.054-.531-.146-1.056c-1.42-8.114-2.638-16.387-3.509-24.552l-.365-3.281-.309-3.247a12.35,12.35,0,0,0-1.31-4.532,13.268,13.268,0,0,0-2.8-3.661,16.031,16.031,0,0,0-8.818-4.044h0a11.559,11.559,0,0,0-9.354,3.079,13.6,13.6,0,0,0-3.061,4.192,14.177,14.177,0,0,0-1.33,5.227l-.2,3.665-.139,3.629c-.239,9-.123,17.855.236,26.82q.023.579.083,1.156c.338,2.953.676,5.9,1.1,8.885.173,1.357.381,2.734.6,4.118a14.453,14.453,0,0,0,5.718,9.481,13.944,13.944,0,0,0,2.357,1.37,11.253,11.253,0,0,0,2.554.8,11.419,11.419,0,0,0,5.3-.306l4.282-1.245a16.081,16.081,0,0,0,4.772-2.341,17.564,17.564,0,0,0,1.936-1.588,12.5,12.5,0,0,0,1.607-1.808A12.072,12.072,0,0,0,2053.048-3978.74Z" fill="#f3e1c3"/>
                <path id="Path_1450" data-name="Path 1450" d="M2025.981-3976.653l-.013-3.782q.014-5.086.1-10.2c.006-.445,0-.891-.012-1.336-.358-10.316-.539-20.7-.405-30.928-.033-2.251,0-4.454,0-6.682a12.383,12.383,0,0,0-.862-4.741,13.243,13.243,0,0,0-2.468-4.01,14.807,14.807,0,0,0-8.508-4.715h0a12.2,12.2,0,0,0-9.536,2.355,13.541,13.541,0,0,0-3.386,3.793,14.234,14.234,0,0,0-1.811,4.973c-.358,2.366-.75,4.753-1.067,7.1-1.318,10.8-2.289,21.489-3.085,32.248-.037.463-.056.928-.063,1.4q-.092,5.344-.1,10.719l.013,4.026a14.019,14.019,0,0,0,1.119,5.388,13.711,13.711,0,0,0,2.985,4.371,12.535,12.535,0,0,0,9.629,3.629l4.452-.255a14.3,14.3,0,0,0,9.278-4.2,13.108,13.108,0,0,0,2.756-4.128A12.63,12.63,0,0,0,2025.981-3976.653Z" fill="#f3e1c3"/>
                <path id="Path_1451" data-name="Path 1451" d="M2109.114-4004.489c-.584-.9-1.192-1.758-1.769-2.691l-1.67-2.789c-.546-.951-1.067-1.95-1.6-2.92q-.21-.383-.451-.748a166.365,166.365,0,0,1-10.045-18.648c-.9-1.968-1.8-3.944-2.637-5.945a13.081,13.081,0,0,0-6.522-6.675,14.369,14.369,0,0,0-9.7-.943h0a12.475,12.475,0,0,0-7.8,5.946,13.579,13.579,0,0,0-1.276,10.14c.6,2.38,1.275,4.734,1.951,7.1a196.062,196.062,0,0,0,8.458,23.5c.156.337.323.671.5,1,.689,1.253,1.35,2.5,2.069,3.755l2.244,3.748c.792,1.279,1.676,2.559,2.517,3.834a13.754,13.754,0,0,0,2.108,2.48,17.489,17.489,0,0,0,2.448,1.959,15.068,15.068,0,0,0,5.589,2.119,10.754,10.754,0,0,0,9.861-3.547l2.975-3.321a19.1,19.1,0,0,0,4.282-9.046,12.274,12.274,0,0,0,.059-4.339,9.169,9.169,0,0,0-.561-2.061A12.658,12.658,0,0,0,2109.114-4004.489Z" fill="#f3e1c3"/>
                <path id="Path_1452" data-name="Path 1452" d="M2108.578-4048.519c6.024,4.479,19.615,19.95,25.576,24.512,7.08,5.418-.034,11.446-2.935,11.615-30.405,1.768-46.409-25.865-46.409-25.865Z" fill="#f5e4c4"/>
              </g>
              <g id="Group_166" data-name="Group 166">
                <path id="Path_1453" data-name="Path 1453" d="M1992.494-3994.6s.324-1.162.958-3.033c.331-.916.678-2.077,1.1-3.356l.674-2c.22-.719.456-1.464.709-2.226,1.025-3.041,2.141-6.547,3.489-10.175a107.649,107.649,0,0,1,4.826-11.254c.466-.963,1.023-1.868,1.506-2.8s1.02-1.816,1.57-2.685c.528-.878,1.038-1.749,1.593-2.587l.833-1.246.8-1.234c.536-.813,1.1-1.6,1.652-2.373q.781-1.17,1.591-2.276c1.115-1.463,2.053-2.883,3.067-4.177s1.841-2.514,2.695-3.587,1.547-2.027,2.155-2.815c1.214-1.577,2-2.482,2-2.482s.535,1.023,1.288,2.933a29.78,29.78,0,0,1,1.182,3.516,41.656,41.656,0,0,1,1.056,4.74,42.856,42.856,0,0,1,.55,5.795c.024,1.04.026,2.118,0,3.23-.053,1.1-.164,2.227-.292,3.384l-.222,1.754c-.095.585-.217,1.17-.339,1.763-.253,1.183-.52,2.4-.871,3.6-.373,1.2-.787,2.405-1.246,3.617a38.157,38.157,0,0,1-1.624,3.584,41.964,41.964,0,0,1-9.095,11.917,42.707,42.707,0,0,1-10.329,7.04c-.815.391-1.6.746-2.34,1.065-.758.307-1.5.562-2.182.8a28.752,28.752,0,0,1-3.584,1.019A31.508,31.508,0,0,1,1992.494-3994.6Z" fill="#854820"/>
                <path id="Path_1454" data-name="Path 1454" d="M2050.99-3994.954s-.276-.03-.8-.12a15.951,15.951,0,0,1-2.289-.539,24.643,24.643,0,0,1-7.644-4.05,35.536,35.536,0,0,1-8.417-9.3,39.222,39.222,0,0,1-5.344-13.621,41.431,41.431,0,0,1,3.784-25.892,26.469,26.469,0,0,1,5.008-7.055l.542-.5.526-.413a6.34,6.34,0,0,1,.851-.571,7.5,7.5,0,0,1,.74-.369l.063.8a7.951,7.951,0,0,0,.148.911l.114.551.169.634c.473,1.752,1.342,4.133,2.427,6.968,2.172,5.686,5.037,13.042,6.533,21.035a94.112,94.112,0,0,1,1.318,11.432c.232,3.576.364,6.9.6,9.831a57.933,57.933,0,0,0,.978,7.306c.165.944.388,1.633.5,2.16Z" fill="#854820"/>
                <path id="Path_1455" data-name="Path 1455" d="M2084.81-4005.283s-.277.109-.819.287a17.747,17.747,0,0,1-2.423.637,27.012,27.012,0,0,1-9.264.157,36.376,36.376,0,0,1-12.914-4.563,38.58,38.58,0,0,1-6.5-4.682,38.393,38.393,0,0,1-5.734-6.3,40.122,40.122,0,0,1-6.713-14.9,38.512,38.512,0,0,1-.657-13.46,31.838,31.838,0,0,1,2.4-8.793,22.981,22.981,0,0,1,1.117-2.223l.437-.75,1.762,2.761c1.092,1.717,2.717,4.064,4.659,6.672s4.235,5.5,6.684,8.515c2.427,3.034,5,6.222,7.5,9.651,1.244,1.723,2.428,3.425,3.568,5.091l3.286,4.9c2.109,3.2,4.148,6.136,6.082,8.677a61.122,61.122,0,0,0,5.2,6.044c.7.743,1.3,1.273,1.7,1.665Z" fill="#854820"/>
                <path id="Path_1456" data-name="Path 1456" d="M1978.122-4013.563s.593-.846,1.562-2.136l.786-1.04c.279-.378.563-.826.868-1.264.6-.908,1.285-1.781,1.944-2.873.673-1.05,1.393-2.082,2.1-3.247.354-.573.738-1.093,1.1-1.677s.737-1.168,1.129-1.727a50.776,50.776,0,0,1,5.225-6.688,49.051,49.051,0,0,1,6.484-5.567c2.215-1.664,4.53-3.181,6.514-4.623l1.49-1.043,1.322-.993c.855-.637,1.659-1.215,2.252-1.723,1.243-1.011,2.063-1.642,2.063-1.642a19,19,0,0,1,1.168,2.417,17.7,17.7,0,0,1,.935,2.968c.139.587.286,1.23.4,1.906.087.665.162,1.374.218,2.126a27.6,27.6,0,0,1-1.237,10.263,27.385,27.385,0,0,1-6.219,10.589,27.066,27.066,0,0,1-10.344,6.723c-.922.321-1.829.6-2.712.846s-1.807.375-2.664.516a24.556,24.556,0,0,1-4.883.283,22.174,22.174,0,0,1-4.052-.486c-.591-.122-1.124-.226-1.627-.377s-.96-.317-1.366-.466A19.539,19.539,0,0,1,1978.122-4013.563Z" fill="#854820"/>
                <path id="Path_1457" data-name="Path 1457" d="M2030.306-3994.406s-.255-.019-.739-.087a13.551,13.551,0,0,1-2.1-.446,19.734,19.734,0,0,1-7.005-3.722,27.576,27.576,0,0,1-7.24-9.105,30.447,30.447,0,0,1-3.247-13.154,31.529,31.529,0,0,1,2.574-12.879,33.516,33.516,0,0,1,5.844-9.195,29.319,29.319,0,0,1,5.713-4.972,21.041,21.041,0,0,1,1.816-1.082l.664-.339s.787,3.788,1.974,9.5c.556,2.692,1.2,5.722,1.714,8.868a68.038,68.038,0,0,1,.962,9.744,72.947,72.947,0,0,1-.56,9.35c-.346,2.936-.676,5.688-.839,8.245a38.247,38.247,0,0,0,.107,6.522c.067.862.193,1.52.256,2Z" fill="#854820"/>
                <path id="Path_1458" data-name="Path 1458" d="M2109.11-4020.59l-.74.455c-.489.293-1.217.705-2.182,1.164a35.416,35.416,0,0,1-8.568,2.8,36.967,36.967,0,0,1-6.23.671,36.581,36.581,0,0,1-7.253-.525,36.186,36.186,0,0,1-15.6-6.661,36.018,36.018,0,0,1-6.422-6.288,36.563,36.563,0,0,1-4.351-7.1,35.572,35.572,0,0,1-3.174-13.315,36.258,36.258,0,0,1,.168-5.16c.191-1.513.415-2.794.647-3.833.516-2.089.927-3.207.927-3.207s.9.862,2.285,2.354l2.541,2.609c1,.97,2.056,2.065,3.259,3.177,2.364,2.251,5.093,4.64,7.941,6.938,1.459,1.125,2.9,2.277,4.4,3.4l4.562,3.428c3.12,2.311,6.127,4.676,9.2,6.886,3.041,2.234,6.089,4.334,8.841,6.136s5.2,3.3,6.953,4.364l2.062,1.242Z" fill="#854820"/>
                <path id="Path_1459" data-name="Path 1459" d="M2131.1-4047.657a26.5,26.5,0,0,1-1.468,2.813q-.39.669-.9,1.475c-.347.532-.777,1.026-1.237,1.6s-.978,1.154-1.545,1.776a16.426,16.426,0,0,1-1.906,1.817q-1.05.9-2.269,1.84a26.029,26.029,0,0,1-2.644,1.707l-1.453.83a12.945,12.945,0,0,1-1.538.766q-1.581.69-3.316,1.337a37.166,37.166,0,0,1-15.447,1.832,39.5,39.5,0,0,1-14.507-4.525c-1.02-.579-1.991-1.188-2.919-1.789l-1.357-.909-1.26-.98q-1.225-.978-2.312-1.933c-.715-.657-1.37-1.337-1.986-1.977s-1.19-1.257-1.7-1.883-.974-1.243-1.4-1.817-.8-1.115-1.147-1.617-.619-1.014-.874-1.453a31.042,31.042,0,0,1-1.457-2.815s1.19-.06,3.141-.05l1.6.014,1.882-.027,2.083.01,2.3-.031,2.436.01c.847-.023,1.711-.033,2.587-.025l1.321.025,1.361-.02c.913-.006,1.832.019,2.759.051a114.618,114.618,0,0,1,11.54.579c3.935.4,7.572.925,11.073,1.535.863.111,1.723.25,2.58.408a11.556,11.556,0,0,0,1.26.187l1.236.163c.814.1,1.658.3,2.43.347.779.069,1.55.151,2.309.24a20.578,20.578,0,0,0,2.19.2l2.019.119c.643.033,1.282.11,1.842.111h1.564C2129.894-4047.707,2131.1-4047.657,2131.1-4047.657Z" fill="#854820"/>
              </g>
              <path id="Path_1460" data-name="Path 1460" d="M2107.292-4055.954c-3.279-9.578-6.976-24.549-8.943-46.543a7.157,7.157,0,0,0-3.5-5.542c-7.046-4.133-26.556-12.118-67.214-7.294-33.122,3.93-47.851,8.033-54.27,10.594a7.173,7.173,0,0,0-4.51,7.1c2.51,40.863,10.913,60.555,14.478,67.226a7.17,7.17,0,0,0,4.381,3.539c9.418,2.645,41.118,10.309,66.711,1.905a275.2,275.2,0,0,0,49.666-22.462A7.158,7.158,0,0,0,2107.292-4055.954Z" fill="#50085f"/>
            </g>
            <path id="Path_1461" data-name="Path 1461" d="M1977.356-4103.1c-14.005-207.274,65.918-281.846,65.918-281.846s22.781-6.657,38.259,20.419,11.106,71.018,11.106,71.018-49.976,120.384,0,190.409C2092.639-4103.1,2003.5-4066.687,1977.356-4103.1Z" fill="#221f1f"/>
          </g>
          <g id="Group_172" data-name="Group 172">
            <g id="Group_171" data-name="Group 171">
              <g id="Group_169" data-name="Group 169">
                <path id="Path_1462" data-name="Path 1462" d="M2349.484-4670.013l.96,4.26,1.043,5.45.881,5.384c.081.471.127.935.169,1.4.991,10.862,1.4,21.5,1.36,32.219-.03,2.4-.154,4.837-.235,7.25a14.411,14.411,0,0,1-1.247,5.176,13.543,13.543,0,0,1-2.95,4.152,12.2,12.2,0,0,1-9.224,3.382h0a14.791,14.791,0,0,1-8.97-3.758,13.278,13.278,0,0,1-2.893-3.7,12.25,12.25,0,0,1-1.383-4.583c-.257-2.192-.467-4.366-.77-6.565-1.048-9.77-2.547-19.586-4.489-29.031-.083-.407-.147-.823-.218-1.226l-.762-4.665-.871-4.55-.759-3.357a13.321,13.321,0,0,1-.3-2.3,10.1,10.1,0,0,1,.2-2.246,12.251,12.251,0,0,1,1.671-4.118,19.628,19.628,0,0,1,3.1-3.62,18.1,18.1,0,0,1,4.361-3.055l4.012-1.946a10.575,10.575,0,0,1,5.18-1.119,11.419,11.419,0,0,1,5.287,1.677,14.751,14.751,0,0,1,4.311,3.962,16.518,16.518,0,0,1,1.517,2.6A13.551,13.551,0,0,1,2349.484-4670.013Z" fill="#f3e1c3"/>
                <path id="Path_1463" data-name="Path 1463" d="M2309.482-4657.959c.808,1.3,1.658,2.6,2.417,3.9l2.147,3.8c.687,1.269,1.314,2.537,1.971,3.808.17.331.328.669.475,1.011a196.117,196.117,0,0,1,7.849,23.707c.615,2.381,1.23,4.751,1.767,7.146a13.582,13.582,0,0,1-1.537,10.1,12.478,12.478,0,0,1-7.952,5.742,14.373,14.373,0,0,1-9.668-1.193,13.084,13.084,0,0,1-6.348-6.841c-.782-2.021-1.638-4.021-2.483-6.011a166.4,166.4,0,0,0-9.559-18.9c-.155-.247-.3-.5-.433-.759-.512-.984-1.007-2-1.529-2.961l-1.6-2.831c-.553-.948-1.138-1.818-1.7-2.736a12.6,12.6,0,0,1-.979-1.927,9.109,9.109,0,0,1-.508-2.074,12.288,12.288,0,0,1,.17-4.336,19.107,19.107,0,0,1,4.515-8.933l3.059-3.244a10.752,10.752,0,0,1,9.95-3.29,15.038,15.038,0,0,1,5.532,2.262,17.6,17.6,0,0,1,2.4,2.021A13.875,13.875,0,0,1,2309.482-4657.959Z" fill="#f3e1c3"/>
                <path id="Path_1464" data-name="Path 1464" d="M2294.443-4580.421c-5.906-4.633-19.094-20.45-24.935-25.164-6.938-5.6.33-11.441,3.234-11.535,30.441-.983,45.726,27.054,45.726,27.054Z" fill="#f5e4c4"/>
              </g>
              <g id="Group_170" data-name="Group 170">
                <path id="Path_1465" data-name="Path 1465" d="M2399.813-4638.939a31.7,31.7,0,0,0-3.179.469,28.771,28.771,0,0,0-3.609.927c-.689.217-1.436.452-2.2.74-.751.3-1.542.634-2.366,1a42.7,42.7,0,0,0-10.508,6.772,41.954,41.954,0,0,0-9.4,11.678,38.155,38.155,0,0,0-1.717,3.541q-.734,1.8-1.339,3.583c-.382,1.2-.68,2.4-.963,3.577-.137.59-.274,1.172-.384,1.755q-.135.882-.268,1.747c-.157,1.154-.3,2.275-.379,3.376-.054,1.11-.081,2.188-.083,3.228a42.855,42.855,0,0,0,.4,5.807,41.555,41.555,0,0,0,.934,4.766,29.827,29.827,0,0,0,1.09,3.546c.7,1.929,1.212,2.965,1.212,2.965s.813-.884,2.067-2.43c.628-.771,1.343-1.708,2.228-2.759s1.743-2.247,2.786-3.515,2.021-2.663,3.174-4.1c.556-.723,1.108-1.467,1.649-2.234.568-.759,1.156-1.531,1.713-2.329l.828-1.213.865-1.225c.576-.823,1.109-1.681,1.659-2.545q.858-1.282,1.639-2.643c.506-.915,1.086-1.8,1.577-2.756a107.411,107.411,0,0,0,5.114-11.125c1.441-3.592,2.648-7.069,3.751-10.082.273-.755.528-1.494.766-2.207l.726-1.987c.451-1.268.828-2.419,1.183-3.327C2399.459-4637.786,2399.813-4638.939,2399.813-4638.939Z" fill="#854820"/>
                <path id="Path_1466" data-name="Path 1466" d="M2341.327-4640.094l.171.8c.1.53.306,1.224.446,2.172a58.222,58.222,0,0,1,.789,7.329c.162,2.939.209,6.262.348,9.843a94.09,94.09,0,0,0,1.023,11.463c1.289,8.029,3.963,15.456,5.987,21.2,1.012,2.862,1.819,5.264,2.247,7.028l.152.638.1.553a7.855,7.855,0,0,1,.125.915l.042.806a7.446,7.446,0,0,0,.749-.349,6.2,6.2,0,0,0,.865-.549l.537-.4.555-.486a26.438,26.438,0,0,0,5.188-6.922,41.429,41.429,0,0,0,4.451-25.786,39.246,39.246,0,0,0-4.99-13.755,35.51,35.51,0,0,0-8.175-9.518,24.619,24.619,0,0,0-7.537-4.245,15.849,15.849,0,0,0-2.274-.6C2341.6-4640.057,2341.327-4640.094,2341.327-4640.094Z" fill="#854820"/>
                <path id="Path_1467" data-name="Path 1467" d="M2307.252-4630.642l.613.623c.4.4.978.948,1.661,1.709a61.03,61.03,0,0,1,5.041,6.176c1.868,2.59,3.83,5.582,5.856,8.831l3.158,4.987c1.1,1.7,2.237,3.427,3.435,5.182,2.413,3.492,4.9,6.745,7.247,9.841,2.369,3.082,4.583,6.018,6.462,8.684s3.438,5.046,4.485,6.791c1.078,1.791,1.69,2.8,1.69,2.8l.456-.738a22.864,22.864,0,0,0,1.174-2.194,31.829,31.829,0,0,0,2.624-8.728,38.492,38.492,0,0,0-.309-13.472,40.123,40.123,0,0,0-6.327-15.067,38.434,38.434,0,0,0-5.569-6.445,38.646,38.646,0,0,0-6.375-4.848,36.374,36.374,0,0,0-12.792-4.9,26.976,26.976,0,0,0-9.265-.081,17.619,17.619,0,0,0-2.439.574C2307.532-4630.743,2307.252-4630.642,2307.252-4630.642Z" fill="#854820"/>
                <path id="Path_1468" data-name="Path 1468" d="M2413.691-4619.611a19.592,19.592,0,0,0-2.425-1.128c-.4-.16-.852-.329-1.354-.5s-1.029-.282-1.616-.419a22.212,22.212,0,0,0-4.038-.59,24.389,24.389,0,0,0-4.888.157,26.823,26.823,0,0,0-2.677.447c-.89.221-1.8.478-2.733.775a27.063,27.063,0,0,0-10.514,6.455,27.366,27.366,0,0,0-6.49,10.424,27.586,27.586,0,0,0-1.5,10.228c.037.753.093,1.464.164,2.13.092.679.223,1.326.347,1.916a17.66,17.66,0,0,0,.858,2.992,19,19,0,0,0,1.1,2.446s.836-.61,2.1-1.588c.606-.493,1.424-1.05,2.3-1.665l1.347-.959,1.516-1c2.021-1.391,4.374-2.848,6.631-4.454a48.884,48.884,0,0,0,6.626-5.4,50.708,50.708,0,0,0,5.4-6.55c.406-.549.8-1.117,1.173-1.7s.777-1.084,1.146-1.648c.733-1.147,1.48-2.159,2.18-3.191.687-1.075,1.393-1.93,2.017-2.823.317-.43.613-.87.9-1.24l.813-1.02C2413.076-4618.781,2413.691-4619.611,2413.691-4619.611Z" fill="#854820"/>
                <path id="Path_1469" data-name="Path 1469" d="M2362.018-4640.108l.086.747c.051.484.16,1.145.205,2.009a38.281,38.281,0,0,1-.062,6.523c-.229,2.552-.63,5.294-1.052,8.22a73.188,73.188,0,0,0-.8,9.332,68.089,68.089,0,0,0,.711,9.767c.427,3.157,1,6.2,1.484,8.909,1.04,5.744,1.728,9.551,1.728,9.551l.673-.322a20.875,20.875,0,0,0,1.843-1.034,29.342,29.342,0,0,0,5.84-4.823,33.514,33.514,0,0,0,6.079-9.042,31.534,31.534,0,0,0,2.906-12.808,30.443,30.443,0,0,0-2.907-13.233,27.607,27.607,0,0,0-7-9.289,19.732,19.732,0,0,0-6.907-3.9,13.45,13.45,0,0,0-2.087-.5C2362.273-4640.083,2362.018-4640.108,2362.018-4640.108Z" fill="#854820"/>
                <path id="Path_1470" data-name="Path 1470" d="M2282.565-4615.967l.728.478,2.029,1.295c1.727,1.106,4.135,2.673,6.838,4.542s5.7,4.05,8.68,6.362c3.014,2.288,5.959,4.73,9.018,7.121l4.472,3.545c1.47,1.158,2.879,2.347,4.308,3.509,2.788,2.371,5.454,4.829,7.759,7.14,1.175,1.143,2.2,2.266,3.177,3.261l2.473,2.674c1.35,1.527,2.222,2.412,2.222,2.412s.441-1.107,1.01-3.182c.259-1.033.516-2.308.746-3.816a36.231,36.231,0,0,0,.3-5.153,35.56,35.56,0,0,0-2.829-13.393,36.562,36.562,0,0,0-4.167-7.206,36,36,0,0,0-6.258-6.452,36.18,36.18,0,0,0-15.424-7.06,36.551,36.551,0,0,0-7.238-.713,36.939,36.939,0,0,0-6.244.51,35.413,35.413,0,0,0-8.638,2.583c-.976.434-1.715.827-2.211,1.108Z" fill="#854820"/>
                <path id="Path_1471" data-name="Path 1471" d="M2259.88-4589.476s1.209.081,3.136.14l1.562.04c.561.016,1.2.108,1.839.158l2.016.171a20.863,20.863,0,0,1,2.184.261c.756.108,1.525.21,2.3.3.77.071,1.609.291,2.42.409l1.232.2a11.329,11.329,0,0,1,1.254.219c.853.181,1.709.342,2.569.475,3.484.7,7.106,1.32,11.029,1.82a114.683,114.683,0,0,0,11.521.877c.927.056,1.844.1,2.757.122l1.362.015,1.32.059q1.313.045,2.586.042l2.435.073,2.3.028,2.082.064,1.883.021,1.6.055c1.95.061,3.142.032,3.142.032a30.982,30.982,0,0,0-1.384-2.852c-.244-.446-.514-.953-.837-1.475s-.7-1.062-1.1-1.646-.857-1.205-1.35-1.853-1.058-1.259-1.654-1.926-1.236-1.352-1.934-2.028q-1.061-.979-2.261-1.992l-1.235-1.012-1.333-.944c-.912-.625-1.867-1.258-2.872-1.863a39.5,39.5,0,0,0-14.385-4.9,37.171,37.171,0,0,0-15.489,1.432c-1.166.4-2.284.819-3.35,1.251a13.2,13.2,0,0,0-1.557.727l-1.473.792a25.925,25.925,0,0,0-2.688,1.638c-.829.6-1.6,1.2-2.316,1.781a16.517,16.517,0,0,0-1.952,1.767q-.875.91-1.591,1.735c-.474.558-.917,1.042-1.277,1.564s-.67,1.013-.942,1.451A26.648,26.648,0,0,0,2259.88-4589.476Z" fill="#854820"/>
              </g>
              <path id="Path_1472" data-name="Path 1472" d="M2283.47-4580.568c3.031,9.66,6.34,24.721,7.739,46.759a7.155,7.155,0,0,0,3.354,5.631c6.937,4.312,26.234,12.8,67,9.025,33.212-3.074,48.042-6.8,54.525-9.189a7.175,7.175,0,0,0,4.692-6.978c-1.454-40.914-9.347-60.817-12.738-67.577a7.166,7.166,0,0,0-4.288-3.651c-9.347-2.887-40.839-11.367-66.641-3.626A275.265,275.265,0,0,0,2286.887-4589,7.157,7.157,0,0,0,2283.47-4580.568Z" fill="#50085f"/>
            </g>
            <path id="Path_1473" data-name="Path 1473" d="M2412.146-4530.084c8.651,207.567-73.17,280.052-73.17,280.052s-22.945,6.067-37.719-21.4-9.27-71.281-9.27-71.281,53.067-119.054,4.914-190.346C2296.9-4533.059,2386.952-4567.159,2412.146-4530.084Z" fill="#221f1f"/>
          </g>
        </g>
      </g>
    </g>
  </g>
</svg>
