<?xml version="1.0" encoding="UTF-8" standalone="no"?>
<svg
   xmlns:dc="http://purl.org/dc/elements/1.1/"
   xmlns:cc="http://creativecommons.org/ns#"
   xmlns:rdf="http://www.w3.org/1999/02/22-rdf-syntax-ns#"
   xmlns:svg="http://www.w3.org/2000/svg"
   xmlns="http://www.w3.org/2000/svg"
   xmlns:xlink="http://www.w3.org/1999/xlink"
   xmlns:sodipodi="http://sodipodi.sourceforge.net/DTD/sodipodi-0.dtd"
   xmlns:inkscape="http://www.inkscape.org/namespaces/inkscape"
   version="1.1"
   id="Layer_1_copy"
   x="0px"
   y="0px"
   viewBox="0 0 449.19138 430.20001"
   xml:space="preserve"
   sodipodi:docname="b_las_reglas.svg"
   width="449.19138"
   height="430.20001"
   inkscape:version="1.0.1 (3bc2e813f5, 2020-09-07)"><metadata
   id="metadata92"><rdf:RDF><cc:Work
       rdf:about=""><dc:format>image/svg+xml</dc:format><dc:type
         rdf:resource="http://purl.org/dc/dcmitype/StillImage" /><dc:title></dc:title></cc:Work></rdf:RDF></metadata><defs
   id="defs90">
	
		
	
</defs><sodipodi:namedview
   pagecolor="#ffffff"
   bordercolor="#666666"
   borderopacity="1"
   objecttolerance="10"
   gridtolerance="10"
   guidetolerance="10"
   inkscape:pageopacity="0"
   inkscape:pageshadow="2"
   inkscape:window-width="1920"
   inkscape:window-height="1017"
   id="namedview88"
   showgrid="false"
   fit-margin-top="0"
   fit-margin-left="0"
   fit-margin-right="0"
   fit-margin-bottom="0"
   inkscape:zoom="1.2020815"
   inkscape:cx="166.62317"
   inkscape:cy="242.70262"
   inkscape:window-x="-8"
   inkscape:window-y="-8"
   inkscape:window-maximized="1"
   inkscape:current-layer="Layer_1_copy" />
<style
   type="text/css"
   id="style2">
	.st0{fill:#FFFFFF;}
	.st1{fill:#FFC600;}
	.st2{fill:url(#SVGID_1_);}
	.st3{fill:none;stroke:#FFC600;stroke-width:13.5;stroke-miterlimit:10;}
	.st4{clip-path:url(#SVGID_3_);}
	.st5{fill:#02AAA2;}
	.st6{fill:#0D7870;}
	.st7{fill:#EF9A21;}
	.st8{fill:#DEE0DD;}
	.st9{fill:#00997D;}
</style>




<g
   id="g256"
   transform="translate(-25.445807,-7.4)"><g
     id="g212"><g
       id="g8">
		<path
   class="st0"
   d="m 250,7.4 c -12.1,0 -22.9,6.7 -28.2,17.6 l -16.6,33.6 -72,19.8 c -24,6.6 -38.2,31.5 -31.6,55.5 l 1.8,6.7 -51,7.4 c -12,1.7 -21.7,9.9 -25.4,21.4 -3.7,11.5 -0.7,23.9 8,32.3 l 83.2,81.1 c -5.1,5 -7.8,12.3 -6.8,19.8 l 0.8,5.5 c -0.2,1.8 -0.8,5.7 -2.4,12.9 -3.3,15 -3.9,19.5 -3.9,23.5 0,3.7 0.5,7.3 1.6,10.8 l -7.8,45.4 c -1.6,9.2 0.9,18.5 6.9,25.6 6,7.1 14.8,11.2 24.1,11.2 5.1,0 10.1,-1.3 14.7,-3.6 l 102.2,-53.7 c 2.3,3 5.2,5.6 8.5,7.8 6.1,3.9 13.2,6 20.5,6 0.6,0 1.3,0 2,0 l 76.1,40 c 4.5,2.4 9.6,3.6 14.7,3.6 9.3,0 18.1,-4.1 24.1,-11.2 6,-7.1 8.5,-16.4 6.9,-25.6 l -7.9,-46.3 c 1.6,-4.3 2.5,-8.8 2.5,-13.5 0,-2.7 -0.3,-5.4 -0.9,-8.1 0.4,-2.2 0.6,-4.4 0.6,-6.6 0,-9 -3.3,-17.4 -9.3,-23.7 10.9,-4.4 17,-16.3 13.8,-27.9 l -1.9,-6.9 67.8,-66.1 c 8.6,-8.4 11.7,-20.8 8,-32.3 -3.7,-11.5 -13.5,-19.7 -25.4,-21.4 L 360.9,135.4 336.5,46.7 C 333.6,36.3 324.2,29.5 314,29.5 c -2.1,0 -4.1,0.3 -6.2,0.8 l -3.4,0.9 c -3,-1.3 -6.2,-2.1 -9.6,-2.1 -2.1,0 -4.1,0.3 -6.2,0.8 l -6.7,1.8 -3.4,-6.9 C 272.9,14.1 262.1,7.4 250,7.4 Z"
   id="path6" />
	</g></g><g
     id="g21">
	<path
   class="st1"
   d="m 257.3,35.3 55.9,113.2 c 1.2,2.4 3.5,4.1 6.1,4.4 l 125,18.2 c 6.6,1 9.3,9.1 4.5,13.8 L 358.4,273 c -1.9,1.9 -2.8,4.5 -2.3,7.2 l 21.4,124.4 c 1.1,6.6 -5.8,11.7 -11.8,8.5 L 253.9,354.3 c -2.4,-1.2 -5.2,-1.2 -7.5,0 l -111.8,58.8 c -5.9,3.1 -12.9,-1.9 -11.8,-8.5 l 21.4,-124.5 c 0.4,-2.6 -0.4,-5.3 -2.3,-7.2 L 51.3,185 c -4.8,-4.7 -2.2,-12.9 4.5,-13.8 l 125,-18.2 c 2.6,-0.4 4.9,-2 6.1,-4.4 L 242.8,35.4 c 2.9,-6.1 11.5,-6.1 14.5,-0.1 z"
   id="path12" />
	
		<linearGradient
   id="SVGID_1_"
   gradientUnits="userSpaceOnUse"
   x1="250"
   y1="85.779999"
   x2="250"
   y2="469.19"
   gradientTransform="matrix(1,0,0,-1,0,500)">
		<stop
   offset="0"
   style="stop-color:#FFD74B"
   id="stop14" />
		<stop
   offset="1"
   style="stop-color:#FFC600"
   id="stop16" />
	</linearGradient>
	<path
   class="st2"
   d="m 250,51.1 51,103.4 c 3.1,6.4 9.2,10.8 16.3,11.8 l 114.1,16.6 -82.6,80.5 c -5.1,5 -7.4,12.1 -6.2,19.1 L 362.1,396.2 260,342.5 c -3.1,-1.6 -6.6,-2.5 -10.1,-2.5 -3.5,0 -7,0.9 -10.1,2.5 l -102.1,53.7 19.5,-113.7 c 1.2,-7 -1.1,-14.2 -6.2,-19.1 L 68.4,182.9 182.5,166.3 c 7,-1 13.1,-5.4 16.3,-11.8 L 250,51.1 m 0,-20.3 c -2.9,0 -5.8,1.5 -7.3,4.5 l -55.9,113.2 c -1.2,2.4 -3.5,4.1 -6.1,4.4 l -125,18.2 c -6.6,1 -9.3,9.1 -4.5,13.8 l 90.4,88.1 c 1.9,1.9 2.8,4.5 2.3,7.2 l -21.3,124.4 c -0.9,5.2 3.3,9.5 8,9.5 1.2,0 2.5,-0.3 3.8,-1 l 111.8,-58.8 c 1.2,-0.6 2.5,-0.9 3.8,-0.9 1.3,0 2.6,0.3 3.8,0.9 l 111.8,58.8 c 1.2,0.6 2.5,1 3.8,1 4.7,0 8.9,-4.2 8,-9.5 L 356,280.1 c -0.5,-2.6 0.4,-5.3 2.3,-7.2 l 90.4,-88.1 c 4.8,-4.7 2.1,-12.9 -4.5,-13.8 l -125,-18.2 c -2.6,-0.4 -4.9,-2 -6.1,-4.4 L 257.3,35.3 c -1.5,-3 -4.4,-4.5 -7.3,-4.5 z"
   id="path19"
   style="fill:url(#SVGID_1_)" />
</g><g
     id="g41">
	<path
   class="st3"
   d="m 141.1,350.2 c -1.5,0 -2.7,-0.5 -3.7,-1.5 -1,-1 -1.4,-2.4 -1.4,-4.1 0,-1.8 1.1,-7.5 3.2,-17 2.1,-9.5 3.2,-16.5 3.2,-20.7 l -0.4,-2.8 c 3.3,-1.2 6.5,-1.7 9.4,-1.7 0.4,0.6 0.6,1.6 0.6,3.1 0,3.4 -1.1,10 -3.2,19.9 -2.2,9.8 -3.2,15.5 -3.2,17.1 0,1.6 0.2,2.4 0.6,2.4 l 4.5,-1.6 1.2,2.2 c -1.5,1.2 -3.2,2.2 -5.3,3.2 -2.2,1.1 -4,1.5 -5.5,1.5 z"
   id="path23" />
	<path
   class="st3"
   d="m 172.4,322.9 c 0.1,-0.1 0.3,-0.6 0.7,-1.7 2,0 4.7,0.6 8.1,1.8 -1.1,3.6 -1.9,7.3 -2.6,11.1 -0.6,3.9 -1,6.6 -1,8.3 0,1.7 0.2,2.5 0.5,2.5 0.3,0 1.2,-0.4 2.8,-1.2 l 0.8,-0.4 1.2,2.2 c -0.4,0.3 -0.9,0.8 -1.5,1.3 -0.6,0.5 -1.8,1.2 -3.5,2.1 -1.7,0.9 -3.3,1.3 -4.6,1.3 -2.7,0 -4.2,-1.2 -4.6,-3.6 -2.7,2.4 -5.2,3.6 -7.4,3.6 -2.2,0 -4.1,-0.9 -5.6,-2.6 -1.5,-1.7 -2.3,-4.4 -2.3,-8.1 0,-5.7 1.2,-10.3 3.5,-13.6 2.4,-3.3 5.2,-5 8.5,-5 2.5,0.1 4.8,0.7 7,2 z m -7.3,21.9 c 1,0 2.2,-0.4 3.5,-1.2 0.3,-6 1.3,-12 3,-17.9 -1.3,-0.6 -2.4,-0.8 -3.3,-0.8 -1.5,0 -2.9,1.5 -3.9,4.5 -1,3 -1.6,6.4 -1.6,10 -0.1,3.6 0.7,5.4 2.3,5.4 z"
   id="path25" />
	<path
   class="st3"
   d="m 203.2,341.1 c 0,2.7 -1.2,4.9 -3.6,6.6 -2.4,1.7 -5.1,2.6 -8.1,2.6 -3,0 -5.4,-0.6 -7.2,-1.9 -1.8,-1.3 -2.7,-2.4 -2.7,-3.4 0,-0.6 0.8,-1.6 2.2,-2.9 1.4,-1.3 2.8,-2.2 3.8,-2.5 2.1,1.6 3.9,4.1 5.3,7.5 1.6,-0.1 2.4,-0.9 2.4,-2.2 0,-2 -1.7,-4.8 -5.2,-8.4 -3.5,-3.6 -5.2,-6.5 -5.2,-8.6 0,-2.1 1,-3.8 2.9,-5 1.9,-1.2 4.2,-1.8 7,-1.8 2.8,0 4.8,0.5 6.1,1.4 1.4,1 2.1,2.3 2.1,3.9 0,1.6 -1.3,3.9 -3.9,6.8 0.3,0.3 0.7,0.7 1.2,1.2 0.5,0.5 1.1,1.4 1.9,2.8 0.6,1.4 1,2.7 1,3.9 z m -3.5,-14.7 c 0,-1.5 -1,-2.2 -3.1,-2.2 -1,0 -1.8,0.2 -2.4,0.6 -0.6,0.4 -1,0.9 -1,1.4 0,0.9 0.9,2.3 2.8,4 l 1,0.8 c 1.8,-1.6 2.7,-3.1 2.7,-4.6 z"
   id="path27" />
	<path
   class="st3"
   d="m 220.3,349.7 h -0.4 c -0.1,-0.3 -0.1,-1.1 -0.1,-2.3 0,-1.2 0.6,-4.5 1.7,-9.9 1.2,-5.4 1.7,-8.4 1.7,-9.2 0,-1.3 -0.6,-2.8 -1.8,-4.4 l -0.6,-0.8 0.1,-0.8 c 2.3,-0.6 6,-1 11.1,-1 0.5,1.1 0.8,2.7 0.8,4.7 0.5,-0.8 1.5,-1.8 3,-3.1 1.5,-1.3 3,-1.9 4.6,-1.9 2.3,0 3.5,2 3.5,6 -0.2,0.3 -0.5,0.6 -0.9,1 -0.4,0.4 -1.1,1 -2.2,1.7 -1.1,0.7 -2.1,1.2 -3.2,1.4 0,0 -0.4,-0.6 -1.1,-1.7 -0.7,-1.2 -1.2,-1.7 -1.5,-1.7 -1.1,0.4 -2,1 -2.8,1.9 -2,8.9 -2.9,14.6 -2.9,17.2 0,0.9 0,1.6 0.1,2 -1.7,0.6 -4.7,0.9 -9.1,0.9 z"
   id="path29" />
	<path
   class="st3"
   d="m 242.1,338.4 c 0,-5.4 1.6,-9.6 4.9,-12.7 3.2,-3.1 6.9,-4.7 11,-4.7 2.5,0 4.6,0.6 6.2,1.9 1.6,1.3 2.4,2.9 2.4,5 0,2.1 -0.5,3.8 -1.6,5.2 -1,1.4 -2.3,2.5 -3.8,3.3 -3,1.5 -5.8,2.4 -8.4,2.8 l -1.5,0.2 c 0.3,4 1.9,6 4.9,6 1,0 2.1,-0.3 3.3,-0.8 1.2,-0.5 2.1,-1 2.7,-1.5 l 1,-0.8 1.5,2.1 c -0.3,0.5 -1,1.1 -2,1.9 -1,0.8 -2,1.4 -2.9,1.9 -2.5,1.4 -5.2,2.1 -8.2,2.1 -2.9,0 -5.3,-1 -7,-3.1 -1.7,-2.2 -2.5,-5.1 -2.5,-8.8 z m 14.4,-4.9 c 1.3,-1.5 1.9,-3.3 1.9,-5.6 0,-2.3 -0.7,-3.5 -2,-3.5 -1.6,0 -2.9,1.4 -3.8,4.1 -0.9,2.8 -1.3,5.3 -1.3,7.7 2.2,-0.3 3.9,-1.3 5.2,-2.7 z"
   id="path31" />
	<path
   class="st3"
   d="m 295.2,321.5 c 0.2,0.2 0.3,0.5 0.3,1.1 0,0.6 0,1.2 -0.1,1.9 -0.1,0.7 -0.2,2.1 -0.5,4.5 -0.2,2.3 -0.4,4.3 -0.6,6 -2.2,19.3 -8,28.9 -17.6,28.9 -1.5,0 -3,-0.4 -4.2,-1.2 -1.3,-0.8 -1.9,-1.9 -1.9,-3.1 0,-1.7 1,-3.3 3.1,-4.7 2.1,-1.4 4.9,-2.5 8.5,-3.3 0,0 0.1,-0.6 0.4,-1.8 0.3,-1.2 0.4,-2.1 0.5,-2.8 -2.6,1.9 -5,2.8 -7.2,2.8 -2.2,0 -4.1,-0.9 -5.5,-2.6 -1.4,-1.8 -2.1,-4.6 -2.1,-8.4 0,-5 1.1,-9.3 3.4,-12.6 2.3,-3.3 5.3,-5 9,-5 2.1,0 4.2,0.5 6.2,1.5 2.2,-0.8 4.5,-1.2 7.1,-1.2 z m -19.1,34.9 c -1.4,0.9 -2.1,1.7 -2.1,2.5 0,0.8 0.5,1.2 1.4,1.2 0.9,0 2,-0.4 3.1,-1.3 1.1,-0.9 2.1,-2.3 2.9,-4.3 -2.1,0.4 -3.9,1.1 -5.3,1.9 z m 7.3,-31.6 c -1.8,0 -3.3,1.5 -4.4,4.5 -1.1,3 -1.6,6.3 -1.6,9.9 0,3.6 0.8,5.4 2.4,5.4 1.1,0 2.3,-0.4 3.8,-1.2 1.2,-7.2 2.1,-13.1 2.6,-17.8 -1.2,-0.5 -2.1,-0.8 -2.8,-0.8 z"
   id="path33" />
	<path
   class="st3"
   d="m 302.7,350.2 c -1.5,0 -2.7,-0.5 -3.7,-1.5 -1,-1 -1.4,-2.4 -1.4,-4.1 0,-1.8 1.1,-7.5 3.2,-17 2.1,-9.6 3.2,-16.5 3.2,-20.7 l -0.4,-2.8 c 3.3,-1.2 6.5,-1.7 9.4,-1.7 0.4,0.6 0.6,1.6 0.6,3.1 0,3.4 -1.1,10 -3.2,19.9 -2.2,9.8 -3.2,15.5 -3.2,17.1 0,1.6 0.2,2.4 0.6,2.4 l 4.5,-1.6 1.2,2.2 c -1.5,1.2 -3.2,2.2 -5.3,3.2 -2.2,1.1 -4,1.5 -5.5,1.5 z"
   id="path35" />
	<path
   class="st3"
   d="m 334,322.9 c 0.1,-0.1 0.3,-0.6 0.7,-1.7 2,0 4.7,0.6 8.1,1.8 -1.1,3.6 -1.9,7.3 -2.6,11.1 -0.7,3.8 -1,6.6 -1,8.3 0,1.7 0.2,2.5 0.5,2.5 0.3,0 1.2,-0.4 2.8,-1.2 l 0.8,-0.4 1.2,2.2 c -0.4,0.3 -0.9,0.8 -1.5,1.3 -0.6,0.5 -1.8,1.2 -3.5,2.1 -1.7,0.9 -3.2,1.3 -4.6,1.3 -2.7,0 -4.2,-1.2 -4.6,-3.6 -2.7,2.4 -5.2,3.6 -7.4,3.6 -2.2,0 -4.1,-0.9 -5.6,-2.6 -1.5,-1.7 -2.3,-4.4 -2.3,-8.1 0,-5.7 1.2,-10.3 3.5,-13.6 2.3,-3.3 5.2,-5 8.5,-5 2.4,0.1 4.7,0.7 7,2 z m -7.4,21.9 c 1,0 2.2,-0.4 3.5,-1.2 0.3,-6 1.3,-12 3,-17.9 -1.3,-0.6 -2.4,-0.8 -3.3,-0.8 -1.5,0 -2.9,1.5 -4,4.5 -1.1,3 -1.6,6.4 -1.6,10 0.1,3.6 0.8,5.4 2.4,5.4 z"
   id="path37" />
	<path
   class="st3"
   d="m 364.7,341.1 c 0,2.7 -1.2,4.9 -3.6,6.6 -2.4,1.7 -5.1,2.6 -8.1,2.6 -3,0 -5.5,-0.6 -7.2,-1.9 -1.8,-1.3 -2.7,-2.4 -2.7,-3.4 0,-0.6 0.8,-1.6 2.2,-2.9 1.4,-1.3 2.8,-2.2 3.8,-2.5 2.1,1.6 3.9,4.1 5.3,7.5 1.6,-0.1 2.4,-0.9 2.4,-2.2 0,-2 -1.7,-4.8 -5.2,-8.4 -3.5,-3.6 -5.2,-6.5 -5.2,-8.6 0,-2.1 1,-3.8 2.9,-5 1.9,-1.2 4.2,-1.8 7,-1.8 2.8,0 4.8,0.5 6.1,1.4 1.3,0.9 2.1,2.3 2.1,3.9 0,1.6 -1.3,3.9 -3.9,6.8 0.3,0.3 0.7,0.7 1.2,1.2 0.5,0.5 1.1,1.4 1.9,2.8 0.7,1.4 1,2.7 1,3.9 z m -3.4,-14.7 c 0,-1.5 -1,-2.2 -3.1,-2.2 -1,0 -1.8,0.2 -2.4,0.6 -0.6,0.4 -1,0.9 -1,1.4 0,0.9 0.9,2.3 2.8,4 l 1,0.8 c 1.8,-1.6 2.7,-3.1 2.7,-4.6 z"
   id="path39" />
</g><g
     id="g61">
	<path
   class="st0"
   d="m 141.1,350.2 c -1.5,0 -2.7,-0.5 -3.7,-1.5 -1,-1 -1.4,-2.4 -1.4,-4.1 0,-1.8 1.1,-7.5 3.2,-17 2.1,-9.5 3.2,-16.5 3.2,-20.7 l -0.4,-2.8 c 3.3,-1.2 6.5,-1.7 9.4,-1.7 0.4,0.6 0.6,1.6 0.6,3.1 0,3.4 -1.1,10 -3.2,19.9 -2.2,9.8 -3.2,15.5 -3.2,17.1 0,1.6 0.2,2.4 0.6,2.4 l 4.5,-1.6 1.2,2.2 c -1.5,1.2 -3.2,2.2 -5.3,3.2 -2.2,1.1 -4,1.5 -5.5,1.5 z"
   id="path43" />
	<path
   class="st0"
   d="m 172.4,322.9 c 0.1,-0.1 0.3,-0.6 0.7,-1.7 2,0 4.7,0.6 8.1,1.8 -1.1,3.6 -1.9,7.3 -2.6,11.1 -0.6,3.9 -1,6.6 -1,8.3 0,1.7 0.2,2.5 0.5,2.5 0.3,0 1.2,-0.4 2.8,-1.2 l 0.8,-0.4 1.2,2.2 c -0.4,0.3 -0.9,0.8 -1.5,1.3 -0.6,0.5 -1.8,1.2 -3.5,2.1 -1.7,0.9 -3.3,1.3 -4.6,1.3 -2.7,0 -4.2,-1.2 -4.6,-3.6 -2.7,2.4 -5.2,3.6 -7.4,3.6 -2.2,0 -4.1,-0.9 -5.6,-2.6 -1.5,-1.7 -2.3,-4.4 -2.3,-8.1 0,-5.7 1.2,-10.3 3.5,-13.6 2.4,-3.3 5.2,-5 8.5,-5 2.5,0.1 4.8,0.7 7,2 z m -7.3,21.9 c 1,0 2.2,-0.4 3.5,-1.2 0.3,-6 1.3,-12 3,-17.9 -1.3,-0.6 -2.4,-0.8 -3.3,-0.8 -1.5,0 -2.9,1.5 -3.9,4.5 -1,3 -1.6,6.4 -1.6,10 -0.1,3.6 0.7,5.4 2.3,5.4 z"
   id="path45" />
	<path
   class="st0"
   d="m 203.2,341.1 c 0,2.7 -1.2,4.9 -3.6,6.6 -2.4,1.7 -5.1,2.6 -8.1,2.6 -3,0 -5.4,-0.6 -7.2,-1.9 -1.8,-1.3 -2.7,-2.4 -2.7,-3.4 0,-0.6 0.8,-1.6 2.2,-2.9 1.4,-1.3 2.8,-2.2 3.8,-2.5 2.1,1.6 3.9,4.1 5.3,7.5 1.6,-0.1 2.4,-0.9 2.4,-2.2 0,-2 -1.7,-4.8 -5.2,-8.4 -3.5,-3.6 -5.2,-6.5 -5.2,-8.6 0,-2.1 1,-3.8 2.9,-5 1.9,-1.2 4.2,-1.8 7,-1.8 2.8,0 4.8,0.5 6.1,1.4 1.4,1 2.1,2.3 2.1,3.9 0,1.6 -1.3,3.9 -3.9,6.8 0.3,0.3 0.7,0.7 1.2,1.2 0.5,0.5 1.1,1.4 1.9,2.8 0.6,1.4 1,2.7 1,3.9 z m -3.5,-14.7 c 0,-1.5 -1,-2.2 -3.1,-2.2 -1,0 -1.8,0.2 -2.4,0.6 -0.6,0.4 -1,0.9 -1,1.4 0,0.9 0.9,2.3 2.8,4 l 1,0.8 c 1.8,-1.6 2.7,-3.1 2.7,-4.6 z"
   id="path47" />
	<path
   class="st0"
   d="m 220.3,349.7 h -0.4 c -0.1,-0.3 -0.1,-1.1 -0.1,-2.3 0,-1.2 0.6,-4.5 1.7,-9.9 1.2,-5.4 1.7,-8.4 1.7,-9.2 0,-1.3 -0.6,-2.8 -1.8,-4.4 l -0.6,-0.8 0.1,-0.8 c 2.3,-0.6 6,-1 11.1,-1 0.5,1.1 0.8,2.7 0.8,4.7 0.5,-0.8 1.5,-1.8 3,-3.1 1.5,-1.3 3,-1.9 4.6,-1.9 2.3,0 3.5,2 3.5,6 -0.2,0.3 -0.5,0.6 -0.9,1 -0.4,0.4 -1.1,1 -2.2,1.7 -1.1,0.7 -2.1,1.2 -3.2,1.4 0,0 -0.4,-0.6 -1.1,-1.7 -0.7,-1.2 -1.2,-1.7 -1.5,-1.7 -1.1,0.4 -2,1 -2.8,1.9 -2,8.9 -2.9,14.6 -2.9,17.2 0,0.9 0,1.6 0.1,2 -1.7,0.6 -4.7,0.9 -9.1,0.9 z"
   id="path49" />
	<path
   class="st0"
   d="m 242.1,338.4 c 0,-5.4 1.6,-9.6 4.9,-12.7 3.2,-3.1 6.9,-4.7 11,-4.7 2.5,0 4.6,0.6 6.2,1.9 1.6,1.3 2.4,2.9 2.4,5 0,2.1 -0.5,3.8 -1.6,5.2 -1,1.4 -2.3,2.5 -3.8,3.3 -3,1.5 -5.8,2.4 -8.4,2.8 l -1.5,0.2 c 0.3,4 1.9,6 4.9,6 1,0 2.1,-0.3 3.3,-0.8 1.2,-0.5 2.1,-1 2.7,-1.5 l 1,-0.8 1.5,2.1 c -0.3,0.5 -1,1.1 -2,1.9 -1,0.8 -2,1.4 -2.9,1.9 -2.5,1.4 -5.2,2.1 -8.2,2.1 -2.9,0 -5.3,-1 -7,-3.1 -1.7,-2.2 -2.5,-5.1 -2.5,-8.8 z m 14.4,-4.9 c 1.3,-1.5 1.9,-3.3 1.9,-5.6 0,-2.3 -0.7,-3.5 -2,-3.5 -1.6,0 -2.9,1.4 -3.8,4.1 -0.9,2.8 -1.3,5.3 -1.3,7.7 2.2,-0.3 3.9,-1.3 5.2,-2.7 z"
   id="path51" />
	<path
   class="st0"
   d="m 295.2,321.5 c 0.2,0.2 0.3,0.5 0.3,1.1 0,0.6 0,1.2 -0.1,1.9 -0.1,0.7 -0.2,2.1 -0.5,4.5 -0.2,2.3 -0.4,4.3 -0.6,6 -2.2,19.3 -8,28.9 -17.6,28.9 -1.5,0 -3,-0.4 -4.2,-1.2 -1.3,-0.8 -1.9,-1.9 -1.9,-3.1 0,-1.7 1,-3.3 3.1,-4.7 2.1,-1.4 4.9,-2.5 8.5,-3.3 0,0 0.1,-0.6 0.4,-1.8 0.3,-1.2 0.4,-2.1 0.5,-2.8 -2.6,1.9 -5,2.8 -7.2,2.8 -2.2,0 -4.1,-0.9 -5.5,-2.6 -1.4,-1.8 -2.1,-4.6 -2.1,-8.4 0,-5 1.1,-9.3 3.4,-12.6 2.3,-3.3 5.3,-5 9,-5 2.1,0 4.2,0.5 6.2,1.5 2.2,-0.8 4.5,-1.2 7.1,-1.2 z m -19.1,34.9 c -1.4,0.9 -2.1,1.7 -2.1,2.5 0,0.8 0.5,1.2 1.4,1.2 0.9,0 2,-0.4 3.1,-1.3 1.1,-0.9 2.1,-2.3 2.9,-4.3 -2.1,0.4 -3.9,1.1 -5.3,1.9 z m 7.3,-31.6 c -1.8,0 -3.3,1.5 -4.4,4.5 -1.1,3 -1.6,6.3 -1.6,9.9 0,3.6 0.8,5.4 2.4,5.4 1.1,0 2.3,-0.4 3.8,-1.2 1.2,-7.2 2.1,-13.1 2.6,-17.8 -1.2,-0.5 -2.1,-0.8 -2.8,-0.8 z"
   id="path53" />
	<path
   class="st0"
   d="m 302.7,350.2 c -1.5,0 -2.7,-0.5 -3.7,-1.5 -1,-1 -1.4,-2.4 -1.4,-4.1 0,-1.8 1.1,-7.5 3.2,-17 2.1,-9.6 3.2,-16.5 3.2,-20.7 l -0.4,-2.8 c 3.3,-1.2 6.5,-1.7 9.4,-1.7 0.4,0.6 0.6,1.6 0.6,3.1 0,3.4 -1.1,10 -3.2,19.9 -2.2,9.8 -3.2,15.5 -3.2,17.1 0,1.6 0.2,2.4 0.6,2.4 l 4.5,-1.6 1.2,2.2 c -1.5,1.2 -3.2,2.2 -5.3,3.2 -2.2,1.1 -4,1.5 -5.5,1.5 z"
   id="path55" />
	<path
   class="st0"
   d="m 334,322.9 c 0.1,-0.1 0.3,-0.6 0.7,-1.7 2,0 4.7,0.6 8.1,1.8 -1.1,3.6 -1.9,7.3 -2.6,11.1 -0.7,3.8 -1,6.6 -1,8.3 0,1.7 0.2,2.5 0.5,2.5 0.3,0 1.2,-0.4 2.8,-1.2 l 0.8,-0.4 1.2,2.2 c -0.4,0.3 -0.9,0.8 -1.5,1.3 -0.6,0.5 -1.8,1.2 -3.5,2.1 -1.7,0.9 -3.2,1.3 -4.6,1.3 -2.7,0 -4.2,-1.2 -4.6,-3.6 -2.7,2.4 -5.2,3.6 -7.4,3.6 -2.2,0 -4.1,-0.9 -5.6,-2.6 -1.5,-1.7 -2.3,-4.4 -2.3,-8.1 0,-5.7 1.2,-10.3 3.5,-13.6 2.3,-3.3 5.2,-5 8.5,-5 2.4,0.1 4.7,0.7 7,2 z m -7.4,21.9 c 1,0 2.2,-0.4 3.5,-1.2 0.3,-6 1.3,-12 3,-17.9 -1.3,-0.6 -2.4,-0.8 -3.3,-0.8 -1.5,0 -2.9,1.5 -4,4.5 -1.1,3 -1.6,6.4 -1.6,10 0.1,3.6 0.8,5.4 2.4,5.4 z"
   id="path57" />
	<path
   class="st0"
   d="m 364.7,341.1 c 0,2.7 -1.2,4.9 -3.6,6.6 -2.4,1.7 -5.1,2.6 -8.1,2.6 -3,0 -5.5,-0.6 -7.2,-1.9 -1.8,-1.3 -2.7,-2.4 -2.7,-3.4 0,-0.6 0.8,-1.6 2.2,-2.9 1.4,-1.3 2.8,-2.2 3.8,-2.5 2.1,1.6 3.9,4.1 5.3,7.5 1.6,-0.1 2.4,-0.9 2.4,-2.2 0,-2 -1.7,-4.8 -5.2,-8.4 -3.5,-3.6 -5.2,-6.5 -5.2,-8.6 0,-2.1 1,-3.8 2.9,-5 1.9,-1.2 4.2,-1.8 7,-1.8 2.8,0 4.8,0.5 6.1,1.4 1.3,0.9 2.1,2.3 2.1,3.9 0,1.6 -1.3,3.9 -3.9,6.8 0.3,0.3 0.7,0.7 1.2,1.2 0.5,0.5 1.1,1.4 1.9,2.8 0.7,1.4 1,2.7 1,3.9 z m -3.4,-14.7 c 0,-1.5 -1,-2.2 -3.1,-2.2 -1,0 -1.8,0.2 -2.4,0.6 -0.6,0.4 -1,0.9 -1,1.4 0,0.9 0.9,2.3 2.8,4 l 1,0.8 c 1.8,-1.6 2.7,-3.1 2.7,-4.6 z"
   id="path59" />
</g><g
     id="g85">
	<g
   id="g83">
		<defs
   id="defs64">
			<polygon
   id="SVGID_2_"
   points="111.1,222.5 136,289.5 380.8,289.5 374.4,229.9 313.8,43.9 119.9,99 " />
		</defs>
		<clipPath
   id="SVGID_3_">
			<use
   xlink:href="#SVGID_2_"
   style="overflow:visible"
   id="use66"
   x="0"
   y="0"
   width="100%"
   height="100%" />
		</clipPath>
		<g
   class="st4"
   clip-path="url(#SVGID_3_)"
   id="g81">
			<path
   class="st5"
   d="m 313.8,52.9 -174.4,48 c -11.6,3.2 -18.4,15.2 -15.2,26.8 l 50.4,182.9 189.1,-76.1 z"
   id="path69" />
			<path
   class="st6"
   d="m 169.7,122.6 -22.6,6.2 c -11.6,3.2 -18.4,15.2 -15.2,26.8 l 9.6,34.8 c -3.2,-11.6 3.6,-23.6 15.2,-26.8 l 22.5,-6.2 z"
   id="path71" />
			<path
   class="st6"
   d="m 194.7,213.4 -22.6,6.2 c -11.6,3.2 -18.4,15.2 -15.2,26.8 l 9.6,34.8 c -3.2,-11.6 3.6,-23.6 15.2,-26.8 l 22.5,-6.2 z"
   id="path73" />
			<polygon
   class="st7"
   points="283.3,105.6 265.9,136.2 246.5,65.8 270.5,59.2 294.6,52.6 313.9,123 "
   id="polygon75" />
			<path
   class="st8"
   d="m 354.6,259.5 c -3.2,-11.6 0.9,-22.8 9.2,-25.1 L 194,281.1 c -11.6,3.2 -18.4,15.2 -15.2,26.8 3.2,11.6 15.2,18.4 26.8,15.2 l 168.3,-46.4 c -7.9,1.1 -16.3,-6.3 -19.3,-17.2 z"
   id="path77" />
			<path
   class="st9"
   d="m 206.9,327.8 c -14.1,3.9 -28.8,-4.5 -32.7,-18.6 -3.9,-14.1 4.4,-28.8 18.6,-32.7 l 169.8,-46.7 2.6,9.3 -169.8,46.7 c -9,2.5 -14.3,11.8 -11.8,20.8 2.5,9 11.8,14.3 20.8,11.8 l 169.6,-46.8 2.6,9.3 z"
   id="path79" />
		</g>
	</g>
</g></g>
</svg>
