<?xml version="1.0" encoding="UTF-8" standalone="no"?>
<svg
   xmlns:dc="http://purl.org/dc/elements/1.1/"
   xmlns:cc="http://creativecommons.org/ns#"
   xmlns:rdf="http://www.w3.org/1999/02/22-rdf-syntax-ns#"
   xmlns:svg="http://www.w3.org/2000/svg"
   xmlns="http://www.w3.org/2000/svg"
   xmlns:xlink="http://www.w3.org/1999/xlink"
   xmlns:sodipodi="http://sodipodi.sourceforge.net/DTD/sodipodi-0.dtd"
   xmlns:inkscape="http://www.inkscape.org/namespaces/inkscape"
   version="1.1"
   id="Layer_1_copy"
   x="0px"
   y="0px"
   viewBox="0 0 597.85065 572.79999"
   xml:space="preserve"
   sodipodi:docname="b_mis_tareas.svg"
   width="597.85065"
   height="572.79999"
   inkscape:version="1.0.1 (3bc2e813f5, 2020-09-07)"><metadata
   id="metadata178"><rdf:RDF><cc:Work
       rdf:about=""><dc:format>image/svg+xml</dc:format><dc:type
         rdf:resource="http://purl.org/dc/dcmitype/StillImage" /><dc:title></dc:title></cc:Work></rdf:RDF></metadata><defs
   id="defs176">
	
		
	
</defs><sodipodi:namedview
   pagecolor="#ffffff"
   bordercolor="#666666"
   borderopacity="1"
   objecttolerance="10"
   gridtolerance="10"
   guidetolerance="10"
   inkscape:pageopacity="0"
   inkscape:pageshadow="2"
   inkscape:window-width="1920"
   inkscape:window-height="1017"
   id="namedview174"
   showgrid="false"
   fit-margin-top="0"
   fit-margin-left="0"
   fit-margin-right="0"
   fit-margin-bottom="0"
   inkscape:zoom="0.32692308"
   inkscape:cx="-871.84775"
   inkscape:cy="-234.25811"
   inkscape:window-x="-8"
   inkscape:window-y="-8"
   inkscape:window-maximized="1"
   inkscape:current-layer="Layer_1_copy" />
<style
   type="text/css"
   id="style2">
	.st0{fill:#FFFFFF;}
	.st1{fill:#FFC600;}
	.st2{fill:url(#SVGID_1_);}
	.st3{clip-path:url(#SVGID_3_);}
	.st4{fill:#80847E;}
	.st5{fill:#A0A39E;}
	.st6{fill:#C0C2BE;}
	.st7{fill:#DFE0DF;}
	.st8{fill:#DEE0DD;}
	.st9{fill:#383A37;}
	.st10{fill:#161E14;}
	.st11{fill:none;stroke:#FFC600;stroke-width:17.9722;stroke-miterlimit:10;}
</style>




<g
   id="g315"
   transform="translate(-26.146489,-38.6)"><g
     id="g8">
		<path
   class="st0"
   d="m 325,38.6 c -16.1,0 -30.5,9 -37.6,23.4 l -10.6,21.5 -140.7,49.1 c -16.2,5.7 -24.8,23.4 -19.2,39.7 l 1.2,3.6 c -0.4,0.4 -0.7,0.8 -1.1,1.2 -10.7,12.3 -14.2,28 -9.2,42.2 L 62,225.8 c -15.9,2.3 -28.9,13.2 -33.8,28.5 -4.9,15.3 -0.9,31.8 10.6,43 l 112.7,109.9 -2.2,12.6 -3.8,1 c -12.6,3.5 -21.7,14.5 -22.7,27.6 l -0.8,10.8 c -0.3,4.2 0.2,8.4 1.5,12.3 -2.2,10.4 -3.1,17 -3.1,22.7 v 9 c 0,9.3 4.1,17.7 10.6,23.4 l -6.1,35.7 c -2.1,12.2 1.3,24.6 9.2,34.1 8,9.5 19.7,15 32.1,15 6.7,0 13.5,-1.7 19.5,-4.8 l 136.6,-71.8 c 2.1,0.3 4.2,0.5 6.3,0.5 l 135.7,71.3 c 6,3.2 12.8,4.8 19.5,4.8 12.4,0 24.1,-5.5 32.1,-15 8,-9.4 11.3,-21.9 9.2,-34.1 l -7.7,-44.6 c 9,-9.4 14,-21.7 14,-34.9 0,-3.6 -0.4,-7.2 -1.2,-10.7 0.6,-2.9 0.9,-5.8 0.9,-8.8 0,-11.4 -4,-22 -11.2,-30.4 7.2,-8.2 9.9,-19.9 6.1,-30.9 l -5.6,-16.1 90.9,-88.6 c 11.5,-11.2 15.6,-27.7 10.6,-43 -5,-15.3 -17.9,-26.2 -33.8,-28.5 L 458,206.9 417,89.3 l -1.7,-4.8 -1.7,-4.8 -1.7,-4.8 -1.7,-4.8 c -2.7,-7.8 -8.4,-14.2 -15.9,-17.8 -4.3,-2.1 -8.9,-3.1 -13.5,-3.1 -3.5,0 -6.9,0.6 -10.3,1.7 l -12.2,4.3 C 350.5,44.8 338.3,38.6 325,38.6 Z"
   id="path6" />
	</g><g
     id="g21">
	<path
   class="st1"
   d="m 334.7,75.8 74.4,150.7 c 1.6,3.2 4.6,5.4 8.1,5.9 l 166.4,24.2 c 8.8,1.3 12.4,12.1 6,18.4 L 469.1,392.4 c -2.5,2.5 -3.7,6 -3.1,9.5 l 28.4,165.7 c 1.5,8.8 -7.7,15.5 -15.6,11.4 L 330,500.7 c -3.1,-1.6 -6.9,-1.6 -10,0 l -148.8,78.2 c -7.9,4.2 -17.2,-2.6 -15.6,-11.4 L 184,401.9 c 0.6,-3.5 -0.6,-7.1 -3.1,-9.5 L 60.5,275 c -6.4,-6.2 -2.9,-17.1 6,-18.4 l 166.4,-24.2 c 3.5,-0.5 6.6,-2.7 8.1,-5.9 L 315.4,75.8 c 3.9,-8 15.3,-8 19.3,0 z"
   id="path12" />
	
		<linearGradient
   id="SVGID_1_"
   gradientUnits="userSpaceOnUse"
   x1="325.00119"
   y1="69.800003"
   x2="325.00119"
   y2="580.21002"
   gradientTransform="matrix(1,0,0,-1,0,650)">
		<stop
   offset="0"
   style="stop-color:#FFD74B"
   id="stop14" />
		<stop
   offset="1"
   style="stop-color:#FFC600"
   id="stop16" />
	</linearGradient>
	<path
   class="st2"
   d="m 325,96.8 68,137.7 c 4.2,8.5 12.3,14.4 21.6,15.7 l 151.9,22.1 -109.9,107.2 c -6.8,6.6 -9.9,16.1 -8.3,25.5 l 26,151.3 -135.9,-71.5 c -4.1,-2.2 -8.7,-3.3 -13.4,-3.3 -4.7,0 -9.3,1.1 -13.4,3.3 L 175.7,556.3 201.6,405 c 1.6,-9.3 -1.5,-18.8 -8.3,-25.5 L 83.5,272.3 235.4,250.2 c 9.4,-1.4 17.5,-7.2 21.6,-15.7 L 325,96.8 m 0,-27 c -3.9,0 -7.7,2 -9.7,6 l -74.4,150.7 c -1.6,3.2 -4.6,5.4 -8.1,5.9 L 66.5,256.6 c -8.8,1.3 -12.4,12.1 -6,18.4 l 120.4,117.3 c 2.5,2.5 3.7,6 3.1,9.5 l -28.4,165.7 c -1.2,7 4.3,12.6 10.6,12.6 1.7,0 3.4,-0.4 5,-1.3 L 320,500.7 c 1.6,-0.8 3.3,-1.2 5,-1.2 1.7,0 3.5,0.4 5,1.2 l 148.8,78.2 c 1.6,0.9 3.4,1.3 5,1.3 6.3,0 11.8,-5.7 10.6,-12.6 L 466,401.9 c -0.6,-3.5 0.6,-7.1 3.1,-9.5 L 589.5,275 c 6.4,-6.2 2.9,-17.1 -6,-18.4 L 417.1,232.4 c -3.5,-0.5 -6.5,-2.7 -8.1,-5.9 L 334.7,75.8 c -2,-4 -5.8,-6 -9.7,-6 z"
   id="path19"
   style="fill:url(#SVGID_1_)" />
</g><g
     id="g131">
	<g
   id="g129">
		<defs
   id="defs24">
			<polygon
   id="SVGID_2_"
   points="518.3,414.1 171.9,414.1 121.1,296.8 132.1,154.9 392.6,69.8 " />
		</defs>
		<clipPath
   id="SVGID_3_">
			<use
   xlink:href="#SVGID_2_"
   style="overflow:visible"
   id="use26"
   x="0"
   y="0"
   width="100%"
   height="100%" />
		</clipPath>
		<g
   class="st3"
   clip-path="url(#SVGID_3_)"
   id="g127">
			<polygon
   class="st4"
   points="153.1,181.3 387.5,99.5 496.6,412.3 262.2,494 "
   id="polygon29" />
			<polygon
   class="st5"
   points="151.4,176.5 385.9,94.7 494.9,407.4 260.5,489.2 "
   id="polygon31" />
			<polygon
   class="st6"
   points="149.7,171.6 384.2,89.9 493.2,402.6 258.8,484.4 "
   id="polygon33" />
			<polygon
   class="st7"
   points="148.1,166.8 382.5,85 491.5,397.8 257.1,479.5 "
   id="polygon35" />
			<polygon
   class="st0"
   points="146.4,162 380.8,80.2 489.8,392.9 255.4,474.7 "
   id="polygon37" />
			
				<rect
   x="419.10001"
   y="342.79999"
   transform="matrix(0.9442,-0.3294,0.3294,0.9442,-98.01,169.1644)"
   class="st8"
   width="62.200001"
   height="62.099998"
   id="rect39" />
			<polygon
   class="st8"
   points="381.6,145.3 381.8,145.9 205.9,207.2 205.7,206.7 "
   id="polygon41" />
			<polygon
   class="st8"
   points="388.4,164.9 388.6,165.4 212.7,226.7 212.5,226.2 "
   id="polygon43" />
			<polygon
   class="st8"
   points="395.2,184.4 395.4,184.9 219.5,246.3 219.3,245.8 "
   id="polygon45" />
			<polygon
   class="st8"
   points="402,203.9 402.2,204.4 226.3,265.8 226.1,265.3 "
   id="polygon47" />
			<polygon
   class="st8"
   points="408.8,223.5 409,224 233.1,285.3 232.9,284.8 "
   id="polygon49" />
			<polygon
   class="st8"
   points="415.6,243 415.8,243.5 239.9,304.9 239.8,304.4 "
   id="polygon51" />
			<polygon
   class="st8"
   points="422.5,262.5 422.6,263.1 246.8,324.4 246.6,323.9 "
   id="polygon53" />
			
				<rect
   x="248.3"
   y="312.70001"
   transform="matrix(0.9439,-0.3302,0.3302,0.9439,-84.1982,130.2957)"
   class="st8"
   width="186.3"
   height="0.5"
   id="rect55" />
			
				<rect
   x="255.10001"
   y="332.20001"
   transform="matrix(0.9439,-0.3302,0.3302,0.9439,-90.2668,133.6441)"
   class="st8"
   width="186.3"
   height="0.5"
   id="rect57" />
			
				<rect
   x="261.89999"
   y="351.79999"
   transform="matrix(0.9439,-0.3302,0.3302,0.9439,-96.337,136.9896)"
   class="st8"
   width="186.3"
   height="0.5"
   id="rect59" />
			
				<rect
   x="268.70001"
   y="371.29999"
   transform="matrix(0.9439,-0.3302,0.3302,0.9439,-102.4043,140.3336)"
   class="st8"
   width="186.3"
   height="0.5"
   id="rect61" />
			
				<rect
   x="275.60001"
   y="390.89999"
   transform="matrix(0.9439,-0.3302,0.3302,0.9439,-108.4729,143.682)"
   class="st8"
   width="186.3"
   height="0.5"
   id="rect63" />
			<path
   class="st9"
   d="m 291.1,440.8 c -2.5,0 -4.9,-1.6 -5.7,-4.1 L 200.3,192.8 c -1.1,-3.2 0.6,-6.6 3.7,-7.7 l 165.3,-57.7 c 3.2,-1.1 6.6,0.6 7.7,3.7 L 462,375 c 0.5,1.5 0.4,3.2 -0.3,4.6 -0.7,1.5 -1.9,2.6 -3.5,3.1 l -165.3,57.6 c -0.5,0.3 -1.2,0.5 -1.8,0.5 z m 80.2,-312.6 c -0.5,0 -1.1,0.1 -1.6,0.3 l -165.3,57.7 c -2.6,0.9 -3.9,3.7 -3.1,6.3 l 85.1,243.9 c 0.9,2.6 3.7,4 6.3,3 L 458,381.7 c 1.2,-0.4 2.3,-1.3 2.8,-2.5 0.5,-1.2 0.6,-2.5 0.2,-3.8 L 376,131.5 c -0.7,-2.1 -2.6,-3.3 -4.7,-3.3 z"
   id="path65" />
			<path
   class="st4"
   d="m 431.1,413.4 c 23.5,-8.2 46.4,-55.6 38.2,-79.1 l -58.7,20.5 z"
   id="path67" />
			<g
   id="g125">
				<g
   id="g75">
					<circle
   class="st10"
   cx="179.5"
   cy="194.2"
   r="8.3999996"
   id="circle69" />
					<circle
   class="st4"
   cx="179.5"
   cy="194.2"
   r="3.3"
   id="circle71" />
					<path
   class="st4"
   d="m 151.6,216.2 c -7.2,0 -12.6,-2.6 -14.3,-7.3 -2.6,-7.4 5.2,-16.3 18.2,-20.8 12.9,-4.5 24.6,-2.4 27.2,5 l -6.2,2.2 c -0.9,-2.7 -8.7,-4.4 -18.7,-0.9 -10,3.5 -15,9.7 -14.1,12.4 0.9,2.7 8.7,4.4 18.7,0.9 l 2.2,6.2 c -4.7,1.6 -9,2.3 -13,2.3 z"
   id="path73" />
				</g>
				<g
   id="g83">
					<circle
   class="st10"
   cx="193.2"
   cy="233.3"
   r="8.3999996"
   id="circle77" />
					<circle
   class="st4"
   cx="193.2"
   cy="233.3"
   r="3.3"
   id="circle79" />
					<path
   class="st4"
   d="m 165.3,255.3 c -1.2,0 -2.4,-0.1 -3.5,-0.2 -5.6,-0.7 -9.5,-3.2 -10.8,-7.1 -1.3,-3.9 0.1,-8.2 4.1,-12.3 3.4,-3.5 8.4,-6.5 14.1,-8.5 5.7,-2 11.5,-2.7 16.3,-2.1 5.6,0.7 9.5,3.2 10.8,7.1 l -6.2,2.2 c -0.5,-1.3 -2.5,-2.4 -5.4,-2.7 -3.8,-0.5 -8.6,0.2 -13.3,1.8 -4.7,1.6 -8.9,4.1 -11.5,6.9 -2,2.1 -3,4.2 -2.6,5.5 0.5,1.3 2.5,2.4 5.4,2.7 3.8,0.5 8.6,-0.2 13.3,-1.8 l 2.2,6.2 c -4.4,1.5 -8.9,2.3 -12.9,2.3 z"
   id="path81" />
				</g>
				<g
   id="g91">
					<circle
   class="st10"
   cx="206.8"
   cy="272.39999"
   r="8.3999996"
   id="circle85" />
					<circle
   class="st4"
   cx="206.8"
   cy="272.39999"
   r="3.3"
   id="circle87" />
					<path
   class="st4"
   d="m 178.9,294.5 c -7.2,0 -12.7,-2.6 -14.3,-7.3 -2.6,-7.4 5.2,-16.3 18.2,-20.8 12.9,-4.5 24.6,-2.4 27.2,5 l -6.2,2.2 c -0.9,-2.7 -8.7,-4.4 -18.7,-0.9 -10,3.5 -15,9.7 -14.1,12.4 0.9,2.7 8.7,4.4 18.7,0.9 l 2.2,6.2 c -4.7,1.5 -9.1,2.3 -13,2.3 z"
   id="path89" />
				</g>
				<g
   id="g99">
					<circle
   class="st10"
   cx="220.5"
   cy="311.5"
   r="8.3999996"
   id="circle93" />
					<circle
   class="st4"
   cx="220.5"
   cy="311.5"
   r="3.3"
   id="circle95" />
					<path
   class="st4"
   d="m 192.6,333.5 c -1.2,0 -2.4,-0.1 -3.5,-0.2 -5.6,-0.7 -9.5,-3.2 -10.8,-7.1 -1.3,-3.9 0.1,-8.2 4.1,-12.3 3.4,-3.5 8.4,-6.5 14.1,-8.5 5.7,-2 11.5,-2.7 16.3,-2.1 5.6,0.7 9.5,3.2 10.8,7.1 l -6.2,2.2 c -0.5,-1.3 -2.5,-2.4 -5.4,-2.7 -3.8,-0.5 -8.6,0.2 -13.3,1.8 -4.7,1.6 -8.9,4.1 -11.5,6.9 -2,2.1 -3,4.2 -2.6,5.5 0.4,1.3 2.5,2.4 5.4,2.7 3.8,0.5 8.6,-0.2 13.3,-1.8 l 2.2,6.2 c -4.5,1.6 -8.9,2.3 -12.9,2.3 z"
   id="path97" />
				</g>
				<g
   id="g107">
					<circle
   class="st10"
   cx="234.10001"
   cy="350.60001"
   r="8.3999996"
   id="circle101" />
					<circle
   class="st4"
   cx="234.10001"
   cy="350.60001"
   r="3.3"
   id="circle103" />
					<path
   class="st4"
   d="m 206.2,372.7 c -7.2,0 -12.6,-2.6 -14.3,-7.3 -2.6,-7.4 5.2,-16.3 18.2,-20.8 12.9,-4.5 24.6,-2.4 27.2,5 l -6.2,2.2 c -0.9,-2.7 -8.7,-4.4 -18.7,-0.9 -10,3.5 -15,9.7 -14.1,12.4 0.9,2.7 8.7,4.4 18.7,0.9 l 2.2,6.2 c -4.7,1.5 -9.1,2.3 -13,2.3 z"
   id="path105" />
				</g>
				<g
   id="g115">
					<circle
   class="st10"
   cx="247.8"
   cy="389.70001"
   r="8.3999996"
   id="circle109" />
					<circle
   class="st4"
   cx="247.8"
   cy="389.70001"
   r="3.3"
   id="circle111" />
					<path
   class="st4"
   d="m 219.9,411.8 c -7.2,0 -12.6,-2.6 -14.3,-7.3 -2.6,-7.4 5.2,-16.3 18.2,-20.8 5.7,-2 11.5,-2.7 16.3,-2.1 5.6,0.7 9.5,3.2 10.8,7.1 l -6.2,2.2 c -0.5,-1.3 -2.5,-2.4 -5.4,-2.7 -3.8,-0.5 -8.6,0.2 -13.3,1.8 -10,3.5 -15,9.7 -14.1,12.4 0.9,2.7 8.7,4.4 18.7,0.9 l 2.2,6.2 c -4.6,1.5 -9,2.3 -12.9,2.3 z"
   id="path113" />
				</g>
				<g
   id="g123">
					<circle
   class="st10"
   cx="261.39999"
   cy="428.79999"
   r="8.3999996"
   id="circle117" />
					<circle
   class="st4"
   cx="261.39999"
   cy="428.79999"
   r="3.3"
   id="circle119" />
					<path
   class="st4"
   d="m 233.5,450.9 c -1.2,0 -2.4,-0.1 -3.5,-0.2 -5.6,-0.7 -9.5,-3.2 -10.8,-7.1 -1.3,-3.9 0.1,-8.2 4.1,-12.3 3.4,-3.5 8.4,-6.5 14.1,-8.5 5.7,-2 11.5,-2.7 16.3,-2.1 5.6,0.7 9.5,3.2 10.8,7.1 l -6.2,2.2 c -0.5,-1.3 -2.5,-2.4 -5.4,-2.7 -3.8,-0.5 -8.6,0.2 -13.3,1.8 -4.7,1.6 -8.9,4.1 -11.5,6.9 -2,2.1 -3,4.2 -2.6,5.5 0.4,1.3 2.5,2.4 5.4,2.7 3.8,0.5 8.6,-0.2 13.3,-1.8 l 2.2,6.2 c -4.4,1.5 -8.9,2.3 -12.9,2.3 z"
   id="path121" />
				</g>
			</g>
		</g>
	</g>
</g><g
     id="g151">
	<path
   class="st11"
   d="m 162.2,494.3 h -1.6 c 0,-2.7 0.8,-7.8 2.4,-15.4 1.6,-7.6 2.4,-11.9 2.4,-12.9 0,-1.9 -0.8,-3.9 -2.4,-6 l -0.8,-1 0.1,-1.1 c 3.1,-0.9 8,-1.3 14.8,-1.3 0.8,1.1 1.2,2.9 1.2,5.3 5.1,-3.8 9.2,-5.7 12.2,-5.7 3.8,0 6.1,2 6.8,5.9 1.5,-1.2 3.6,-2.5 6,-3.9 2.5,-1.3 4.7,-2 6.7,-2 2,0 3.6,0.6 4.9,1.9 1.3,1.3 2,3.1 2,5.4 0,2.3 -0.6,6 -1.9,11.3 -1.3,5.3 -1.9,8.8 -1.9,10.6 0,1.8 0.3,2.7 0.8,2.7 0.3,0 1.5,-0.5 3.5,-1.6 l 0.9,-0.5 1.5,3 c -1.5,1.5 -3.5,2.9 -6,4.2 -2.5,1.3 -4.8,2 -6.7,2 -4.3,0 -6.4,-2.4 -6.4,-7.3 0,-1.8 0.6,-5.3 1.8,-10.6 1.2,-5.3 1.8,-8.8 1.8,-10.4 0,-1.6 -0.5,-2.4 -1.4,-2.4 -1.6,0 -3.5,0.6 -5.6,1.9 -0.1,1.1 -0.9,5 -2.4,11.6 -1.4,6.6 -2.2,11.8 -2.2,15.4 -1.6,0.7 -5.5,1.1 -11.6,1.1 -0.1,-0.6 -0.2,-2.1 -0.2,-4.5 0,-2.4 0.7,-6.5 2,-12.2 1.3,-5.7 2,-9.4 2,-11 0,-1.6 -0.5,-2.3 -1.6,-2.3 -1.7,0 -3.6,0.7 -5.6,2 -0.1,0.5 -0.7,3 -1.7,7.5 -2.1,9 -3.1,15.4 -3.1,19.2 -2,0.7 -5.5,1.1 -10.7,1.1 z"
   id="path133" />
	<path
   class="st11"
   d="m 240.3,461.4 c 0,2.4 -0.8,6.5 -2.3,12.4 -1.5,5.8 -2.3,9.7 -2.3,11.5 0,1.8 0.3,2.7 0.8,2.7 0.3,0 1.6,-0.5 3.9,-1.6 l 1,-0.5 1.4,3 c -0.5,0.5 -1.2,1 -2.1,1.7 -0.9,0.7 -2.4,1.6 -4.8,2.8 -2.4,1.2 -4.5,1.8 -6.5,1.8 -2,0 -3.6,-0.6 -4.7,-1.8 -1.1,-1.2 -1.7,-2.9 -1.7,-5 0,-2.1 0.7,-5.8 2.1,-11.1 1.4,-5.3 2.1,-8.8 2.1,-10.4 0,-2.4 -0.7,-4.6 -2.2,-6.8 l -0.8,-1 0.1,-1.1 c 3,-0.9 7.9,-1.3 14.7,-1.3 1,0.7 1.3,2.3 1.3,4.7 z m -9.7,-14.2 c -1.1,-1.1 -1.7,-2.6 -1.7,-4.5 0,-1.9 0.8,-3.5 2.4,-5 1.6,-1.5 3.4,-2.1 5.4,-2.1 2,0 3.6,0.6 4.8,1.7 1.1,1.1 1.7,2.6 1.7,4.5 0,1.9 -0.8,3.5 -2.4,4.9 -1.6,1.4 -3.4,2.1 -5.4,2.1 -2.1,0.1 -3.7,-0.5 -4.8,-1.6 z"
   id="path135" />
	<path
   class="st11"
   d="m 272.3,482.8 c 0,3.6 -1.6,6.5 -4.8,8.8 -3.2,2.3 -6.8,3.4 -10.8,3.4 -4.1,0 -7.3,-0.9 -9.6,-2.6 -2.4,-1.7 -3.6,-3.2 -3.6,-4.5 0,-0.8 1,-2.1 3,-3.9 2,-1.8 3.7,-2.9 5.1,-3.3 2.9,2.1 5.2,5.5 7,10 2.1,-0.2 3.2,-1.2 3.2,-3 0,-2.6 -2.3,-6.3 -6.9,-11.2 -4.6,-4.9 -6.9,-8.6 -6.9,-11.5 0,-2.9 1.3,-5.1 3.9,-6.6 2.6,-1.5 5.7,-2.4 9.3,-2.4 3.6,0 6.3,0.6 8.2,1.9 1.8,1.3 2.7,3 2.7,5.2 0,2.2 -1.7,5.2 -5.2,9.1 0.4,0.4 0.9,0.9 1.5,1.6 0.6,0.7 1.5,1.9 2.5,3.7 0.9,2 1.4,3.7 1.4,5.3 z m -4.6,-19.5 c 0,-2 -1.4,-3 -4.1,-3 -1.3,0 -2.4,0.3 -3.2,0.8 -0.9,0.5 -1.3,1.1 -1.3,1.8 0,1.3 1.2,3 3.8,5.3 l 1.3,1.1 c 2.3,-2 3.5,-4 3.5,-6 z"
   id="path137" />
	<path
   class="st11"
   d="m 320.1,457.2 c -0.1,1.4 -0.6,3.1 -1.5,5 -2.2,-0.2 -4.2,-0.3 -6.2,-0.3 H 311 c -2.6,12.7 -3.9,20.6 -3.9,23.8 0,1.6 0.4,2.5 1.1,2.5 0.7,0 2.6,-0.7 5.7,-2.1 l 1.5,2.8 c -5.1,4.2 -9.8,6.3 -14.1,6.3 -2,0 -3.6,-0.6 -4.9,-1.9 -1.3,-1.2 -1.9,-2.9 -1.9,-5 0,-2.1 0.2,-4.4 0.7,-7.1 0.5,-2.6 1.1,-5.8 2,-9.6 0.9,-3.8 1.5,-6.9 1.9,-9.2 -2.1,0.2 -3.7,0.3 -4.7,0.5 -0.1,-0.7 -0.2,-1.6 -0.2,-2.8 0,-1.2 0.1,-2.1 0.3,-2.9 h 5.4 c 0.5,-3.1 0.7,-6 0.7,-8.7 l -0.1,-2.6 v -0.3 c 4.5,-1.5 8.6,-2.3 12.6,-2.3 0.2,1.1 0.3,2.6 0.3,4.3 0,1.7 -0.5,4.9 -1.5,9.7 h 8.2 z"
   id="path139" />
	<path
   class="st11"
   d="m 344.1,458.6 c 0.1,-0.1 0.4,-0.9 0.9,-2.2 2.7,0 6.3,0.8 10.8,2.4 -1.4,4.7 -2.6,9.7 -3.4,14.8 -0.8,5.1 -1.3,8.8 -1.3,11 0,2.2 0.2,3.3 0.7,3.3 0.3,0 1.6,-0.5 3.8,-1.6 l 1,-0.5 1.5,3 c -0.5,0.5 -1.2,1 -2,1.7 -0.8,0.7 -2.4,1.6 -4.7,2.8 -2.3,1.2 -4.3,1.8 -6.2,1.8 -3.5,0 -5.6,-1.6 -6.2,-4.8 -3.6,3.2 -6.9,4.8 -9.9,4.8 -3,0 -5.4,-1.1 -7.4,-3.4 -2,-2.3 -3,-5.9 -3,-10.8 0,-7.6 1.6,-13.7 4.7,-18.1 3.1,-4.4 6.9,-6.6 11.4,-6.6 3.2,-0.1 6.3,0.8 9.3,2.4 z m -9.8,29.2 c 1.4,0 2.9,-0.5 4.6,-1.6 0.4,-8 1.7,-16 4,-23.9 -1.7,-0.7 -3.2,-1.1 -4.4,-1.1 -2,0 -3.8,2 -5.3,6 -1.5,4 -2.2,8.5 -2.2,13.3 0.2,4.9 1.2,7.3 3.3,7.3 z"
   id="path141" />
	<path
   class="st11"
   d="m 361.4,494.3 h -0.6 c -0.1,-0.5 -0.2,-1.5 -0.2,-3.1 0,-1.6 0.8,-6 2.3,-13.1 1.5,-7.1 2.3,-11.2 2.3,-12.2 0,-1.8 -0.8,-3.7 -2.4,-5.8 l -0.8,-1 0.1,-1.1 c 3.1,-0.9 8,-1.3 14.8,-1.3 0.7,1.5 1,3.6 1,6.2 0.6,-1 1.9,-2.4 3.9,-4.1 2,-1.7 4,-2.6 6.2,-2.6 3.1,0 4.6,2.7 4.6,8 -0.3,0.3 -0.7,0.8 -1.1,1.3 -0.5,0.5 -1.5,1.3 -2.9,2.3 -1.5,1 -2.9,1.6 -4.2,1.8 -0.1,0 -0.5,-0.8 -1.5,-2.3 -1,-1.5 -1.6,-2.3 -2,-2.3 -1.4,0.5 -2.7,1.4 -3.8,2.6 -2.6,11.8 -3.9,19.4 -3.9,22.9 0,1.3 0,2.1 0.1,2.6 -2.1,0.8 -6,1.2 -11.9,1.2 z"
   id="path143" />
	<path
   class="st11"
   d="m 390.4,479.2 c 0,-7.1 2.1,-12.8 6.5,-16.9 4.3,-4.1 9.2,-6.2 14.7,-6.2 3.4,0 6.1,0.8 8.3,2.5 2.2,1.6 3.2,3.9 3.2,6.6 0,2.8 -0.7,5.1 -2.1,7 -1.4,1.9 -3.1,3.3 -5.1,4.4 -4,2 -7.8,3.2 -11.1,3.8 l -2,0.3 c 0.4,5.4 2.6,8 6.6,8 1.4,0 2.8,-0.3 4.4,-1 1.5,-0.7 2.7,-1.4 3.6,-2 l 1.3,-1 2,2.7 c -0.5,0.6 -1.4,1.5 -2.7,2.5 -1.3,1 -2.6,1.9 -3.9,2.6 -3.3,1.8 -6.9,2.7 -10.9,2.7 -4,0 -7,-1.4 -9.3,-4.2 -2.3,-2.9 -3.5,-6.8 -3.5,-11.8 z m 19.2,-6.5 c 1.7,-1.9 2.6,-4.5 2.6,-7.5 0,-3 -0.9,-4.6 -2.7,-4.6 -2.2,0 -3.8,1.8 -5,5.5 -1.2,3.7 -1.8,7.1 -1.8,10.3 2.9,-0.5 5.2,-1.7 6.9,-3.7 z"
   id="path145" />
	<path
   class="st11"
   d="m 450.4,458.6 c 0.1,-0.1 0.4,-0.9 0.9,-2.2 2.7,0 6.3,0.8 10.8,2.4 -1.4,4.7 -2.6,9.7 -3.4,14.8 -0.8,5.1 -1.3,8.8 -1.3,11 0,2.2 0.2,3.3 0.7,3.3 0.3,0 1.6,-0.5 3.8,-1.6 l 1,-0.5 1.5,3 c -0.5,0.5 -1.2,1 -2,1.7 -0.8,0.7 -2.4,1.6 -4.7,2.8 -2.3,1.2 -4.3,1.8 -6.2,1.8 -3.5,0 -5.6,-1.6 -6.2,-4.8 -3.6,3.2 -6.9,4.8 -9.9,4.8 -3,0 -5.4,-1.1 -7.4,-3.4 -2,-2.3 -3,-5.9 -3,-10.8 0,-7.6 1.6,-13.7 4.7,-18.1 3.1,-4.4 6.9,-6.6 11.4,-6.6 3.2,-0.1 6.3,0.8 9.3,2.4 z m -9.8,29.2 c 1.4,0 2.9,-0.5 4.6,-1.6 0.4,-8 1.7,-16 4,-23.9 -1.7,-0.7 -3.2,-1.1 -4.4,-1.1 -2,0 -3.8,2 -5.3,6 -1.5,4 -2.2,8.5 -2.2,13.3 0.2,4.9 1.2,7.3 3.3,7.3 z"
   id="path147" />
	<path
   class="st11"
   d="m 491.3,482.8 c 0,3.6 -1.6,6.5 -4.8,8.8 -3.2,2.3 -6.8,3.4 -10.8,3.4 -4,0 -7.3,-0.9 -9.6,-2.6 -2.4,-1.7 -3.5,-3.2 -3.5,-4.5 0,-0.8 1,-2.1 3,-3.9 2,-1.8 3.7,-2.9 5,-3.3 2.9,2.1 5.2,5.5 7,10 2.1,-0.2 3.2,-1.2 3.2,-3 0,-2.6 -2.3,-6.3 -6.9,-11.2 -4.6,-4.9 -6.9,-8.6 -6.9,-11.5 0,-2.9 1.3,-5.1 3.9,-6.6 2.6,-1.5 5.7,-2.4 9.3,-2.4 3.6,0 6.3,0.6 8.2,1.9 1.8,1.3 2.7,3 2.7,5.2 0,2.2 -1.7,5.2 -5.2,9.1 0.4,0.4 0.9,0.9 1.5,1.6 0.6,0.7 1.5,1.9 2.5,3.7 0.9,2 1.4,3.7 1.4,5.3 z m -4.6,-19.5 c 0,-2 -1.4,-3 -4.1,-3 -1.3,0 -2.4,0.3 -3.2,0.8 -0.8,0.5 -1.3,1.1 -1.3,1.8 0,1.3 1.2,3 3.8,5.3 l 1.3,1.1 c 2.3,-2 3.5,-4 3.5,-6 z"
   id="path149" />
</g><g
     id="g171">
	<path
   class="st0"
   d="m 162.2,494.3 h -1.6 c 0,-2.7 0.8,-7.8 2.4,-15.4 1.6,-7.6 2.4,-11.9 2.4,-12.9 0,-1.9 -0.8,-3.9 -2.4,-6 l -0.8,-1 0.1,-1.1 c 3.1,-0.9 8,-1.3 14.8,-1.3 0.8,1.1 1.2,2.9 1.2,5.3 5.1,-3.8 9.2,-5.7 12.2,-5.7 3.8,0 6.1,2 6.8,5.9 1.5,-1.2 3.6,-2.5 6,-3.9 2.5,-1.3 4.7,-2 6.7,-2 2,0 3.6,0.6 4.9,1.9 1.3,1.3 2,3.1 2,5.4 0,2.3 -0.6,6 -1.9,11.3 -1.3,5.3 -1.9,8.8 -1.9,10.6 0,1.8 0.3,2.7 0.8,2.7 0.3,0 1.5,-0.5 3.5,-1.6 l 0.9,-0.5 1.5,3 c -1.5,1.5 -3.5,2.9 -6,4.2 -2.5,1.3 -4.8,2 -6.7,2 -4.3,0 -6.4,-2.4 -6.4,-7.3 0,-1.8 0.6,-5.3 1.8,-10.6 1.2,-5.3 1.8,-8.8 1.8,-10.4 0,-1.6 -0.5,-2.4 -1.4,-2.4 -1.6,0 -3.5,0.6 -5.6,1.9 -0.1,1.1 -0.9,5 -2.4,11.6 -1.4,6.6 -2.2,11.8 -2.2,15.4 -1.6,0.7 -5.5,1.1 -11.6,1.1 -0.1,-0.6 -0.2,-2.1 -0.2,-4.5 0,-2.4 0.7,-6.5 2,-12.2 1.3,-5.7 2,-9.4 2,-11 0,-1.6 -0.5,-2.3 -1.6,-2.3 -1.7,0 -3.6,0.7 -5.6,2 -0.1,0.5 -0.7,3 -1.7,7.5 -2.1,9 -3.1,15.4 -3.1,19.2 -2,0.7 -5.5,1.1 -10.7,1.1 z"
   id="path153" />
	<path
   class="st0"
   d="m 240.3,461.4 c 0,2.4 -0.8,6.5 -2.3,12.4 -1.5,5.8 -2.3,9.7 -2.3,11.5 0,1.8 0.3,2.7 0.8,2.7 0.3,0 1.6,-0.5 3.9,-1.6 l 1,-0.5 1.4,3 c -0.5,0.5 -1.2,1 -2.1,1.7 -0.9,0.7 -2.4,1.6 -4.8,2.8 -2.4,1.2 -4.5,1.8 -6.5,1.8 -2,0 -3.6,-0.6 -4.7,-1.8 -1.1,-1.2 -1.7,-2.9 -1.7,-5 0,-2.1 0.7,-5.8 2.1,-11.1 1.4,-5.3 2.1,-8.8 2.1,-10.4 0,-2.4 -0.7,-4.6 -2.2,-6.8 l -0.8,-1 0.1,-1.1 c 3,-0.9 7.9,-1.3 14.7,-1.3 1,0.7 1.3,2.3 1.3,4.7 z m -9.7,-14.2 c -1.1,-1.1 -1.7,-2.6 -1.7,-4.5 0,-1.9 0.8,-3.5 2.4,-5 1.6,-1.5 3.4,-2.1 5.4,-2.1 2,0 3.6,0.6 4.8,1.7 1.1,1.1 1.7,2.6 1.7,4.5 0,1.9 -0.8,3.5 -2.4,4.9 -1.6,1.4 -3.4,2.1 -5.4,2.1 -2.1,0.1 -3.7,-0.5 -4.8,-1.6 z"
   id="path155" />
	<path
   class="st0"
   d="m 272.3,482.8 c 0,3.6 -1.6,6.5 -4.8,8.8 -3.2,2.3 -6.8,3.4 -10.8,3.4 -4.1,0 -7.3,-0.9 -9.6,-2.6 -2.4,-1.7 -3.6,-3.2 -3.6,-4.5 0,-0.8 1,-2.1 3,-3.9 2,-1.8 3.7,-2.9 5.1,-3.3 2.9,2.1 5.2,5.5 7,10 2.1,-0.2 3.2,-1.2 3.2,-3 0,-2.6 -2.3,-6.3 -6.9,-11.2 -4.6,-4.9 -6.9,-8.6 -6.9,-11.5 0,-2.9 1.3,-5.1 3.9,-6.6 2.6,-1.5 5.7,-2.4 9.3,-2.4 3.6,0 6.3,0.6 8.2,1.9 1.8,1.3 2.7,3 2.7,5.2 0,2.2 -1.7,5.2 -5.2,9.1 0.4,0.4 0.9,0.9 1.5,1.6 0.6,0.7 1.5,1.9 2.5,3.7 0.9,2 1.4,3.7 1.4,5.3 z m -4.6,-19.5 c 0,-2 -1.4,-3 -4.1,-3 -1.3,0 -2.4,0.3 -3.2,0.8 -0.9,0.5 -1.3,1.1 -1.3,1.8 0,1.3 1.2,3 3.8,5.3 l 1.3,1.1 c 2.3,-2 3.5,-4 3.5,-6 z"
   id="path157" />
	<path
   class="st0"
   d="m 320.1,457.2 c -0.1,1.4 -0.6,3.1 -1.5,5 -2.2,-0.2 -4.2,-0.3 -6.2,-0.3 H 311 c -2.6,12.7 -3.9,20.6 -3.9,23.8 0,1.6 0.4,2.5 1.1,2.5 0.7,0 2.6,-0.7 5.7,-2.1 l 1.5,2.8 c -5.1,4.2 -9.8,6.3 -14.1,6.3 -2,0 -3.6,-0.6 -4.9,-1.9 -1.3,-1.2 -1.9,-2.9 -1.9,-5 0,-2.1 0.2,-4.4 0.7,-7.1 0.5,-2.6 1.1,-5.8 2,-9.6 0.9,-3.8 1.5,-6.9 1.9,-9.2 -2.1,0.2 -3.7,0.3 -4.7,0.5 -0.1,-0.7 -0.2,-1.6 -0.2,-2.8 0,-1.2 0.1,-2.1 0.3,-2.9 h 5.4 c 0.5,-3.1 0.7,-6 0.7,-8.7 l -0.1,-2.6 v -0.3 c 4.5,-1.5 8.6,-2.3 12.6,-2.3 0.2,1.1 0.3,2.6 0.3,4.3 0,1.7 -0.5,4.9 -1.5,9.7 h 8.2 z"
   id="path159" />
	<path
   class="st0"
   d="m 344.1,458.6 c 0.1,-0.1 0.4,-0.9 0.9,-2.2 2.7,0 6.3,0.8 10.8,2.4 -1.4,4.7 -2.6,9.7 -3.4,14.8 -0.8,5.1 -1.3,8.8 -1.3,11 0,2.2 0.2,3.3 0.7,3.3 0.3,0 1.6,-0.5 3.8,-1.6 l 1,-0.5 1.5,3 c -0.5,0.5 -1.2,1 -2,1.7 -0.8,0.7 -2.4,1.6 -4.7,2.8 -2.3,1.2 -4.3,1.8 -6.2,1.8 -3.5,0 -5.6,-1.6 -6.2,-4.8 -3.6,3.2 -6.9,4.8 -9.9,4.8 -3,0 -5.4,-1.1 -7.4,-3.4 -2,-2.3 -3,-5.9 -3,-10.8 0,-7.6 1.6,-13.7 4.7,-18.1 3.1,-4.4 6.9,-6.6 11.4,-6.6 3.2,-0.1 6.3,0.8 9.3,2.4 z m -9.8,29.2 c 1.4,0 2.9,-0.5 4.6,-1.6 0.4,-8 1.7,-16 4,-23.9 -1.7,-0.7 -3.2,-1.1 -4.4,-1.1 -2,0 -3.8,2 -5.3,6 -1.5,4 -2.2,8.5 -2.2,13.3 0.2,4.9 1.2,7.3 3.3,7.3 z"
   id="path161" />
	<path
   class="st0"
   d="m 361.4,494.3 h -0.6 c -0.1,-0.5 -0.2,-1.5 -0.2,-3.1 0,-1.6 0.8,-6 2.3,-13.1 1.5,-7.1 2.3,-11.2 2.3,-12.2 0,-1.8 -0.8,-3.7 -2.4,-5.8 l -0.8,-1 0.1,-1.1 c 3.1,-0.9 8,-1.3 14.8,-1.3 0.7,1.5 1,3.6 1,6.2 0.6,-1 1.9,-2.4 3.9,-4.1 2,-1.7 4,-2.6 6.2,-2.6 3.1,0 4.6,2.7 4.6,8 -0.3,0.3 -0.7,0.8 -1.1,1.3 -0.5,0.5 -1.5,1.3 -2.9,2.3 -1.5,1 -2.9,1.6 -4.2,1.8 -0.1,0 -0.5,-0.8 -1.5,-2.3 -1,-1.5 -1.6,-2.3 -2,-2.3 -1.4,0.5 -2.7,1.4 -3.8,2.6 -2.6,11.8 -3.9,19.4 -3.9,22.9 0,1.3 0,2.1 0.1,2.6 -2.1,0.8 -6,1.2 -11.9,1.2 z"
   id="path163" />
	<path
   class="st0"
   d="m 390.4,479.2 c 0,-7.1 2.1,-12.8 6.5,-16.9 4.3,-4.1 9.2,-6.2 14.7,-6.2 3.4,0 6.1,0.8 8.3,2.5 2.2,1.6 3.2,3.9 3.2,6.6 0,2.8 -0.7,5.1 -2.1,7 -1.4,1.9 -3.1,3.3 -5.1,4.4 -4,2 -7.8,3.2 -11.1,3.8 l -2,0.3 c 0.4,5.4 2.6,8 6.6,8 1.4,0 2.8,-0.3 4.4,-1 1.5,-0.7 2.7,-1.4 3.6,-2 l 1.3,-1 2,2.7 c -0.5,0.6 -1.4,1.5 -2.7,2.5 -1.3,1 -2.6,1.9 -3.9,2.6 -3.3,1.8 -6.9,2.7 -10.9,2.7 -4,0 -7,-1.4 -9.3,-4.2 -2.3,-2.9 -3.5,-6.8 -3.5,-11.8 z m 19.2,-6.5 c 1.7,-1.9 2.6,-4.5 2.6,-7.5 0,-3 -0.9,-4.6 -2.7,-4.6 -2.2,0 -3.8,1.8 -5,5.5 -1.2,3.7 -1.8,7.1 -1.8,10.3 2.9,-0.5 5.2,-1.7 6.9,-3.7 z"
   id="path165" />
	<path
   class="st0"
   d="m 450.4,458.6 c 0.1,-0.1 0.4,-0.9 0.9,-2.2 2.7,0 6.3,0.8 10.8,2.4 -1.4,4.7 -2.6,9.7 -3.4,14.8 -0.8,5.1 -1.3,8.8 -1.3,11 0,2.2 0.2,3.3 0.7,3.3 0.3,0 1.6,-0.5 3.8,-1.6 l 1,-0.5 1.5,3 c -0.5,0.5 -1.2,1 -2,1.7 -0.8,0.7 -2.4,1.6 -4.7,2.8 -2.3,1.2 -4.3,1.8 -6.2,1.8 -3.5,0 -5.6,-1.6 -6.2,-4.8 -3.6,3.2 -6.9,4.8 -9.9,4.8 -3,0 -5.4,-1.1 -7.4,-3.4 -2,-2.3 -3,-5.9 -3,-10.8 0,-7.6 1.6,-13.7 4.7,-18.1 3.1,-4.4 6.9,-6.6 11.4,-6.6 3.2,-0.1 6.3,0.8 9.3,2.4 z m -9.8,29.2 c 1.4,0 2.9,-0.5 4.6,-1.6 0.4,-8 1.7,-16 4,-23.9 -1.7,-0.7 -3.2,-1.1 -4.4,-1.1 -2,0 -3.8,2 -5.3,6 -1.5,4 -2.2,8.5 -2.2,13.3 0.2,4.9 1.2,7.3 3.3,7.3 z"
   id="path167" />
	<path
   class="st0"
   d="m 491.3,482.8 c 0,3.6 -1.6,6.5 -4.8,8.8 -3.2,2.3 -6.8,3.4 -10.8,3.4 -4,0 -7.3,-0.9 -9.6,-2.6 -2.4,-1.7 -3.5,-3.2 -3.5,-4.5 0,-0.8 1,-2.1 3,-3.9 2,-1.8 3.7,-2.9 5,-3.3 2.9,2.1 5.2,5.5 7,10 2.1,-0.2 3.2,-1.2 3.2,-3 0,-2.6 -2.3,-6.3 -6.9,-11.2 -4.6,-4.9 -6.9,-8.6 -6.9,-11.5 0,-2.9 1.3,-5.1 3.9,-6.6 2.6,-1.5 5.7,-2.4 9.3,-2.4 3.6,0 6.3,0.6 8.2,1.9 1.8,1.3 2.7,3 2.7,5.2 0,2.2 -1.7,5.2 -5.2,9.1 0.4,0.4 0.9,0.9 1.5,1.6 0.6,0.7 1.5,1.9 2.5,3.7 0.9,2 1.4,3.7 1.4,5.3 z m -4.6,-19.5 c 0,-2 -1.4,-3 -4.1,-3 -1.3,0 -2.4,0.3 -3.2,0.8 -0.8,0.5 -1.3,1.1 -1.3,1.8 0,1.3 1.2,3 3.8,5.3 l 1.3,1.1 c 2.3,-2 3.5,-4 3.5,-6 z"
   id="path169" />
</g></g>
</svg>
