<?xml version="1.0" encoding="UTF-8" standalone="no"?>
<svg
   xmlns:dc="http://purl.org/dc/elements/1.1/"
   xmlns:cc="http://creativecommons.org/ns#"
   xmlns:rdf="http://www.w3.org/1999/02/22-rdf-syntax-ns#"
   xmlns:svg="http://www.w3.org/2000/svg"
   xmlns="http://www.w3.org/2000/svg"
   xmlns:xlink="http://www.w3.org/1999/xlink"
   xmlns:sodipodi="http://sodipodi.sourceforge.net/DTD/sodipodi-0.dtd"
   xmlns:inkscape="http://www.inkscape.org/namespaces/inkscape"
   version="1.1"
   id="Layer_1_copy"
   x="0px"
   y="0px"
   viewBox="0 0 448.89139 430.20001"
   xml:space="preserve"
   sodipodi:docname="b_mis_juegos.svg"
   width="448.89139"
   height="430.20001"
   inkscape:version="1.0.1 (3bc2e813f5, 2020-09-07)"><metadata
   id="metadata116"><rdf:RDF><cc:Work
       rdf:about=""><dc:format>image/svg+xml</dc:format><dc:type
         rdf:resource="http://purl.org/dc/dcmitype/StillImage" /><dc:title></dc:title></cc:Work></rdf:RDF></metadata><defs
   id="defs114">
	
		
	
</defs><sodipodi:namedview
   pagecolor="#ffffff"
   bordercolor="#666666"
   borderopacity="1"
   objecttolerance="10"
   gridtolerance="10"
   guidetolerance="10"
   inkscape:pageopacity="0"
   inkscape:pageshadow="2"
   inkscape:window-width="1920"
   inkscape:window-height="1017"
   id="namedview112"
   showgrid="false"
   fit-margin-top="0"
   fit-margin-left="0"
   fit-margin-right="0"
   fit-margin-bottom="0"
   inkscape:zoom="0.85"
   inkscape:cx="19.263674"
   inkscape:cy="89.785679"
   inkscape:window-x="-8"
   inkscape:window-y="-8"
   inkscape:window-maximized="1"
   inkscape:current-layer="Layer_1_copy" />
<style
   type="text/css"
   id="style2">
	.st0{fill:#FFFFFF;}
	.st1{fill:#FFC600;}
	.st2{fill:url(#SVGID_1_);}
	.st3{clip-path:url(#SVGID_3_);}
	.st4{fill:#DEE0DD;}
	.st5{fill:#383A37;}
	.st6{fill:#E9282B;}
	.st7{fill:#979B94;}
	.st8{fill:none;stroke:#FFC600;stroke-width:13.5;stroke-miterlimit:10;}
</style>




<g
   id="g246"
   transform="translate(-25.545807,-7.4)"><g
     id="g8">
		<path
   class="st0"
   d="m 250,7.4 c -12.1,0 -22.9,6.7 -28.2,17.6 l -52.3,106 -117,17 c -12,1.7 -21.7,9.9 -25.4,21.4 -3.7,11.5 -0.7,23.9 8,32.3 l 59,57.5 c -0.7,9.6 0,19.4 2.2,28.8 1.2,5.2 4.1,9.7 7.9,12.9 -3.7,3.8 -6,8.9 -6.4,14.4 l -0.6,8.1 c -0.2,3.1 0.2,6.3 1.2,9.2 -1.7,7.8 -2.3,12.8 -2.3,17.1 v 6.8 c 0,7.2 3.2,13.6 8.3,17.9 l -4.5,26.4 c -1.6,9.2 0.9,18.5 6.9,25.6 6,7.1 14.8,11.2 24.1,11.2 5.1,0 10.1,-1.3 14.7,-3.6 l 76.1,-40 c 0.7,0 1.5,0.1 2.2,0.1 8.9,0 17.7,-3.3 24.7,-9.2 1.6,-1.4 3.1,-2.8 4.5,-4.3 L 354.6,434 c 4.5,2.4 9.6,3.6 14.7,3.6 9.3,0 18.1,-4.1 24.1,-11.2 6,-7.1 8.5,-16.4 6.9,-25.6 l -5.7,-33.1 c 7,-7.1 10.9,-16.5 10.9,-26.6 0,-2.7 -0.3,-5.4 -0.9,-8.1 0.4,-2.2 0.6,-4.4 0.6,-6.6 0,-11.5 -5.4,-21.9 -14.9,-28.6 -2.6,-1.9 -5.5,-3.3 -8.5,-4.5 l -1.6,-9.1 84.7,-82.5 c 8.6,-8.4 11.7,-20.8 8,-32.3 -3.7,-11.5 -13.5,-19.7 -25.4,-21.4 l -33.9,-4.9 c 3.2,-29.7 -7.4,-60 -29.9,-81.2 -18.1,-17.1 -41.8,-26.5 -66.6,-26.5 -10.8,0 -21.3,1.7 -31.2,5.1 L 278.2,25 C 272.9,14.1 262.1,7.4 250,7.4 Z"
   id="path6" />
	</g><g
     id="g21">
	<path
   class="st1"
   d="m 257.3,35.3 55.9,113.2 c 1.2,2.4 3.5,4.1 6.1,4.4 l 125,18.2 c 6.6,1 9.3,9.1 4.5,13.8 L 358.4,273 c -1.9,1.9 -2.8,4.5 -2.3,7.2 l 21.4,124.4 c 1.1,6.6 -5.8,11.7 -11.8,8.5 L 253.9,354.3 c -2.4,-1.2 -5.2,-1.2 -7.5,0 l -111.8,58.8 c -5.9,3.1 -12.9,-1.9 -11.8,-8.5 l 21.4,-124.5 c 0.4,-2.6 -0.4,-5.3 -2.3,-7.2 L 51.3,185 c -4.8,-4.7 -2.2,-12.9 4.5,-13.8 l 125,-18.2 c 2.6,-0.4 4.9,-2 6.1,-4.4 L 242.8,35.4 c 2.9,-6.1 11.5,-6.1 14.5,-0.1 z"
   id="path12" />
	
		<linearGradient
   id="SVGID_1_"
   gradientUnits="userSpaceOnUse"
   x1="250"
   y1="85.779999"
   x2="250"
   y2="469.19"
   gradientTransform="matrix(1,0,0,-1,0,500)">
		<stop
   offset="0"
   style="stop-color:#FFD74B"
   id="stop14" />
		<stop
   offset="1"
   style="stop-color:#FFC600"
   id="stop16" />
	</linearGradient>
	<path
   class="st2"
   d="m 250,51.1 51,103.4 c 3.1,6.4 9.2,10.8 16.3,11.8 l 114.1,16.6 -82.6,80.5 c -5.1,5 -7.4,12.1 -6.2,19.1 L 362.1,396.2 260,342.5 c -3.1,-1.6 -6.6,-2.5 -10.1,-2.5 -3.5,0 -7,0.9 -10.1,2.5 l -102.1,53.7 19.5,-113.7 c 1.2,-7 -1.1,-14.2 -6.2,-19.1 L 68.4,182.9 182.5,166.3 c 7,-1 13.1,-5.4 16.3,-11.8 L 250,51.1 m 0,-20.3 c -2.9,0 -5.8,1.5 -7.3,4.5 l -55.9,113.2 c -1.2,2.4 -3.5,4.1 -6.1,4.4 l -125,18.2 c -6.6,1 -9.3,9.1 -4.5,13.8 l 90.4,88.1 c 1.9,1.9 2.8,4.5 2.3,7.2 l -21.3,124.4 c -0.9,5.2 3.3,9.5 8,9.5 1.2,0 2.5,-0.3 3.8,-1 l 111.8,-58.8 c 1.2,-0.6 2.5,-0.9 3.8,-0.9 1.3,0 2.6,0.3 3.8,0.9 l 111.8,58.8 c 1.2,0.6 2.5,1 3.8,1 4.7,0 8.9,-4.2 8,-9.5 L 356,280.1 c -0.5,-2.6 0.4,-5.3 2.3,-7.2 l 90.4,-88.1 c 4.8,-4.7 2.1,-12.9 -4.5,-13.8 l -125,-18.2 c -2.6,-0.4 -4.9,-2 -6.1,-4.4 L 257.3,35.3 c -1.5,-3 -4.4,-4.5 -7.3,-4.5 z"
   id="path19"
   style="fill:url(#SVGID_1_)" />
</g><g
     id="g69">
	<g
   id="g67">
		<defs
   id="defs24">
			<polygon
   id="SVGID_2_"
   points="137.5,159.3 106.6,282.8 355.9,282.8 408,224.6 383.8,61.8 290.3,52.1 " />
		</defs>
		<clipPath
   id="SVGID_3_">
			<use
   xlink:href="#SVGID_2_"
   style="overflow:visible"
   id="use26"
   x="0"
   y="0"
   width="100%"
   height="100%" />
		</clipPath>
		<g
   class="st3"
   clip-path="url(#SVGID_3_)"
   id="g65">
			
				<rect
   x="155.2"
   y="128.60001"
   transform="matrix(0.6864,-0.7272,0.7272,0.6864,-62.8621,240.3344)"
   class="st4"
   width="184.10001"
   height="128.89999"
   id="rect29" />
			<circle
   class="st4"
   cx="190.8"
   cy="266.29999"
   r="73.699997"
   id="circle31" />
			<circle
   class="st4"
   cx="317.10001"
   cy="132.39999"
   r="73.699997"
   id="circle33" />
			<g
   id="g39">
				<path
   class="st5"
   d="m 248.7,251.2 c -1.5,0 -3,-0.6 -4.2,-1.7 -2.5,-2.3 -2.6,-6.2 -0.2,-8.7 l 12.6,-13.3 c 2.3,-2.5 6.2,-2.6 8.7,-0.2 2.5,2.3 2.5,6.2 0.2,8.7 l -12.6,13.3 c -1.2,1.3 -2.8,1.9 -4.5,1.9 z"
   id="path35" />
				<path
   class="st5"
   d="m 286.6,211.1 c -1.5,0 -3,-0.6 -4.2,-1.7 -2.5,-2.3 -2.5,-6.2 -0.2,-8.7 l 12.6,-13.3 c 2.3,-2.5 6.2,-2.6 8.7,-0.2 2.5,2.3 2.5,6.2 0.2,8.7 l -12.6,13.3 c -1.2,1.2 -2.9,1.9 -4.5,1.9 z"
   id="path37" />
			</g>
			<g
   id="g57">
				<g
   id="g43">
					<circle
   class="st6"
   cx="294.39999"
   cy="110.9"
   r="15.7"
   id="circle41" />
				</g>
				<g
   id="g47">
					<circle
   class="st6"
   cx="338.60001"
   cy="109.7"
   r="15.7"
   id="circle45" />
				</g>
				<g
   id="g51">
					<circle
   class="st6"
   cx="295.70001"
   cy="155.2"
   r="15.7"
   id="circle49" />
				</g>
				<g
   id="g55">
					<circle
   class="st6"
   cx="339.89999"
   cy="153.89999"
   r="15.7"
   id="circle53" />
				</g>
			</g>
			<path
   class="st7"
   d="M 225.2,109.1 162.1,176 c -3.5,3.7 -3.3,9.5 0.4,13 v 0 l 75.8,-80.3 v 0 c -3.8,-3.5 -9.6,-3.3 -13.1,0.4 z"
   id="path59" />
			<circle
   class="st7"
   cx="190.8"
   cy="266.29999"
   r="46"
   id="circle61" />
			<path
   class="st5"
   d="m 201.3,241.7 -9.2,9.8 c -0.9,1 -2.5,1 -3.5,0.1 l -9.8,-9.2 c -1,-0.9 -2.5,-0.9 -3.5,0.1 l -9.3,9.9 c -0.9,1 -0.9,2.5 0.1,3.5 l 9.8,9.2 c 1,0.9 1,2.5 0.1,3.5 l -9.2,9.8 c -0.9,1 -0.9,2.5 0.1,3.5 l 9.9,9.3 c 1,0.9 2.5,0.9 3.5,-0.1 l 9.2,-9.8 c 0.9,-1 2.5,-1 3.5,-0.1 l 9.8,9.2 c 1,0.9 2.5,0.9 3.5,-0.1 l 9.3,-9.9 c 0.9,-1 0.9,-2.5 -0.1,-3.5 l -9.8,-9.2 c -1,-0.9 -1,-2.5 -0.1,-3.5 l 9.2,-9.8 c 0.9,-1 0.9,-2.5 -0.1,-3.5 l -9.9,-9.3 c -1,-1 -2.6,-0.9 -3.5,0.1 z"
   id="path63" />
		</g>
	</g>
</g><g
     id="g89">
	<path
   class="st8"
   d="M 127.2,349.7 H 126 c 0,-2 0.6,-5.9 1.8,-11.6 1.2,-5.7 1.8,-8.9 1.8,-9.7 0,-1.4 -0.6,-2.9 -1.8,-4.5 l -0.6,-0.8 0.1,-0.8 c 2.3,-0.6 6,-1 11.1,-1 0.6,0.8 0.9,2.1 0.9,4 3.9,-2.9 6.9,-4.3 9.2,-4.3 2.9,0 4.6,1.5 5.1,4.4 1.2,-0.9 2.7,-1.9 4.5,-2.9 1.9,-1 3.5,-1.5 5,-1.5 1.5,0 2.7,0.5 3.7,1.4 1,1 1.5,2.3 1.5,4 0,1.7 -0.5,4.5 -1.4,8.5 -0.9,4 -1.4,6.6 -1.4,7.9 0,1.3 0.2,2 0.6,2 0.3,0 1.1,-0.4 2.6,-1.2 l 0.7,-0.4 1.2,2.2 c -1.1,1.1 -2.6,2.2 -4.5,3.2 -1.9,1 -3.6,1.5 -5,1.5 -3.2,0 -4.8,-1.8 -4.8,-5.5 0,-1.3 0.5,-4 1.4,-8 0.9,-4 1.4,-6.6 1.4,-7.8 0,-1.2 -0.4,-1.8 -1.1,-1.8 -1.2,0 -2.7,0.5 -4.2,1.4 -0.1,0.9 -0.7,3.8 -1.8,8.7 -1.1,5 -1.6,8.8 -1.6,11.6 -1.2,0.6 -4.1,0.8 -8.7,0.8 -0.1,-0.5 -0.1,-1.6 -0.1,-3.4 0,-1.8 0.5,-4.9 1.5,-9.2 1,-4.3 1.5,-7.1 1.5,-8.2 0,-1.2 -0.4,-1.7 -1.2,-1.7 -1.3,0 -2.7,0.5 -4.2,1.5 -0.1,0.4 -0.5,2.3 -1.3,5.6 -1.5,6.8 -2.3,11.6 -2.3,14.5 -1.8,0.8 -4.5,1.1 -8.4,1.1 z"
   id="path71" />
	<path
   class="st8"
   d="m 185.9,325 c 0,1.8 -0.6,4.9 -1.7,9.3 -1.2,4.4 -1.7,7.3 -1.7,8.6 0,1.3 0.2,2 0.6,2 0.3,0 1.2,-0.4 2.9,-1.2 l 0.8,-0.4 1.1,2.2 c -0.4,0.3 -0.9,0.8 -1.5,1.3 -0.6,0.5 -1.8,1.2 -3.6,2.1 -1.8,0.9 -3.4,1.3 -4.9,1.3 -1.5,0 -2.7,-0.5 -3.5,-1.4 -0.9,-0.9 -1.3,-2.2 -1.3,-3.7 0,-1.6 0.5,-4.4 1.6,-8.4 1.1,-4 1.6,-6.6 1.6,-7.8 0,-1.8 -0.6,-3.5 -1.7,-5.1 l -0.6,-0.8 0.1,-0.8 c 2.3,-0.6 5.9,-1 11.1,-1 0.4,0.8 0.7,2 0.7,3.8 z m -7.3,-10.7 c -0.9,-0.8 -1.3,-2 -1.3,-3.4 0,-1.4 0.6,-2.6 1.8,-3.7 1.2,-1.1 2.5,-1.6 4.1,-1.6 1.5,0 2.7,0.4 3.6,1.3 0.9,0.9 1.3,2 1.3,3.4 0,1.4 -0.6,2.6 -1.8,3.7 -1.2,1.1 -2.6,1.6 -4.1,1.6 -1.6,0 -2.8,-0.5 -3.6,-1.3 z"
   id="path73" />
	<path
   class="st8"
   d="m 209.9,341.1 c 0,2.7 -1.2,4.9 -3.6,6.6 -2.4,1.7 -5.1,2.6 -8.1,2.6 -3,0 -5.4,-0.6 -7.2,-1.9 -1.8,-1.3 -2.7,-2.4 -2.7,-3.4 0,-0.6 0.8,-1.6 2.2,-2.9 1.4,-1.3 2.8,-2.2 3.8,-2.5 2.1,1.6 3.9,4.1 5.3,7.5 1.6,-0.1 2.4,-0.9 2.4,-2.2 0,-2 -1.7,-4.8 -5.2,-8.4 -3.5,-3.6 -5.2,-6.5 -5.2,-8.6 0,-2.1 1,-3.8 2.9,-5 1.9,-1.2 4.2,-1.8 7,-1.8 2.8,0 4.8,0.5 6.1,1.4 1.4,1 2.1,2.3 2.1,3.9 0,1.6 -1.3,3.9 -3.9,6.8 0.3,0.3 0.7,0.7 1.2,1.2 0.5,0.5 1.1,1.4 1.9,2.8 0.7,1.4 1,2.7 1,3.9 z m -3.4,-14.7 c 0,-1.5 -1,-2.2 -3.1,-2.2 -1,0 -1.8,0.2 -2.4,0.6 -0.6,0.4 -1,0.9 -1,1.4 0,0.9 0.9,2.3 2.8,4 l 1,0.8 c 1.8,-1.6 2.7,-3.1 2.7,-4.6 z"
   id="path75" />
	<path
   class="st8"
   d="m 229.5,328.1 c 0,-1 -0.6,-2.3 -1.9,-4 l -0.6,-0.9 0.1,-0.8 c 2.4,-0.6 6.1,-1 11.1,-1 0.6,0.6 0.8,1.8 0.8,3.6 0,1.7 -0.5,5.8 -1.6,12.1 -1.1,6.3 -1.9,10.9 -2.6,13.7 -0.7,2.8 -1.4,5 -2.2,6.6 -0.8,1.6 -2,3.1 -3.6,4.5 -1.6,1.4 -3.4,2.1 -5.3,2.1 -1.9,0 -3.6,-0.4 -5.2,-1.2 -1.6,-0.8 -2.8,-1.6 -3.6,-2.4 l -1.2,-1.2 1.4,-2.1 c 2.1,1.2 3.7,1.9 4.7,1.9 1.6,0 3.1,-1.1 4.4,-3.4 1.3,-2.3 2.5,-6.8 3.6,-13.5 1.2,-6.9 1.7,-11.5 1.7,-14 z m 2.4,-13.8 c -0.9,-0.8 -1.3,-2 -1.3,-3.4 0,-1.4 0.6,-2.6 1.8,-3.7 1.2,-1.1 2.5,-1.6 4.1,-1.6 1.5,0 2.7,0.4 3.6,1.3 0.9,0.9 1.3,2 1.3,3.4 0,1.4 -0.6,2.6 -1.8,3.7 -1.2,1.1 -2.6,1.6 -4.1,1.6 -1.6,0 -2.8,-0.5 -3.6,-1.3 z"
   id="path77" />
	<path
   class="st8"
   d="m 242.7,344.6 c 0,-1.8 0.6,-5 1.7,-9.4 1.1,-4.4 1.7,-7.1 1.7,-8.2 0,-1.1 -0.8,-2.3 -2.3,-4 l 0.1,-0.8 c 2.9,-0.6 6.8,-0.9 11.5,-0.9 0.2,0.6 0.3,1.6 0.3,3 0,1.4 -0.6,4.6 -1.8,9.3 -1.2,4.7 -1.8,7.7 -1.8,8.9 0,1.2 0.4,1.7 1.3,1.7 1.2,0 2.7,-0.5 4.3,-1.4 0.2,-1 0.6,-3 1.3,-5.9 1.5,-6.9 2.3,-11.8 2.3,-14.7 1.5,-0.6 4.2,-0.9 8.1,-0.9 h 1.2 c 0,2 -0.6,5.9 -1.8,11.8 -1.2,5.9 -1.8,9.3 -1.8,10.3 0,1 0.2,1.5 0.6,1.5 0.3,0 1.5,-0.5 3.7,-1.5 l 1.2,2.1 c -3.8,3.2 -7.1,4.8 -10,4.8 -1.4,0 -2.5,-0.4 -3.5,-1.2 -1,-0.8 -1.5,-1.8 -1.6,-3 -3.5,2.8 -6.6,4.2 -9.4,4.2 -1.5,0 -2.7,-0.5 -3.7,-1.5 -1.1,-0.9 -1.6,-2.3 -1.6,-4.2 z"
   id="path79" />
	<path
   class="st8"
   d="m 274,338.4 c 0,-5.4 1.6,-9.6 4.9,-12.7 3.2,-3.1 6.9,-4.7 11,-4.7 2.5,0 4.6,0.6 6.2,1.9 1.6,1.3 2.4,2.9 2.4,5 0,2.1 -0.5,3.8 -1.6,5.2 -1,1.4 -2.3,2.5 -3.8,3.3 -3,1.5 -5.8,2.4 -8.4,2.8 l -1.5,0.2 c 0.3,4 2,6 5,6 1,0 2.1,-0.3 3.3,-0.8 1.2,-0.5 2.1,-1 2.7,-1.5 l 1,-0.8 1.5,2.1 c -0.3,0.5 -1,1.1 -2.1,1.9 -1.1,0.8 -2,1.4 -2.9,1.9 -2.5,1.4 -5.2,2.1 -8.2,2.1 -3,0 -5.3,-1 -7,-3.1 -1.6,-2.2 -2.5,-5.1 -2.5,-8.8 z m 14.4,-4.9 c 1.3,-1.5 1.9,-3.3 1.9,-5.6 0,-2.3 -0.7,-3.5 -2.1,-3.5 -1.6,0 -2.9,1.4 -3.8,4.1 -0.9,2.7 -1.3,5.3 -1.3,7.7 2.3,-0.3 4,-1.3 5.3,-2.7 z"
   id="path81" />
	<path
   class="st8"
   d="m 327.1,321.5 c 0.2,0.2 0.3,0.5 0.3,1.1 0,0.6 0,1.2 -0.1,1.9 -0.1,0.7 -0.2,2.1 -0.5,4.5 -0.2,2.3 -0.4,4.3 -0.6,6 -2.2,19.3 -8,28.9 -17.6,28.9 -1.5,0 -3,-0.4 -4.2,-1.2 -1.3,-0.8 -1.9,-1.9 -1.9,-3.1 0,-1.7 1,-3.3 3.1,-4.7 2.1,-1.4 4.9,-2.5 8.5,-3.3 0,0 0.1,-0.6 0.4,-1.8 0.3,-1.2 0.4,-2.1 0.5,-2.8 -2.6,1.9 -5,2.8 -7.2,2.8 -2.2,0 -4.1,-0.9 -5.5,-2.6 -1.4,-1.8 -2.1,-4.6 -2.1,-8.4 0,-5 1.1,-9.3 3.4,-12.6 2.3,-3.3 5.3,-5 9,-5 2.1,0 4.2,0.5 6.2,1.5 2.2,-0.8 4.5,-1.2 7.1,-1.2 z M 308,356.4 c -1.4,0.9 -2.1,1.7 -2.1,2.5 0,0.8 0.5,1.2 1.4,1.2 0.9,0 2,-0.4 3.1,-1.3 1.1,-0.9 2.1,-2.3 2.9,-4.3 -2.1,0.4 -3.9,1.1 -5.3,1.9 z m 7.3,-31.6 c -1.8,0 -3.3,1.5 -4.4,4.5 -1.1,3 -1.6,6.3 -1.6,9.9 0,3.6 0.8,5.4 2.4,5.4 1.1,0 2.3,-0.4 3.8,-1.2 1.2,-7.2 2.1,-13.1 2.6,-17.8 -1.2,-0.5 -2.1,-0.8 -2.8,-0.8 z"
   id="path83" />
	<path
   class="st8"
   d="m 338.6,350.2 c -3,0 -5.3,-1 -6.9,-3.1 -1.6,-2.1 -2.5,-5 -2.5,-8.7 0,-4.8 1.3,-8.8 3.8,-12.3 2.5,-3.4 6.1,-5.1 10.6,-5.1 l 2.3,0.1 c 0.7,-0.4 1.5,-0.6 2.4,-0.6 3.4,0 5.1,3.2 5.1,9.6 1.8,-0.1 3.5,-0.3 5.3,-0.7 l 1,-0.3 0.4,2.5 c -1.4,0.6 -3.3,1.1 -5.7,1.6 l -1.3,0.3 c -0.8,4.5 -2.5,8.4 -5,11.7 -2.4,3.4 -5.6,5 -9.5,5 z m 3.5,-5.5 c 1.8,0 3.4,-1.2 4.9,-3.5 1.4,-2.3 2.4,-4.8 3,-7.3 -4.6,0 -6.9,-1.7 -6.9,-5.1 0,-1.4 0.3,-2.7 0.8,-3.9 l 0.3,-0.6 c -0.2,-0.1 -0.4,-0.1 -0.6,-0.1 -0.3,0 -0.5,0 -0.6,0.1 -1.1,0.7 -2.1,2.3 -3,4.8 -0.9,2.5 -1.4,5.4 -1.4,8.7 0,4.6 1.1,6.9 3.5,6.9 z"
   id="path85" />
	<path
   class="st8"
   d="m 375.4,341.1 c 0,2.7 -1.2,4.9 -3.6,6.6 -2.4,1.7 -5.1,2.6 -8.1,2.6 -3,0 -5.5,-0.6 -7.2,-1.9 -1.8,-1.3 -2.7,-2.4 -2.7,-3.4 0,-0.6 0.8,-1.6 2.2,-2.9 1.4,-1.3 2.8,-2.2 3.8,-2.5 2.1,1.6 3.9,4.1 5.3,7.5 1.6,-0.1 2.4,-0.9 2.4,-2.2 0,-2 -1.7,-4.8 -5.2,-8.4 -3.5,-3.6 -5.2,-6.5 -5.2,-8.6 0,-2.1 1,-3.8 2.9,-5 1.9,-1.2 4.2,-1.8 7,-1.8 2.8,0 4.8,0.5 6.1,1.4 1.3,0.9 2.1,2.3 2.1,3.9 0,1.6 -1.3,3.9 -3.9,6.8 0.3,0.3 0.7,0.7 1.2,1.2 0.5,0.5 1.1,1.4 1.9,2.8 0.6,1.4 1,2.7 1,3.9 z M 372,326.4 c 0,-1.5 -1,-2.2 -3.1,-2.2 -1,0 -1.8,0.2 -2.4,0.6 -0.6,0.4 -1,0.9 -1,1.4 0,0.9 0.9,2.3 2.8,4 l 1,0.8 c 1.8,-1.6 2.7,-3.1 2.7,-4.6 z"
   id="path87" />
</g><g
     id="g109">
	<path
   class="st0"
   d="M 127.2,349.7 H 126 c 0,-2 0.6,-5.9 1.8,-11.6 1.2,-5.7 1.8,-8.9 1.8,-9.7 0,-1.4 -0.6,-2.9 -1.8,-4.5 l -0.6,-0.8 0.1,-0.8 c 2.3,-0.6 6,-1 11.1,-1 0.6,0.8 0.9,2.1 0.9,4 3.9,-2.9 6.9,-4.3 9.2,-4.3 2.9,0 4.6,1.5 5.1,4.4 1.2,-0.9 2.7,-1.9 4.5,-2.9 1.9,-1 3.5,-1.5 5,-1.5 1.5,0 2.7,0.5 3.7,1.4 1,1 1.5,2.3 1.5,4 0,1.7 -0.5,4.5 -1.4,8.5 -0.9,4 -1.4,6.6 -1.4,7.9 0,1.3 0.2,2 0.6,2 0.3,0 1.1,-0.4 2.6,-1.2 l 0.7,-0.4 1.2,2.2 c -1.1,1.1 -2.6,2.2 -4.5,3.2 -1.9,1 -3.6,1.5 -5,1.5 -3.2,0 -4.8,-1.8 -4.8,-5.5 0,-1.3 0.5,-4 1.4,-8 0.9,-4 1.4,-6.6 1.4,-7.8 0,-1.2 -0.4,-1.8 -1.1,-1.8 -1.2,0 -2.7,0.5 -4.2,1.4 -0.1,0.9 -0.7,3.8 -1.8,8.7 -1.1,5 -1.6,8.8 -1.6,11.6 -1.2,0.6 -4.1,0.8 -8.7,0.8 -0.1,-0.5 -0.1,-1.6 -0.1,-3.4 0,-1.8 0.5,-4.9 1.5,-9.2 1,-4.3 1.5,-7.1 1.5,-8.2 0,-1.2 -0.4,-1.7 -1.2,-1.7 -1.3,0 -2.7,0.5 -4.2,1.5 -0.1,0.4 -0.5,2.3 -1.3,5.6 -1.5,6.8 -2.3,11.6 -2.3,14.5 -1.8,0.8 -4.5,1.1 -8.4,1.1 z"
   id="path91" />
	<path
   class="st0"
   d="m 185.9,325 c 0,1.8 -0.6,4.9 -1.7,9.3 -1.2,4.4 -1.7,7.3 -1.7,8.6 0,1.3 0.2,2 0.6,2 0.3,0 1.2,-0.4 2.9,-1.2 l 0.8,-0.4 1.1,2.2 c -0.4,0.3 -0.9,0.8 -1.5,1.3 -0.6,0.5 -1.8,1.2 -3.6,2.1 -1.8,0.9 -3.4,1.3 -4.9,1.3 -1.5,0 -2.7,-0.5 -3.5,-1.4 -0.9,-0.9 -1.3,-2.2 -1.3,-3.7 0,-1.6 0.5,-4.4 1.6,-8.4 1.1,-4 1.6,-6.6 1.6,-7.8 0,-1.8 -0.6,-3.5 -1.7,-5.1 l -0.6,-0.8 0.1,-0.8 c 2.3,-0.6 5.9,-1 11.1,-1 0.4,0.8 0.7,2 0.7,3.8 z m -7.3,-10.7 c -0.9,-0.8 -1.3,-2 -1.3,-3.4 0,-1.4 0.6,-2.6 1.8,-3.7 1.2,-1.1 2.5,-1.6 4.1,-1.6 1.5,0 2.7,0.4 3.6,1.3 0.9,0.9 1.3,2 1.3,3.4 0,1.4 -0.6,2.6 -1.8,3.7 -1.2,1.1 -2.6,1.6 -4.1,1.6 -1.6,0 -2.8,-0.5 -3.6,-1.3 z"
   id="path93" />
	<path
   class="st0"
   d="m 209.9,341.1 c 0,2.7 -1.2,4.9 -3.6,6.6 -2.4,1.7 -5.1,2.6 -8.1,2.6 -3,0 -5.4,-0.6 -7.2,-1.9 -1.8,-1.3 -2.7,-2.4 -2.7,-3.4 0,-0.6 0.8,-1.6 2.2,-2.9 1.4,-1.3 2.8,-2.2 3.8,-2.5 2.1,1.6 3.9,4.1 5.3,7.5 1.6,-0.1 2.4,-0.9 2.4,-2.2 0,-2 -1.7,-4.8 -5.2,-8.4 -3.5,-3.6 -5.2,-6.5 -5.2,-8.6 0,-2.1 1,-3.8 2.9,-5 1.9,-1.2 4.2,-1.8 7,-1.8 2.8,0 4.8,0.5 6.1,1.4 1.4,1 2.1,2.3 2.1,3.9 0,1.6 -1.3,3.9 -3.9,6.8 0.3,0.3 0.7,0.7 1.2,1.2 0.5,0.5 1.1,1.4 1.9,2.8 0.7,1.4 1,2.7 1,3.9 z m -3.4,-14.7 c 0,-1.5 -1,-2.2 -3.1,-2.2 -1,0 -1.8,0.2 -2.4,0.6 -0.6,0.4 -1,0.9 -1,1.4 0,0.9 0.9,2.3 2.8,4 l 1,0.8 c 1.8,-1.6 2.7,-3.1 2.7,-4.6 z"
   id="path95" />
	<path
   class="st0"
   d="m 229.5,328.1 c 0,-1 -0.6,-2.3 -1.9,-4 l -0.6,-0.9 0.1,-0.8 c 2.4,-0.6 6.1,-1 11.1,-1 0.6,0.6 0.8,1.8 0.8,3.6 0,1.7 -0.5,5.8 -1.6,12.1 -1.1,6.3 -1.9,10.9 -2.6,13.7 -0.7,2.8 -1.4,5 -2.2,6.6 -0.8,1.6 -2,3.1 -3.6,4.5 -1.6,1.4 -3.4,2.1 -5.3,2.1 -1.9,0 -3.6,-0.4 -5.2,-1.2 -1.6,-0.8 -2.8,-1.6 -3.6,-2.4 l -1.2,-1.2 1.4,-2.1 c 2.1,1.2 3.7,1.9 4.7,1.9 1.6,0 3.1,-1.1 4.4,-3.4 1.3,-2.3 2.5,-6.8 3.6,-13.5 1.2,-6.9 1.7,-11.5 1.7,-14 z m 2.4,-13.8 c -0.9,-0.8 -1.3,-2 -1.3,-3.4 0,-1.4 0.6,-2.6 1.8,-3.7 1.2,-1.1 2.5,-1.6 4.1,-1.6 1.5,0 2.7,0.4 3.6,1.3 0.9,0.9 1.3,2 1.3,3.4 0,1.4 -0.6,2.6 -1.8,3.7 -1.2,1.1 -2.6,1.6 -4.1,1.6 -1.6,0 -2.8,-0.5 -3.6,-1.3 z"
   id="path97" />
	<path
   class="st0"
   d="m 242.7,344.6 c 0,-1.8 0.6,-5 1.7,-9.4 1.1,-4.4 1.7,-7.1 1.7,-8.2 0,-1.1 -0.8,-2.3 -2.3,-4 l 0.1,-0.8 c 2.9,-0.6 6.8,-0.9 11.5,-0.9 0.2,0.6 0.3,1.6 0.3,3 0,1.4 -0.6,4.6 -1.8,9.3 -1.2,4.7 -1.8,7.7 -1.8,8.9 0,1.2 0.4,1.7 1.3,1.7 1.2,0 2.7,-0.5 4.3,-1.4 0.2,-1 0.6,-3 1.3,-5.9 1.5,-6.9 2.3,-11.8 2.3,-14.7 1.5,-0.6 4.2,-0.9 8.1,-0.9 h 1.2 c 0,2 -0.6,5.9 -1.8,11.8 -1.2,5.9 -1.8,9.3 -1.8,10.3 0,1 0.2,1.5 0.6,1.5 0.3,0 1.5,-0.5 3.7,-1.5 l 1.2,2.1 c -3.8,3.2 -7.1,4.8 -10,4.8 -1.4,0 -2.5,-0.4 -3.5,-1.2 -1,-0.8 -1.5,-1.8 -1.6,-3 -3.5,2.8 -6.6,4.2 -9.4,4.2 -1.5,0 -2.7,-0.5 -3.7,-1.5 -1.1,-0.9 -1.6,-2.3 -1.6,-4.2 z"
   id="path99" />
	<path
   class="st0"
   d="m 274,338.4 c 0,-5.4 1.6,-9.6 4.9,-12.7 3.2,-3.1 6.9,-4.7 11,-4.7 2.5,0 4.6,0.6 6.2,1.9 1.6,1.3 2.4,2.9 2.4,5 0,2.1 -0.5,3.8 -1.6,5.2 -1,1.4 -2.3,2.5 -3.8,3.3 -3,1.5 -5.8,2.4 -8.4,2.8 l -1.5,0.2 c 0.3,4 2,6 5,6 1,0 2.1,-0.3 3.3,-0.8 1.2,-0.5 2.1,-1 2.7,-1.5 l 1,-0.8 1.5,2.1 c -0.3,0.5 -1,1.1 -2.1,1.9 -1.1,0.8 -2,1.4 -2.9,1.9 -2.5,1.4 -5.2,2.1 -8.2,2.1 -3,0 -5.3,-1 -7,-3.1 -1.6,-2.2 -2.5,-5.1 -2.5,-8.8 z m 14.4,-4.9 c 1.3,-1.5 1.9,-3.3 1.9,-5.6 0,-2.3 -0.7,-3.5 -2.1,-3.5 -1.6,0 -2.9,1.4 -3.8,4.1 -0.9,2.7 -1.3,5.3 -1.3,7.7 2.3,-0.3 4,-1.3 5.3,-2.7 z"
   id="path101" />
	<path
   class="st0"
   d="m 327.1,321.5 c 0.2,0.2 0.3,0.5 0.3,1.1 0,0.6 0,1.2 -0.1,1.9 -0.1,0.7 -0.2,2.1 -0.5,4.5 -0.2,2.3 -0.4,4.3 -0.6,6 -2.2,19.3 -8,28.9 -17.6,28.9 -1.5,0 -3,-0.4 -4.2,-1.2 -1.3,-0.8 -1.9,-1.9 -1.9,-3.1 0,-1.7 1,-3.3 3.1,-4.7 2.1,-1.4 4.9,-2.5 8.5,-3.3 0,0 0.1,-0.6 0.4,-1.8 0.3,-1.2 0.4,-2.1 0.5,-2.8 -2.6,1.9 -5,2.8 -7.2,2.8 -2.2,0 -4.1,-0.9 -5.5,-2.6 -1.4,-1.8 -2.1,-4.6 -2.1,-8.4 0,-5 1.1,-9.3 3.4,-12.6 2.3,-3.3 5.3,-5 9,-5 2.1,0 4.2,0.5 6.2,1.5 2.2,-0.8 4.5,-1.2 7.1,-1.2 z M 308,356.4 c -1.4,0.9 -2.1,1.7 -2.1,2.5 0,0.8 0.5,1.2 1.4,1.2 0.9,0 2,-0.4 3.1,-1.3 1.1,-0.9 2.1,-2.3 2.9,-4.3 -2.1,0.4 -3.9,1.1 -5.3,1.9 z m 7.3,-31.6 c -1.8,0 -3.3,1.5 -4.4,4.5 -1.1,3 -1.6,6.3 -1.6,9.9 0,3.6 0.8,5.4 2.4,5.4 1.1,0 2.3,-0.4 3.8,-1.2 1.2,-7.2 2.1,-13.1 2.6,-17.8 -1.2,-0.5 -2.1,-0.8 -2.8,-0.8 z"
   id="path103" />
	<path
   class="st0"
   d="m 338.6,350.2 c -3,0 -5.3,-1 -6.9,-3.1 -1.6,-2.1 -2.5,-5 -2.5,-8.7 0,-4.8 1.3,-8.8 3.8,-12.3 2.5,-3.4 6.1,-5.1 10.6,-5.1 l 2.3,0.1 c 0.7,-0.4 1.5,-0.6 2.4,-0.6 3.4,0 5.1,3.2 5.1,9.6 1.8,-0.1 3.5,-0.3 5.3,-0.7 l 1,-0.3 0.4,2.5 c -1.4,0.6 -3.3,1.1 -5.7,1.6 l -1.3,0.3 c -0.8,4.5 -2.5,8.4 -5,11.7 -2.4,3.4 -5.6,5 -9.5,5 z m 3.5,-5.5 c 1.8,0 3.4,-1.2 4.9,-3.5 1.4,-2.3 2.4,-4.8 3,-7.3 -4.6,0 -6.9,-1.7 -6.9,-5.1 0,-1.4 0.3,-2.7 0.8,-3.9 l 0.3,-0.6 c -0.2,-0.1 -0.4,-0.1 -0.6,-0.1 -0.3,0 -0.5,0 -0.6,0.1 -1.1,0.7 -2.1,2.3 -3,4.8 -0.9,2.5 -1.4,5.4 -1.4,8.7 0,4.6 1.1,6.9 3.5,6.9 z"
   id="path105" />
	<path
   class="st0"
   d="m 375.4,341.1 c 0,2.7 -1.2,4.9 -3.6,6.6 -2.4,1.7 -5.1,2.6 -8.1,2.6 -3,0 -5.5,-0.6 -7.2,-1.9 -1.8,-1.3 -2.7,-2.4 -2.7,-3.4 0,-0.6 0.8,-1.6 2.2,-2.9 1.4,-1.3 2.8,-2.2 3.8,-2.5 2.1,1.6 3.9,4.1 5.3,7.5 1.6,-0.1 2.4,-0.9 2.4,-2.2 0,-2 -1.7,-4.8 -5.2,-8.4 -3.5,-3.6 -5.2,-6.5 -5.2,-8.6 0,-2.1 1,-3.8 2.9,-5 1.9,-1.2 4.2,-1.8 7,-1.8 2.8,0 4.8,0.5 6.1,1.4 1.3,0.9 2.1,2.3 2.1,3.9 0,1.6 -1.3,3.9 -3.9,6.8 0.3,0.3 0.7,0.7 1.2,1.2 0.5,0.5 1.1,1.4 1.9,2.8 0.6,1.4 1,2.7 1,3.9 z M 372,326.4 c 0,-1.5 -1,-2.2 -3.1,-2.2 -1,0 -1.8,0.2 -2.4,0.6 -0.6,0.4 -1,0.9 -1,1.4 0,0.9 0.9,2.3 2.8,4 l 1,0.8 c 1.8,-1.6 2.7,-3.1 2.7,-4.6 z"
   id="path107" />
</g></g>
</svg>
