<?xml version="1.0" encoding="utf-8"?>
<!-- Generator: Adobe Illustrator 25.0.0, SVG Export Plug-In . SVG Version: 6.00 Build 0)  -->
<svg version="1.1" id="face_t" xmlns="http://www.w3.org/2000/svg" xmlns:xlink="http://www.w3.org/1999/xlink" x="0px" y="0px"
	 viewBox="0 0 600 600" style="enable-background:new 0 0 600 600;" xml:space="preserve">
<style type="text/css">
	.st0{fill:#F5E0CD;}
	.st1{fill:none;stroke:#000000;stroke-width:5;stroke-linecap:round;stroke-miterlimit:10;}
	.st2{fill:none;stroke:#000000;stroke-width:10;stroke-linecap:round;stroke-linejoin:round;stroke-miterlimit:10;}
	.st3{fill:none;stroke:#000000;stroke-width:8.357;stroke-linecap:round;stroke-linejoin:round;stroke-miterlimit:10;}
	.st4{fill:none;stroke:#B3B3B3;stroke-width:15;stroke-miterlimit:10;}
	.st5{opacity:0.5;fill:none;stroke:#FFFFFF;stroke-width:35.8171;stroke-linecap:round;stroke-miterlimit:10;}
</style>
<g>
	<path class="st0" d="M448,343.93c0,24.45,13.61,35.72,30.39,25.17c16.79-10.55,30.39-31.39,30.39-55.84v-0.3
		c0-18.86-13.61-34.15-30.39-34.15c-16.79,0-30.39,15.29-30.39,34.15V343.93z"/>
	<path class="st0" d="M152,343.93c0,24.45-13.61,35.72-30.39,25.17c-16.79-10.55-30.39-31.39-30.39-55.84v-0.3
		c0-18.86,13.61-34.15,30.39-34.15S152,294.11,152,312.97V343.93z"/>
	<path class="st0" d="M152,333c0,81.74,66.26,148,148,148s148-66.26,148-148v-66c0-81.74-66.26-148-148-148s-148,66.26-148,148V333z
		"/>
</g>
<path class="st0" d="M344.05,457.5h-88.09v36.6c0,14.48-4.44,28.49-12.53,40.25c18.15,4.34,37.1,6.65,56.58,6.65
	s38.42-2.31,56.58-6.65c-8.1-11.76-12.53-25.77-12.53-40.25V457.5z"/>
<path d="M255.95,494.1v-19.78c-10.17-3.17-19.88-7.39-28.98-12.56v68.05c5.4,1.7,10.89,3.22,16.44,4.55
	C251.52,522.59,255.95,508.58,255.95,494.1z"/>
<path d="M344.05,474.32v19.78c0,14.48,4.44,28.49,12.53,40.25c5.56-1.33,11.04-2.84,16.44-4.55v-68.05
	C363.92,466.92,354.22,471.15,344.05,474.32z"/>
<path d="M377.64,146.5c0,21.44-38.82-27.5-77.64-27.5s-77.64,48.94-77.64,27.5c0-42.88,34.76-77.64,77.64-77.64
	S377.64,103.62,377.64,146.5z"/>
<path d="M452.03,268.67c-11.07-40.74-33.78-74.03-72.7-93.13c-2.66-1.31-33.16-26.25-33.16-26.25l0.69,13.13l-23.49-20.73
	l4.15,16.58l-20.04-22.11L300,158.18l-4.96-19.94l-23.49,26.95l-9.67-15.89l-16.58,24.18l-2.07-16.58c0,0-13.33,16.7-15.99,18
	c-38.91,19.1-68.19,53.04-79.26,93.78l-0.43-20.73v-3.83C147.55,160.32,215.8,92.4,300,92.4s152.45,67.93,152.45,151.72v3.82
	L452.03,268.67z"/>
<path d="M300,92.4c-84.2,0-152.45,67.93-152.45,151.72v3.83l0.43,68.9c37.88-39.76,70.88-65.05,77.56-141.1
	c7.41,22.52,30.75,53.5,102.67,57.83L300,187.29c0,0,46.62,48.61,84.62,54.14l-32.8-60.89c0,0,44.44,61.95,100.22,126.8l0.43-59.4
	v-3.82C452.45,160.32,384.2,92.4,300,92.4z"/>
<circle cx="233.05" cy="309.21" r="15.53"/>
<circle cx="366.95" cy="309.21" r="15.53"/>
<path class="st1" d="M356.26,272.36c3.22-1.3,6.85-2.03,10.69-2.03c4.97,0,9.59,1.22,13.42,3.31"/>
<path class="st1" d="M243.74,272.36c-3.22-1.3-6.85-2.03-10.69-2.03c-4.97,0-9.59,1.22-13.42,3.31"/>
<path class="st2" d="M265.07,397.75c10.08,6.48,22.06,10.26,34.93,10.26s24.85-3.78,34.93-10.26"/>
<circle class="st3" cx="366.95" cy="303" r="53.36"/>
<circle class="st3" cx="233.05" cy="303" r="53.36"/>
<circle class="st4" cx="300" cy="298.5" r="242.5"/>
<path class="st5" d="M300,103.52c63.36,0,119.66,30.22,155.28,77.04"/>
<path class="st5" d="M376.38,477.95c-23.46,10-49.27,15.53-76.38,15.53c-107.68,0-194.98-87.29-194.98-194.98"/>
</svg>
