<?xml version="1.0" encoding="utf-8"?>
<!-- Generator: Adobe Illustrator 25.0.0, SVG Export Plug-In . SVG Version: 6.00 Build 0)  -->
<svg version="1.1" id="hair_t" xmlns="http://www.w3.org/2000/svg" xmlns:xlink="http://www.w3.org/1999/xlink" x="0px" y="0px"
	 viewBox="0 0 600 600" style="enable-background:new 0 0 600 600;" xml:space="preserve">
<style type="text/css">
	.st0{fill:#F5E0CD;}
	.st1{fill:none;stroke:#000000;stroke-width:5;stroke-linecap:round;stroke-miterlimit:10;}
	.st2{fill:none;stroke:#000000;stroke-width:10;stroke-linecap:round;stroke-linejoin:round;stroke-miterlimit:10;}
	.st3{fill:none;stroke:#000000;stroke-width:8.357;stroke-linecap:round;stroke-linejoin:round;stroke-miterlimit:10;}
	.st4{fill:none;stroke:#B3B3B3;stroke-width:15;stroke-miterlimit:10;}
	.st5{opacity:0.5;fill:none;stroke:#FFFFFF;stroke-width:35.8171;stroke-linecap:round;stroke-miterlimit:10;}
</style>
<g>
	<path class="st0" d="M448,343.93c0,24.45,13.61,35.72,30.39,25.17c16.79-10.55,30.39-31.39,30.39-55.84v-0.3
		c0-18.86-13.61-34.15-30.39-34.15c-16.79,0-30.39,15.29-30.39,34.15V343.93z"/>
	<path class="st0" d="M152,343.93c0,24.45-13.61,35.72-30.39,25.17c-16.79-10.55-30.39-31.39-30.39-55.84v-0.3
		c0-18.86,13.61-34.15,30.39-34.15S152,294.11,152,312.97V343.93z"/>
	<path class="st0" d="M152,333c0,81.74,66.26,148,148,148s148-66.26,148-148v-66c0-81.74-66.26-148-148-148s-148,66.26-148,148V333z
		"/>
</g>
<path class="st0" d="M344.05,457.5h-88.09v36.6c0,14.48-4.44,28.49-12.53,40.25c18.15,4.34,37.1,6.65,56.58,6.65
	s38.42-2.31,56.58-6.65c-8.1-11.76-12.53-25.77-12.53-40.25V457.5z"/>
<path d="M407.15,152.82l21.71-21.32c-12.19-6.13-46.26-7.05-59-7.17c-0.89-0.48-1.79-0.95-2.69-1.42l25.82-16.41
	c-38.68-18.43-92.99,0-92.99,0c8.39-8.57,27.94-27.17,27.94-27.17c-42.19-1.85-88.49,33.28-88.49,33.28l6.74-12.94
	c-63.58,34.3-89.19,111.21-89.19,111.23c-6.22,17.47-9.63,36.38-9.63,56.11v66c0,88.5,68.47,160.5,152.63,160.5
	s152.63-72,152.63-160.5v-66C452.63,222.37,435.21,181.94,407.15,152.82z M438.46,333c0,74.71-62.11,135.5-138.46,135.5
	S161.54,407.71,161.54,333v-66c0-56.52,35.55-87.54,85.91-107.84c16.21-6.53,33.96,0.41,52.55,0.41c19.09,0,37.28-6.74,53.84,0.12
	c49.68,20.6,84.62,51.27,84.62,107.31V333z"/>
<circle cx="233.05" cy="309.21" r="15.53"/>
<circle cx="366.95" cy="309.21" r="15.53"/>
<path class="st1" d="M356.26,272.36c3.22-1.3,6.85-2.03,10.69-2.03c4.97,0,9.59,1.22,13.42,3.31"/>
<path class="st1" d="M243.74,272.36c-3.22-1.3-6.85-2.03-10.69-2.03c-4.97,0-9.59,1.22-13.42,3.31"/>
<path class="st2" d="M265.07,397.75c10.08,6.48,22.06,10.26,34.93,10.26s24.85-3.78,34.93-10.26"/>
<circle class="st3" cx="366.95" cy="303" r="53.36"/>
<circle class="st3" cx="233.05" cy="303" r="53.36"/>
<circle class="st4" cx="300" cy="298.5" r="242.5"/>
<path class="st5" d="M300,103.52c63.36,0,119.66,30.22,155.28,77.04"/>
<path class="st5" d="M376.38,477.95c-23.46,10-49.27,15.53-76.38,15.53c-107.68,0-194.98-87.29-194.98-194.98"/>
</svg>
